<?xml version="1.0" encoding="UTF-8" standalone="no"?>
<svg
   xmlns:dc="http://purl.org/dc/elements/1.1/"
   xmlns:cc="http://creativecommons.org/ns#"
   xmlns:rdf="http://www.w3.org/1999/02/22-rdf-syntax-ns#"
   xmlns:svg="http://www.w3.org/2000/svg"
   xmlns="http://www.w3.org/2000/svg"
   xmlns:sodipodi="http://sodipodi.sourceforge.net/DTD/sodipodi-0.dtd"
   xmlns:inkscape="http://www.inkscape.org/namespaces/inkscape"
   version="1.1"
   id="svg462"
   xml:space="preserve"
   width="632.73895"
   height="385.42264"
   viewBox="0 0 632.73895 385.42264"
   sodipodi:docname="CO2-resp-rates-1_2020-10-07.svg"
   inkscape:version="1.0.1 (c497b03c, 2020-09-10)"
   inkscape:export-filename="/Users/jeff/arc-inc/src/figure/CO2-resp-rates-1_2020-10-07.png"
   inkscape:export-xdpi="96"
   inkscape:export-ydpi="96"><metadata
     id="metadata468"><rdf:RDF><cc:Work
         rdf:about=""><dc:format>image/svg+xml</dc:format><dc:type
           rdf:resource="http://purl.org/dc/dcmitype/StillImage" /><dc:title></dc:title></cc:Work></rdf:RDF></metadata><defs
     id="defs466"><clipPath
       clipPathUnits="userSpaceOnUse"
       id="clipPath486"><path
         d="m 33.836,282.52 h 298.59 V 159.95 H 33.836 Z"
         id="path484" /></clipPath><clipPath
       clipPathUnits="userSpaceOnUse"
       id="clipPath496"><path
         d="m 107,282.52 h 2 V 159.95 h -2 z"
         id="path494" /></clipPath><clipPath
       clipPathUnits="userSpaceOnUse"
       id="clipPath582"><path
         d="m 33.836,282.52 h 298.59 V 159.95 H 33.836 Z"
         id="path580" /></clipPath><clipPath
       clipPathUnits="userSpaceOnUse"
       id="clipPath592"><path
         d="m 33.836,154.473 h 298.59 V 31.903 H 33.836 Z"
         id="path590" /></clipPath><clipPath
       clipPathUnits="userSpaceOnUse"
       id="clipPath602"><path
         d="m 107,154.473 h 2 V 31.903 h -2 z"
         id="path600" /></clipPath><clipPath
       clipPathUnits="userSpaceOnUse"
       id="clipPath700"><path
         d="m 33.836,154.473 h 298.59 V 31.903 H 33.836 Z"
         id="path698" /></clipPath><clipPath
       clipPathUnits="userSpaceOnUse"
       id="clipPath710"><path
         d="m 332.422,282.52 h 17.211 V 159.95 h -17.211 z"
         id="path708" /></clipPath><clipPath
       clipPathUnits="userSpaceOnUse"
       id="clipPath724"><path
         d="m 332.422,154.473 h 17.211 V 31.903 h -17.211 z"
         id="path722" /></clipPath></defs><sodipodi:namedview
     pagecolor="#ffffff"
     bordercolor="#666666"
     borderopacity="1"
     objecttolerance="10"
     gridtolerance="10"
     guidetolerance="10"
     inkscape:pageopacity="0"
     inkscape:pageshadow="2"
     inkscape:window-width="1514"
     inkscape:window-height="935"
     id="namedview464"
     showgrid="false"
     inkscape:zoom="1.1932427"
     inkscape:cx="374.49547"
     inkscape:cy="201.13245"
     inkscape:window-x="0"
     inkscape:window-y="23"
     inkscape:window-maximized="0"
     inkscape:current-layer="g470"
     inkscape:document-rotation="0" /><g
     id="g470"
     inkscape:groupmode="layer"
     inkscape:label="CO2-resp-rates-1_11-09-2020"
     transform="matrix(1.3333333,0,0,-1.3333333,0.71131999,384.71131)"><g
       id="g472"
       inkscape:export-xdpi="96"
       inkscape:export-ydpi="96"><path
         d="M 0,0 H 468 V 288 H 0 Z"
         style="fill:#ffffff;fill-opacity:1;fill-rule:nonzero;stroke:none"
         id="path474" /><path
         d="M 0,0 H 468 V 288 H 0 Z"
         style="fill:#ffffff;fill-opacity:1;fill-rule:nonzero;stroke:none"
         id="path476" /><path
         d="M 0,288 H 468 V 0 H 0 Z"
         style="fill:none;stroke:#ffffff;stroke-width:1.06698;stroke-linecap:round;stroke-linejoin:round;stroke-miterlimit:10;stroke-dasharray:none;stroke-opacity:1"
         id="path478" /></g><g
       id="g480"><g
         id="g482"
         clip-path="url(#clipPath486)"><path
           d="m 33.836,282.523 h 298.59 V 159.953 H 33.836 Z"
           style="fill:#ffffff;fill-opacity:1;fill-rule:nonzero;stroke:none"
           id="path488" /></g></g><g
       id="g490"><g
         id="g492"
         clip-path="url(#clipPath496)"><path
           d="M 107.727,159.953 V 282.52"
           style="fill:none;stroke:#bebebe;stroke-width:1.06698;stroke-linecap:butt;stroke-linejoin:round;stroke-miterlimit:10;stroke-dasharray:none;stroke-opacity:1"
           id="path498" /></g></g><g
       id="g500"><path
         d="m 47.406,165.523 10.106,3.227 15.078,6.086 15.082,8.762 17.492,2.5 46.484,3.964 38.09,-7.476 18.633,-0.32 46.391,-6.137 v -1.82 l -46.391,4.32 -18.633,0.383 -38.09,5.347 -46.484,-6.16 -17.492,-4.461 -15.082,-3.566 -15.078,-2.254 z"
         style="fill:#a35513;fill-opacity:0.2;fill-rule:nonzero;stroke:none"
         id="path502" /><path
         d="m 47.406,165.523 57.41,8.856 14.715,1.152 29.567,-3.828 60.058,-1.344 107.676,-1.328 v -1.504 l -107.676,1.094 -60.058,1.856 -29.567,3.597 -14.715,-1.886 z"
         style="fill:#a35513;fill-opacity:0.4;fill-rule:nonzero;stroke:none"
         id="path504" /><path
         d="m 47.406,165.523 10.106,111.426 15.078,-17.929 15.082,-19.293 17.492,-15.403 46.398,-28.304 34.407,-5.864 22.297,-1.574 v -2.039 l -22.297,0.629 -34.407,5.316 -46.398,27.762 -17.492,13.621 -15.082,17.262 -15.078,12.777 z"
         style="fill:#1361a3;fill-opacity:0.2;fill-rule:nonzero;stroke:none"
         id="path506" /><path
         d="m 47.406,165.523 58.367,24.899 15.516,6.523 28.816,-15.867 59.157,-0.941 105.414,-4.168 v -1.211 l -105.414,2.918 -59.157,2.316 -28.816,10.09 -15.516,-2.914 z"
         style="fill:#1361a3;fill-opacity:0.4;fill-rule:nonzero;stroke:none"
         id="path508" /><path
         d="m 44.918,168.012 h 4.977 v -4.977 h -4.977 z"
         style="fill:none;stroke:#a35513;stroke-width:0.708661;stroke-linecap:round;stroke-linejoin:round;stroke-miterlimit:10;stroke-dasharray:none;stroke-opacity:1"
         id="path510" /><path
         d="M 55.023,170.82 H 60 v -4.977 h -4.977 z"
         style="fill:none;stroke:#a35513;stroke-width:0.708661;stroke-linecap:round;stroke-linejoin:round;stroke-miterlimit:10;stroke-dasharray:none;stroke-opacity:1"
         id="path512" /><path
         d="m 70.102,174.992 h 4.977 v -4.977 h -4.977 z"
         style="fill:none;stroke:#a35513;stroke-width:0.708661;stroke-linecap:round;stroke-linejoin:round;stroke-miterlimit:10;stroke-dasharray:none;stroke-opacity:1"
         id="path514" /><path
         d="m 85.184,181.156 h 4.977 v -4.977 h -4.977 z"
         style="fill:none;stroke:#a35513;stroke-width:0.708661;stroke-linecap:round;stroke-linejoin:round;stroke-miterlimit:10;stroke-dasharray:none;stroke-opacity:1"
         id="path516" /><path
         d="m 102.676,184.637 h 4.977 v -4.977 h -4.977 z"
         style="fill:none;stroke:#a35513;stroke-width:0.708661;stroke-linecap:round;stroke-linejoin:round;stroke-miterlimit:10;stroke-dasharray:none;stroke-opacity:1"
         id="path518" /><path
         d="m 149.16,189.699 h 4.977 v -4.977 h -4.977 z"
         style="fill:none;stroke:#a35513;stroke-width:0.708661;stroke-linecap:round;stroke-linejoin:round;stroke-miterlimit:10;stroke-dasharray:none;stroke-opacity:1"
         id="path520" /><path
         d="m 187.25,183.289 h 4.977 v -4.977 h -4.977 z"
         style="fill:none;stroke:#a35513;stroke-width:0.708661;stroke-linecap:round;stroke-linejoin:round;stroke-miterlimit:10;stroke-dasharray:none;stroke-opacity:1"
         id="path522" /><path
         d="m 205.883,182.934 h 4.977 v -4.977 h -4.977 z"
         style="fill:none;stroke:#a35513;stroke-width:0.708661;stroke-linecap:round;stroke-linejoin:round;stroke-miterlimit:10;stroke-dasharray:none;stroke-opacity:1"
         id="path524" /><path
         d="m 252.273,177.707 h 4.977 v -4.977 h -4.977 z"
         style="fill:none;stroke:#a35513;stroke-width:0.708661;stroke-linecap:round;stroke-linejoin:round;stroke-miterlimit:10;stroke-dasharray:none;stroke-opacity:1"
         id="path526" /><path
         d="m 44.918,168.012 h 4.977 v -4.977 h -4.977 z"
         style="fill:none;stroke:#1361a3;stroke-width:0.708661;stroke-linecap:round;stroke-linejoin:round;stroke-miterlimit:10;stroke-dasharray:none;stroke-opacity:1"
         id="path528" /><path
         d="M 55.023,272.918 H 60 v -4.977 h -4.977 z"
         style="fill:none;stroke:#1361a3;stroke-width:0.708661;stroke-linecap:round;stroke-linejoin:round;stroke-miterlimit:10;stroke-dasharray:none;stroke-opacity:1"
         id="path530" /><path
         d="m 70.102,257.562 h 4.977 v -4.977 h -4.977 z"
         style="fill:none;stroke:#1361a3;stroke-width:0.708661;stroke-linecap:round;stroke-linejoin:round;stroke-miterlimit:10;stroke-dasharray:none;stroke-opacity:1"
         id="path532" /><path
         d="m 85.184,239.289 h 4.977 v -4.977 h -4.977 z"
         style="fill:none;stroke:#1361a3;stroke-width:0.708661;stroke-linecap:round;stroke-linejoin:round;stroke-miterlimit:10;stroke-dasharray:none;stroke-opacity:1"
         id="path534" /><path
         d="m 102.676,224.777 h 4.977 V 219.8 h -4.977 z"
         style="fill:none;stroke:#1361a3;stroke-width:0.708661;stroke-linecap:round;stroke-linejoin:round;stroke-miterlimit:10;stroke-dasharray:none;stroke-opacity:1"
         id="path536" /><path
         d="m 149.074,196.742 h 4.977 v -4.977 h -4.977 z"
         style="fill:none;stroke:#1361a3;stroke-width:0.708661;stroke-linecap:round;stroke-linejoin:round;stroke-miterlimit:10;stroke-dasharray:none;stroke-opacity:1"
         id="path538" /><path
         d="m 183.48,191.152 h 4.977 v -4.977 h -4.977 z"
         style="fill:none;stroke:#1361a3;stroke-width:0.708661;stroke-linecap:round;stroke-linejoin:round;stroke-miterlimit:10;stroke-dasharray:none;stroke-opacity:1"
         id="path540" /><path
         d="m 205.777,190.051 h 4.977 v -4.977 h -4.977 z"
         style="fill:none;stroke:#1361a3;stroke-width:0.708661;stroke-linecap:round;stroke-linejoin:round;stroke-miterlimit:10;stroke-dasharray:none;stroke-opacity:1"
         id="path542" /><path
         d="m 49.895,165.523 c 0,-3.316 -4.977,-3.316 -4.977,0 0,3.317 4.977,3.317 4.977,0"
         style="fill:#a35513;fill-opacity:1;fill-rule:nonzero;stroke:none"
         id="path544" /><path
         d="m 107.305,173.281 c 0,-3.316 -4.977,-3.316 -4.977,0 0,3.321 4.977,3.321 4.977,0"
         style="fill:#a35513;fill-opacity:1;fill-rule:nonzero;stroke:none"
         id="path546" /><path
         d="m 122.02,174.805 c 0,-3.321 -4.977,-3.321 -4.977,0 0,3.316 4.977,3.316 4.977,0"
         style="fill:#a35513;fill-opacity:1;fill-rule:nonzero;stroke:none"
         id="path548" /><path
         d="m 151.586,171.09 c 0,-3.317 -4.977,-3.317 -4.977,0 0,3.316 4.977,3.316 4.977,0"
         style="fill:#a35513;fill-opacity:1;fill-rule:nonzero;stroke:none"
         id="path550" /><path
         d="m 211.645,169.488 c 0,-3.316 -4.977,-3.316 -4.977,0 0,3.321 4.977,3.321 4.977,0"
         style="fill:#a35513;fill-opacity:1;fill-rule:nonzero;stroke:none"
         id="path552" /><path
         d="m 319.32,168.277 c 0,-3.316 -4.976,-3.316 -4.976,0 0,3.317 4.976,3.317 4.976,0"
         style="fill:#a35513;fill-opacity:1;fill-rule:nonzero;stroke:none"
         id="path554" /><path
         d="m 49.895,165.523 c 0,-3.316 -4.977,-3.316 -4.977,0 0,3.317 4.977,3.317 4.977,0"
         style="fill:#1361a3;fill-opacity:1;fill-rule:nonzero;stroke:none"
         id="path556" /><path
         d="m 108.262,188.797 c 0,-3.32 -4.977,-3.32 -4.977,0 0,3.316 4.977,3.316 4.977,0"
         style="fill:#1361a3;fill-opacity:1;fill-rule:nonzero;stroke:none"
         id="path558" /><path
         d="m 123.777,193.512 c 0,-3.317 -4.976,-3.317 -4.976,0 0,3.32 4.976,3.32 4.976,0"
         style="fill:#1361a3;fill-opacity:1;fill-rule:nonzero;stroke:none"
         id="path560" /><path
         d="m 152.594,180.535 c 0,-3.316 -4.977,-3.316 -4.977,0 0,3.317 4.977,3.317 4.977,0"
         style="fill:#1361a3;fill-opacity:1;fill-rule:nonzero;stroke:none"
         id="path562" /><path
         d="m 211.75,178.906 c 0,-3.316 -4.977,-3.316 -4.977,0 0,3.321 4.977,3.321 4.977,0"
         style="fill:#1361a3;fill-opacity:1;fill-rule:nonzero;stroke:none"
         id="path564" /><path
         d="m 317.164,175.363 c 0,-3.316 -4.976,-3.316 -4.976,0 0,3.317 4.976,3.317 4.976,0"
         style="fill:#1361a3;fill-opacity:1;fill-rule:nonzero;stroke:none"
         id="path566" /><path
         d="m 47.406,165.523 10.106,2.809 15.078,4.172 15.082,6.164 17.492,3.48 46.484,5.063 38.09,-6.41 18.633,-0.356 46.391,-5.226"
         style="fill:none;stroke:#a35513;stroke-width:1.06698;stroke-linecap:butt;stroke-linejoin:round;stroke-miterlimit:10;stroke-dasharray:4.26791, 4.26791;stroke-dashoffset:0;stroke-opacity:1"
         id="path568" /><path
         d="m 47.406,165.523 57.41,7.758 14.715,1.524 29.567,-3.715 60.058,-1.602 107.676,-1.211"
         style="fill:none;stroke:#a35513;stroke-width:1.06698;stroke-linecap:butt;stroke-linejoin:round;stroke-miterlimit:10;stroke-dasharray:none;stroke-opacity:1"
         id="path570" /><path
         d="m 47.406,165.523 10.106,104.907 15.078,-15.356 15.082,-18.273 17.492,-14.512 46.398,-28.035 34.407,-5.59 22.297,-1.102"
         style="fill:none;stroke:#1361a3;stroke-width:1.06698;stroke-linecap:butt;stroke-linejoin:round;stroke-miterlimit:10;stroke-dasharray:4.26791, 4.26791;stroke-dashoffset:0;stroke-opacity:1"
         id="path572" /><path
         d="m 47.406,165.523 58.367,23.274 15.516,4.715 28.816,-12.977 59.157,-1.629 105.414,-3.543"
         style="fill:none;stroke:#1361a3;stroke-width:1.06698;stroke-linecap:butt;stroke-linejoin:round;stroke-miterlimit:10;stroke-dasharray:none;stroke-opacity:1"
         id="path574" /></g><g
       id="g576"><g
         id="g578"
         clip-path="url(#clipPath582)"><path
           d="m 33.836,282.523 h 298.59 V 159.953 H 33.836 Z"
           style="fill:none;stroke:#333333;stroke-width:1.06698;stroke-linecap:round;stroke-linejoin:round;stroke-miterlimit:10;stroke-dasharray:none;stroke-opacity:1"
           id="path584" /></g></g><g
       id="g586"><g
         id="g588"
         clip-path="url(#clipPath592)"><path
           d="m 33.836,154.473 h 298.59 V 31.903 H 33.836 Z"
           style="fill:#ffffff;fill-opacity:1;fill-rule:nonzero;stroke:none"
           id="path594" /></g></g><g
       id="g596"><g
         id="g598"
         clip-path="url(#clipPath602)"><path
           d="M 107.727,31.902 V 154.473"
           style="fill:none;stroke:#bebebe;stroke-width:1.06698;stroke-linecap:butt;stroke-linejoin:round;stroke-miterlimit:10;stroke-dasharray:none;stroke-opacity:1"
           id="path604" /></g></g><g
       id="g606"><path
         d="m 47.406,37.477 14.477,37.144 14.777,20.203 14.629,1.66 15.836,-6.07 42.074,-21.293 49.313,-11.641 15.078,1.684 V 56.496 L 198.512,55.332 149.199,64.617 107.125,81.883 91.289,84.125 76.66,82.57 61.883,65.027 Z"
         style="fill:#a35513;fill-opacity:0.2;fill-rule:nonzero;stroke:none"
         id="path608" /><path
         d="m 47.406,37.477 16.285,26.171 14.93,-3.816 14.027,0.297 14.477,-1.559 45.844,-5.687 30.461,-0.789 30.16,-0.145 45.242,-0.867 34.082,-4.113 v -2.805 l -34.082,3.137 -45.242,0.433 -30.16,0.254 -30.461,0.606 -45.844,3.047 -14.477,0.886 -14.027,0.235 -14.93,2.508 z"
         style="fill:#a35513;fill-opacity:0.4;fill-rule:nonzero;stroke:none"
         id="path610" /><path
         d="m 47.406,37.477 14.477,70.519 14.777,-4.664 14.629,-11.434 15.836,-7.804 42.074,-20.989 49.313,-7.843 15.078,1.047 v -2.274 l -15.078,-1.023 -49.313,7.316 -42.074,18.988 -15.836,7.996 -14.629,10.84 -14.777,2.067 z"
         style="fill:#1361a3;fill-opacity:0.2;fill-rule:nonzero;stroke:none"
         id="path612" /><path
         d="m 47.406,37.477 16.285,23.289 14.93,-1.723 14.027,-0.215 14.477,-1.418 45.844,-5.496 30.461,0.41 30.16,-0.883 45.242,-10.265 v -0.153 l -45.242,10.004 -30.16,0.739 -30.461,0.023 -45.844,5.09 -14.477,1.277 -14.027,0.223 -14.93,1.637 z"
         style="fill:#1361a3;fill-opacity:0.4;fill-rule:nonzero;stroke:none"
         id="path614" /><path
         d="m 49.895,37.477 c 0,-3.321 -4.977,-3.321 -4.977,0 0,3.316 4.977,3.316 4.977,0"
         style="fill:none;stroke:#a35513;stroke-width:0.708661;stroke-linecap:round;stroke-linejoin:round;stroke-miterlimit:10;stroke-dasharray:none;stroke-opacity:1"
         id="path616" /><path
         d="m 64.371,69.824 c 0,-3.316 -4.976,-3.316 -4.976,0 0,3.321 4.976,3.321 4.976,0"
         style="fill:none;stroke:#a35513;stroke-width:0.708661;stroke-linecap:round;stroke-linejoin:round;stroke-miterlimit:10;stroke-dasharray:none;stroke-opacity:1"
         id="path618" /><path
         d="m 79.148,88.695 c 0,-3.316 -4.976,-3.316 -4.976,0 0,3.321 4.976,3.321 4.976,0"
         style="fill:none;stroke:#a35513;stroke-width:0.708661;stroke-linecap:round;stroke-linejoin:round;stroke-miterlimit:10;stroke-dasharray:none;stroke-opacity:1"
         id="path620" /><path
         d="m 93.777,90.305 c 0,-3.317 -4.976,-3.317 -4.976,0 0,3.316 4.976,3.316 4.976,0"
         style="fill:none;stroke:#a35513;stroke-width:0.708661;stroke-linecap:round;stroke-linejoin:round;stroke-miterlimit:10;stroke-dasharray:none;stroke-opacity:1"
         id="path622" /><path
         d="m 109.613,86.148 c 0,-3.32 -4.976,-3.32 -4.976,0 0,3.317 4.976,3.317 4.976,0"
         style="fill:none;stroke:#a35513;stroke-width:0.708661;stroke-linecap:round;stroke-linejoin:round;stroke-miterlimit:10;stroke-dasharray:none;stroke-opacity:1"
         id="path624" /><path
         d="m 151.688,66.871 c 0,-3.32 -4.977,-3.32 -4.977,0 0,3.317 4.977,3.317 4.977,0"
         style="fill:none;stroke:#a35513;stroke-width:0.708661;stroke-linecap:round;stroke-linejoin:round;stroke-miterlimit:10;stroke-dasharray:none;stroke-opacity:1"
         id="path626" /><path
         d="m 201,56.406 c 0,-3.316 -4.977,-3.316 -4.977,0 0,3.317 4.977,3.317 4.977,0"
         style="fill:none;stroke:#a35513;stroke-width:0.708661;stroke-linecap:round;stroke-linejoin:round;stroke-miterlimit:10;stroke-dasharray:none;stroke-opacity:1"
         id="path628" /><path
         d="m 216.078,57.832 c 0,-3.32 -4.976,-3.32 -4.976,0 0,3.316 4.976,3.316 4.976,0"
         style="fill:none;stroke:#a35513;stroke-width:0.708661;stroke-linecap:round;stroke-linejoin:round;stroke-miterlimit:10;stroke-dasharray:none;stroke-opacity:1"
         id="path630" /><path
         d="m 49.895,37.477 c 0,-3.321 -4.977,-3.321 -4.977,0 0,3.316 4.977,3.316 4.977,0"
         style="fill:none;stroke:#1361a3;stroke-width:0.708661;stroke-linecap:round;stroke-linejoin:round;stroke-miterlimit:10;stroke-dasharray:none;stroke-opacity:1"
         id="path632" /><path
         d="m 64.371,104.109 c 0,-3.32 -4.976,-3.32 -4.976,0 0,3.317 4.976,3.317 4.976,0"
         style="fill:none;stroke:#1361a3;stroke-width:0.708661;stroke-linecap:round;stroke-linejoin:round;stroke-miterlimit:10;stroke-dasharray:none;stroke-opacity:1"
         id="path634" /><path
         d="m 79.148,100.742 c 0,-3.316 -4.976,-3.316 -4.976,0 0,3.317 4.976,3.317 4.976,0"
         style="fill:none;stroke:#1361a3;stroke-width:0.708661;stroke-linecap:round;stroke-linejoin:round;stroke-miterlimit:10;stroke-dasharray:none;stroke-opacity:1"
         id="path636" /><path
         d="m 93.777,89.605 c 0,-3.32 -4.976,-3.32 -4.976,0 0,3.317 4.976,3.317 4.976,0"
         style="fill:none;stroke:#1361a3;stroke-width:0.708661;stroke-linecap:round;stroke-linejoin:round;stroke-miterlimit:10;stroke-dasharray:none;stroke-opacity:1"
         id="path638" /><path
         d="m 109.613,81.703 c 0,-3.316 -4.976,-3.316 -4.976,0 0,3.32 4.976,3.32 4.976,0"
         style="fill:none;stroke:#1361a3;stroke-width:0.708661;stroke-linecap:round;stroke-linejoin:round;stroke-miterlimit:10;stroke-dasharray:none;stroke-opacity:1"
         id="path640" /><path
         d="m 151.688,61.719 c 0,-3.321 -4.977,-3.321 -4.977,0 0,3.316 4.977,3.316 4.977,0"
         style="fill:none;stroke:#1361a3;stroke-width:0.708661;stroke-linecap:round;stroke-linejoin:round;stroke-miterlimit:10;stroke-dasharray:none;stroke-opacity:1"
         id="path642" /><path
         d="m 201,54.137 c 0,-3.317 -4.977,-3.317 -4.977,0 0,3.32 4.977,3.32 4.977,0"
         style="fill:none;stroke:#1361a3;stroke-width:0.708661;stroke-linecap:round;stroke-linejoin:round;stroke-miterlimit:10;stroke-dasharray:none;stroke-opacity:1"
         id="path644" /><path
         d="m 216.078,55.172 c 0,-3.317 -4.976,-3.317 -4.976,0 0,3.316 4.976,3.316 4.976,0"
         style="fill:none;stroke:#1361a3;stroke-width:0.708661;stroke-linecap:round;stroke-linejoin:round;stroke-miterlimit:10;stroke-dasharray:none;stroke-opacity:1"
         id="path646" /><path
         d="m 49.895,37.477 c 0,-3.321 -4.977,-3.321 -4.977,0 0,3.316 4.977,3.316 4.977,0"
         style="fill:#a35513;fill-opacity:1;fill-rule:nonzero;stroke:none"
         id="path648" /><path
         d="m 66.18,59.457 c 0,-3.316 -4.977,-3.316 -4.977,0 0,3.32 4.977,3.32 4.977,0"
         style="fill:#a35513;fill-opacity:1;fill-rule:nonzero;stroke:none"
         id="path650" /><path
         d="m 81.109,56.297 c 0,-3.317 -4.976,-3.317 -4.976,0 0,3.316 4.976,3.316 4.976,0"
         style="fill:#a35513;fill-opacity:1;fill-rule:nonzero;stroke:none"
         id="path652" /><path
         d="m 95.137,56.328 c 0,-3.32 -4.977,-3.32 -4.977,0 0,3.317 4.977,3.317 4.977,0"
         style="fill:#a35513;fill-opacity:1;fill-rule:nonzero;stroke:none"
         id="path654" /><path
         d="m 109.613,55.105 c 0,-3.316 -4.976,-3.316 -4.976,0 0,3.317 4.976,3.317 4.976,0"
         style="fill:#a35513;fill-opacity:1;fill-rule:nonzero;stroke:none"
         id="path656" /><path
         d="m 155.457,50.738 c 0,-3.316 -4.977,-3.316 -4.977,0 0,3.317 4.977,3.317 4.977,0"
         style="fill:#a35513;fill-opacity:1;fill-rule:nonzero;stroke:none"
         id="path658" /><path
         d="m 185.918,50.039 c 0,-3.316 -4.977,-3.316 -4.977,0 0,3.316 4.977,3.316 4.977,0"
         style="fill:#a35513;fill-opacity:1;fill-rule:nonzero;stroke:none"
         id="path660" /><path
         d="m 216.078,49.84 c 0,-3.317 -4.976,-3.317 -4.976,0 0,3.32 4.976,3.32 4.976,0"
         style="fill:#a35513;fill-opacity:1;fill-rule:nonzero;stroke:none"
         id="path662" /><path
         d="m 261.32,49.191 c 0,-3.316 -4.976,-3.316 -4.976,0 0,3.317 4.976,3.317 4.976,0"
         style="fill:#a35513;fill-opacity:1;fill-rule:nonzero;stroke:none"
         id="path664" /><path
         d="m 295.402,45.566 c 0,-3.32 -4.976,-3.32 -4.976,0 0,3.317 4.976,3.317 4.976,0"
         style="fill:#a35513;fill-opacity:1;fill-rule:nonzero;stroke:none"
         id="path666" /><path
         d="m 49.895,37.477 c 0,-3.321 -4.977,-3.321 -4.977,0 0,3.316 4.977,3.316 4.977,0"
         style="fill:#1361a3;fill-opacity:1;fill-rule:nonzero;stroke:none"
         id="path668" /><path
         d="m 66.18,60.391 c 0,-3.317 -4.977,-3.317 -4.977,0 0,3.316 4.977,3.316 4.977,0"
         style="fill:#1361a3;fill-opacity:1;fill-rule:nonzero;stroke:none"
         id="path670" /><path
         d="m 81.109,58.711 c 0,-3.32 -4.976,-3.32 -4.976,0 0,3.316 4.976,3.316 4.976,0"
         style="fill:#1361a3;fill-opacity:1;fill-rule:nonzero;stroke:none"
         id="path672" /><path
         d="m 95.137,58.492 c 0,-3.316 -4.977,-3.316 -4.977,0 0,3.32 4.977,3.32 4.977,0"
         style="fill:#1361a3;fill-opacity:1;fill-rule:nonzero;stroke:none"
         id="path674" /><path
         d="m 109.613,57.145 c 0,-3.317 -4.976,-3.317 -4.976,0 0,3.316 4.976,3.316 4.976,0"
         style="fill:#1361a3;fill-opacity:1;fill-rule:nonzero;stroke:none"
         id="path676" /><path
         d="m 155.457,51.852 c 0,-3.317 -4.977,-3.317 -4.977,0 0,3.316 4.977,3.316 4.977,0"
         style="fill:#1361a3;fill-opacity:1;fill-rule:nonzero;stroke:none"
         id="path678" /><path
         d="m 185.918,52.043 c 0,-3.316 -4.977,-3.316 -4.977,0 0,3.32 4.977,3.32 4.977,0"
         style="fill:#1361a3;fill-opacity:1;fill-rule:nonzero;stroke:none"
         id="path680" /><path
         d="m 216.078,51.234 c 0,-3.32 -4.976,-3.32 -4.976,0 0,3.317 4.976,3.317 4.976,0"
         style="fill:#1361a3;fill-opacity:1;fill-rule:nonzero;stroke:none"
         id="path682" /><path
         d="m 261.32,41.102 c 0,-3.321 -4.976,-3.321 -4.976,0 0,3.316 4.976,3.316 4.976,0"
         style="fill:#1361a3;fill-opacity:1;fill-rule:nonzero;stroke:none"
         id="path684" /><path
         d="m 47.406,37.477 14.477,32.347 14.777,18.871 14.629,1.61 15.836,-4.157 42.074,-19.277 49.313,-10.465 15.078,1.426"
         style="fill:none;stroke:#a35513;stroke-width:1.06698;stroke-linecap:butt;stroke-linejoin:round;stroke-miterlimit:10;stroke-dasharray:1.06698, 3.20093;stroke-dashoffset:0;stroke-opacity:1"
         id="path686" /><path
         d="m 47.406,37.477 16.285,21.98 14.93,-3.16 14.027,0.031 14.477,-1.223 45.844,-4.367 30.461,-0.699 30.16,-0.199 45.242,-0.649 34.082,-3.625"
         style="fill:none;stroke:#a35513;stroke-width:1.06698;stroke-linecap:butt;stroke-linejoin:round;stroke-miterlimit:10;stroke-dasharray:none;stroke-opacity:1"
         id="path688" /><path
         d="m 47.406,37.477 14.477,66.632 14.777,-3.367 14.629,-11.137 15.836,-7.902 42.074,-19.984 49.313,-7.582 15.078,1.035"
         style="fill:none;stroke:#1361a3;stroke-width:1.06698;stroke-linecap:butt;stroke-linejoin:round;stroke-miterlimit:10;stroke-dasharray:1.06698, 3.20093;stroke-dashoffset:0;stroke-opacity:1"
         id="path690" /><path
         d="m 47.406,37.477 16.285,22.914 14.93,-1.68 14.027,-0.219 14.477,-1.347 45.844,-5.293 30.461,0.191 30.16,-0.809 45.242,-10.132"
         style="fill:none;stroke:#1361a3;stroke-width:1.06698;stroke-linecap:butt;stroke-linejoin:round;stroke-miterlimit:10;stroke-dasharray:none;stroke-opacity:1"
         id="path692" /></g><g
       id="g694"><g
         id="g696"
         clip-path="url(#clipPath700)"><path
           d="m 33.836,154.473 h 298.59 V 31.903 H 33.836 Z"
           style="fill:none;stroke:#333333;stroke-width:1.06698;stroke-linecap:round;stroke-linejoin:round;stroke-miterlimit:10;stroke-dasharray:none;stroke-opacity:1"
           id="path702" /></g></g><g
       id="g704"><g
         id="g706"
         clip-path="url(#clipPath710)"><path
           d="m 332.422,282.523 h 17.211 v -122.57 h -17.211 z"
           style="fill:#d9d9d9;fill-opacity:1;fill-rule:nonzero;stroke:#333333;stroke-width:1.06698;stroke-linecap:round;stroke-linejoin:round;stroke-miterlimit:10;stroke-dasharray:none;stroke-opacity:1"
           id="path712" /><text
           transform="matrix(0,-1,-1,0,337.87109,231.01953)"
           style="font-variant:normal;font-weight:normal;font-size:8.8px;font-family:Helvetica;-inkscape-font-specification:Helvetica;writing-mode:lr-tb;fill:#1a1a1a;fill-opacity:1;fill-rule:nonzero;stroke:none"
           id="text716"><tspan
             x="0 4.8927999 9.7855997 14.6784"
             y="0"
             sodipodi:role="line"
             id="tspan714">2011</tspan></text></g></g><g
       id="g718"><g
         id="g720"
         clip-path="url(#clipPath724)"><path
           d="m 332.422,154.473 h 17.211 V 31.903 h -17.211 z"
           style="fill:#d9d9d9;fill-opacity:1;fill-rule:nonzero;stroke:#333333;stroke-width:1.06698;stroke-linecap:round;stroke-linejoin:round;stroke-miterlimit:10;stroke-dasharray:none;stroke-opacity:1"
           id="path726" /><text
           transform="matrix(0,-1,-1,0,337.87109,102.97266)"
           style="font-variant:normal;font-weight:normal;font-size:8.8px;font-family:Helvetica;-inkscape-font-specification:Helvetica;writing-mode:lr-tb;fill:#1a1a1a;fill-opacity:1;fill-rule:nonzero;stroke:none"
           id="text730"><tspan
             x="0 4.8927999 9.7855997 14.6784"
             y="0"
             sodipodi:role="line"
             id="tspan728">2019</tspan></text></g></g><path
       d="m 47.406,29.164 v 2.738"
       style="fill:none;stroke:#333333;stroke-width:1.06698;stroke-linecap:butt;stroke-linejoin:round;stroke-miterlimit:10;stroke-dasharray:none;stroke-opacity:1"
       id="path734" /><path
       d="m 122.809,29.164 v 2.738"
       style="fill:none;stroke:#333333;stroke-width:1.06698;stroke-linecap:butt;stroke-linejoin:round;stroke-miterlimit:10;stroke-dasharray:none;stroke-opacity:1"
       id="path736" /><path
       d="m 198.207,29.164 v 2.738"
       style="fill:none;stroke:#333333;stroke-width:1.06698;stroke-linecap:butt;stroke-linejoin:round;stroke-miterlimit:10;stroke-dasharray:none;stroke-opacity:1"
       id="path738" /><path
       d="m 273.609,29.164 v 2.738"
       style="fill:none;stroke:#333333;stroke-width:1.06698;stroke-linecap:butt;stroke-linejoin:round;stroke-miterlimit:10;stroke-dasharray:none;stroke-opacity:1"
       id="path740" /><text
       transform="scale(1,-1)"
       style="font-variant:normal;font-weight:normal;font-size:8.8px;font-family:Helvetica;-inkscape-font-specification:Helvetica;writing-mode:lr-tb;fill:#4d4d4d;fill-opacity:1;fill-rule:nonzero;stroke:none"
       id="text752"
       x="44.960938"
       y="-20.660156"><tspan
         x="44.960938 120.35934 193.31641 198.20921 268.71481 273.6076"
         y="-20.660156"
         sodipodi:role="line"
         id="tspan742">051015</tspan><tspan
         x="24.011719"
         y="-162.36719"
         id="tspan744">0</tspan><tspan
         x="24.011719"
         y="-191.97266"
         id="tspan746">2</tspan><tspan
         x="24.011719"
         y="-221.58203"
         id="tspan748">4</tspan><tspan
         x="24.011719"
         y="-251.1875"
         id="tspan750">6</tspan></text><path
       d="m 31.094,165.523 h 2.742"
       style="fill:none;stroke:#333333;stroke-width:1.06698;stroke-linecap:butt;stroke-linejoin:round;stroke-miterlimit:10;stroke-dasharray:none;stroke-opacity:1"
       id="path754" /><path
       d="m 31.094,195.129 h 2.742"
       style="fill:none;stroke:#333333;stroke-width:1.06698;stroke-linecap:butt;stroke-linejoin:round;stroke-miterlimit:10;stroke-dasharray:none;stroke-opacity:1"
       id="path756" /><path
       d="m 31.094,224.738 h 2.742"
       style="fill:none;stroke:#333333;stroke-width:1.06698;stroke-linecap:butt;stroke-linejoin:round;stroke-miterlimit:10;stroke-dasharray:none;stroke-opacity:1"
       id="path758" /><path
       d="m 31.094,254.344 h 2.742"
       style="fill:none;stroke:#333333;stroke-width:1.06698;stroke-linecap:butt;stroke-linejoin:round;stroke-miterlimit:10;stroke-dasharray:none;stroke-opacity:1"
       id="path760" /><text
       transform="scale(1,-1)"
       style="font-variant:normal;font-weight:normal;font-size:8.8px;font-family:Helvetica;-inkscape-font-specification:Helvetica;writing-mode:lr-tb;fill:#4d4d4d;fill-opacity:1;fill-rule:nonzero;stroke:none"
       id="text770"
       x="24.011719"
       y="-34.320312"><tspan
         x="24.011719"
         y="-34.320312"
         id="tspan762">0</tspan><tspan
         x="24.011719"
         y="-63.925781"
         id="tspan764">2</tspan><tspan
         x="24.011719"
         y="-93.53125"
         id="tspan766">4</tspan><tspan
         x="24.011719"
         y="-123.14063"
         id="tspan768">6</tspan></text><path
       d="m 31.094,37.477 h 2.742"
       style="fill:none;stroke:#333333;stroke-width:1.06698;stroke-linecap:butt;stroke-linejoin:round;stroke-miterlimit:10;stroke-dasharray:none;stroke-opacity:1"
       id="path772" /><path
       d="m 31.094,67.082 h 2.742"
       style="fill:none;stroke:#333333;stroke-width:1.06698;stroke-linecap:butt;stroke-linejoin:round;stroke-miterlimit:10;stroke-dasharray:none;stroke-opacity:1"
       id="path774" /><path
       d="m 31.094,96.688 h 2.742"
       style="fill:none;stroke:#333333;stroke-width:1.06698;stroke-linecap:butt;stroke-linejoin:round;stroke-miterlimit:10;stroke-dasharray:none;stroke-opacity:1"
       id="path776" /><path
       d="m 31.094,126.297 h 2.742"
       style="fill:none;stroke:#333333;stroke-width:1.06698;stroke-linecap:butt;stroke-linejoin:round;stroke-miterlimit:10;stroke-dasharray:none;stroke-opacity:1"
       id="path778" /><text
       transform="scale(1,-1)"
       style="font-variant:normal;font-weight:normal;font-size:11px;font-family:Helvetica;-inkscape-font-specification:Helvetica;writing-mode:lr-tb;fill:#000000;fill-opacity:1;fill-rule:nonzero;stroke:none"
       id="text782"
       x="154.09766"
       y="-7.898438"><tspan
         x="154.09766 160.80766 163.24966 172.41266 178.52866 181.57565 185.23866 191.35466 197.47066 202.97066 208.47066"
         y="-7.898438"
         sodipodi:role="line"
         id="tspan780">Time (days)</tspan></text><text
       transform="matrix(0,1,1,0,0,0)"
       style="font-variant:normal;font-weight:normal;font-size:11px;font-family:Helvetica;-inkscape-font-specification:Helvetica;writing-mode:lr-tb;fill:#000000;fill-opacity:1;fill-rule:nonzero;stroke:none"
       id="text786"
       x="67.089844"
       y="16.300781"><tspan
         x="67.089844 75.031845 81.147842 86.647842 92.763847 95.205841 98.868843 104.98485 108.03185 110.47385 116.58984 122.70585 125.75285 133.69485 139.81085 142.85785 148.97385 152.02084 155.68385 164.84685 170.96284 178.90485"
         y="16.300781"
         sodipodi:role="line"
         id="tspan784">Respiration Rate (mgCO</tspan></text><text
       transform="matrix(0,1,1,0,0,0)"
       style="font-variant:normal;font-weight:normal;font-size:7.7px;font-family:Helvetica;-inkscape-font-specification:Helvetica;writing-mode:lr-tb;fill:#000000;fill-opacity:1;fill-rule:nonzero;stroke:none"
       id="text790"
       x="187.51953"
       y="18.3125"><tspan
         x="187.51953"
         y="18.3125"
         id="tspan788">2</tspan></text><text
       transform="matrix(0,1,1,0,0,0)"
       style="font-variant:normal;font-weight:normal;font-size:11px;font-family:Helvetica;-inkscape-font-specification:Helvetica;writing-mode:lr-tb;fill:#000000;fill-opacity:1;fill-rule:nonzero;stroke:none"
       id="text794"
       x="191.80469"
       y="16.300781"><tspan
         x="191.80469 195.4677 203.40968 206.4567 212.57269"
         y="16.300781"
         sodipodi:role="line"
         id="tspan792">-C gC</tspan></text><text
       transform="matrix(0,1,1,0,0,0)"
       style="font-variant:normal;font-weight:normal;font-size:7.7px;font-family:Symbol;-inkscape-font-specification:Symbol;writing-mode:lr-tb;fill:#000000;fill-opacity:1;fill-rule:nonzero;stroke:none"
       id="text798"
       x="220.53125"
       y="10.839844"><tspan
         x="220.53125"
         y="10.839844"
         id="tspan796">−</tspan></text><text
       transform="matrix(0,1,1,0,0,0)"
       style="font-variant:normal;font-weight:normal;font-size:7.7px;font-family:Helvetica;-inkscape-font-specification:Helvetica;writing-mode:lr-tb;fill:#000000;fill-opacity:1;fill-rule:nonzero;stroke:none"
       id="text802"
       x="224.75085"
       y="10.839844"><tspan
         x="224.75085"
         y="10.839844"
         id="tspan800">1</tspan></text><text
       transform="matrix(0,1,1,0,0,0)"
       style="font-variant:normal;font-weight:normal;font-size:11px;font-family:Helvetica;-inkscape-font-specification:Helvetica;writing-mode:lr-tb;fill:#000000;fill-opacity:1;fill-rule:nonzero;stroke:none"
       id="text806"
       x="229.04297"
       y="16.300781"><tspan
         x="229.04297"
         y="16.300781"
         id="tspan804">d</tspan></text><text
       transform="matrix(0,1,1,0,0,0)"
       style="font-variant:normal;font-weight:normal;font-size:7.7px;font-family:Symbol;-inkscape-font-specification:Symbol;writing-mode:lr-tb;fill:#000000;fill-opacity:1;fill-rule:nonzero;stroke:none"
       id="text810"
       x="235.16016"
       y="10.839844"><tspan
         x="235.16016"
         y="10.839844"
         id="tspan808">−</tspan></text><text
       transform="matrix(0,1,1,0,0,0)"
       style="font-variant:normal;font-weight:normal;font-size:7.7px;font-family:Helvetica;-inkscape-font-specification:Helvetica;writing-mode:lr-tb;fill:#000000;fill-opacity:1;fill-rule:nonzero;stroke:none"
       id="text814"
       x="239.37976"
       y="10.839844"><tspan
         x="239.37976"
         y="10.839844"
         id="tspan812">1</tspan></text><text
       transform="matrix(0,1,1,0,0,0)"
       style="font-variant:normal;font-weight:normal;font-size:11px;font-family:Helvetica;-inkscape-font-specification:Helvetica;writing-mode:lr-tb;fill:#000000;fill-opacity:1;fill-rule:nonzero;stroke:none"
       id="text818"
       x="243.67188"
       y="16.300781"><tspan
         x="243.67188"
         y="16.300781"
         id="tspan816">)</tspan></text><path
       d="m 609.93604,112.87069 h 90.86322 V -27.778651 h -90.86322 z"
       style="fill:#ffffff;fill-opacity:1;fill-rule:nonzero;stroke:none;stroke-width:1.67104"
       id="path820" /><path
       d="m 366.07,256.148 h 17.281 V 238.867 H 366.07 Z"
       style="fill:#ffffff;fill-opacity:1;fill-rule:nonzero;stroke:none"
       id="path826" /><path
       d="m 366.07,238.871 h 17.281 V 221.59 H 366.07 Z"
       style="fill:#ffffff;fill-opacity:1;fill-rule:nonzero;stroke:none"
       id="path832" /><path
       d="m 366.07,183.875 h 17.281 V 166.594 H 366.07 Z"
       style="fill:#ffffff;fill-opacity:1;fill-rule:nonzero;stroke:none"
       id="path850" /><path
       d="m 366.07,166.594 h 17.281 V 149.313 H 366.07 Z"
       style="fill:#ffffff;fill-opacity:1;fill-rule:nonzero;stroke:none"
       id="path854" /><path
       d="m 366.07,149.312 h 17.281 V 132.031 H 366.07 Z"
       style="fill:#ffffff;fill-opacity:1;fill-rule:nonzero;stroke:none"
       id="path858" /><path
       d="m 366.07,94.32 h 17.281 V 77.039 H 366.07 Z"
       style="fill:#ffffff;fill-opacity:1;fill-rule:nonzero;stroke:none"
       id="path876" /><path
       d="m 366.07,77.039 h 17.281 V 59.758 H 366.07 Z"
       style="fill:#ffffff;fill-opacity:1;fill-rule:nonzero;stroke:none"
       id="path880" /><path
       d="m 366.07,59.758 h 17.281 V 42.477 H 366.07 Z"
       style="fill:#ffffff;fill-opacity:1;fill-rule:nonzero;stroke:none"
       id="path884" /><text
       transform="scale(1,-1)"
       style="font-variant:normal;font-weight:normal;font-size:11px;font-family:Helvetica;-inkscape-font-specification:Helvetica;writing-mode:lr-tb;fill:#000000;fill-opacity:1;fill-rule:nonzero;stroke:none"
       id="text824"
       x="364.81323"
       y="-208.50006"><tspan
         x="364.81323 372.13922 377.63922 383.75522 389.25522 394.75522 400.25522 403.30222 409.41824"
         y="-208.50006"
         sodipodi:role="line"
         id="tspan822">Ecosystem</tspan></text><path
       d="m 375.94192,193.16822 c 0,-3.317 -4.976,-3.317 -4.976,0 0,3.32 4.976,3.32 4.976,0"
       style="fill:#a35513;fill-opacity:1;fill-rule:nonzero;stroke:#a35513;stroke-width:0.708661;stroke-linecap:round;stroke-linejoin:round;stroke-miterlimit:10;stroke-dasharray:none;stroke-opacity:1"
       id="path828" /><path
       d="m 366.53992,193.16822 h 13.824"
       style="fill:none;stroke:#a35513;stroke-width:1.06698;stroke-linecap:butt;stroke-linejoin:round;stroke-miterlimit:10;stroke-dasharray:none;stroke-opacity:1"
       id="path830" /><path
       d="m 375.94192,175.88722 c 0,-3.317 -4.976,-3.317 -4.976,0 0,3.32 4.976,3.32 4.976,0"
       style="fill:#1361a3;fill-opacity:1;fill-rule:nonzero;stroke:#1361a3;stroke-width:0.708661;stroke-linecap:round;stroke-linejoin:round;stroke-miterlimit:10;stroke-dasharray:none;stroke-opacity:1"
       id="path834" /><path
       d="m 366.53992,175.88722 h 13.824"
       style="fill:none;stroke:#1361a3;stroke-width:1.06698;stroke-linecap:butt;stroke-linejoin:round;stroke-miterlimit:10;stroke-dasharray:none;stroke-opacity:1"
       id="path836" /><text
       transform="scale(1,-1)"
       style="font-variant:normal;font-weight:normal;font-size:8.8px;font-family:Helvetica;-inkscape-font-specification:Helvetica;writing-mode:lr-tb;fill:#000000;fill-opacity:1;fill-rule:nonzero;stroke:none"
       id="text842"
       x="387.57495"
       y="-190.01178"><tspan
         x="387.57495 392.94296 397.83575 400.76614 405.65894 410.05896"
         y="-190.01178"
         sodipodi:role="line"
         id="tspan838">Forest</tspan><tspan
         x="387.57495 394.41254 397.34296 402.23575 406.63574 411.03574 412.98935 417.88214 422.77496"
         y="-172.73053"
         sodipodi:role="line"
         id="tspan840">Grassland</tspan></text><text
       transform="scale(1,-1)"
       style="font-variant:normal;font-weight:normal;font-size:11px;font-family:Helvetica;-inkscape-font-specification:Helvetica;writing-mode:lr-tb;fill:#000000;fill-opacity:1;fill-rule:nonzero;stroke:none"
       id="text848"
       x="364.81323"
       y="-136.22662"><tspan
         x="364.81323 371.52322 375.18622 381.30222 387.41824 390.46524 399.62823 405.74423 411.86023"
         y="-136.22662"
         sodipodi:role="line"
         id="tspan846">Treatment</tspan></text><path
       d="m 375.94192,120.89422 c 0,-3.32 -4.976,-3.32 -4.976,0 0,3.317 4.976,3.317 4.976,0"
       style="fill:none;stroke:#000000;stroke-width:0.708661;stroke-linecap:round;stroke-linejoin:round;stroke-miterlimit:10;stroke-dasharray:none;stroke-opacity:1"
       id="path852" /><path
       d="m 370.96592,106.10122 h 4.977 v -4.977 h -4.977 z"
       style="fill:none;stroke:#000000;stroke-width:0.708661;stroke-linecap:round;stroke-linejoin:round;stroke-miterlimit:10;stroke-dasharray:none;stroke-opacity:1"
       id="path856" /><path
       d="m 375.94192,86.33222 c 0,-3.317 -4.976,-3.317 -4.976,0 0,3.32 4.976,3.32 4.976,0"
       style="fill:#000000;fill-opacity:1;fill-rule:nonzero;stroke:none"
       id="path860" /><g
       aria-label="air-dry/rewet
air-dry  + storage
control"
       transform="scale(0.99730508,-1.0027022)"
       id="text868"
       style="font-variant:normal;font-weight:normal;font-size:8.82379px;font-family:Helvetica;-inkscape-font-specification:Helvetica;writing-mode:lr-tb;fill:#000000;fill-opacity:1;fill-rule:nonzero;stroke:none;stroke-width:1.0027"><path
         id="path2484"
         style="stroke-width:1.33693"
         d="m 536.69922,217.38477 v 3.11718 c -0.23299,-0.28801 -0.44167,-0.49027 -0.625,-0.60547 -0.31701,-0.19969 -0.7099,-0.29882 -1.17969,-0.29882 -0.84792,0 -1.5026,0.32973 -1.96094,0.99023 -0.45451,0.65667 -0.68164,1.4354 -0.68164,2.33399 0,0.96003 0.25161,1.72873 0.75196,2.30859 0.50035,0.57601 1.09171,0.86523 1.77539,0.86523 0.42395,0 0.80043,-0.0849 1.1289,-0.2539 0.32848,-0.16897 0.6129,-0.44405 0.85352,-0.82422 v 0.85937 h 0.92773 v -8.49218 z m -14.42969,0.0293 v 1.17578 h 1.04688 v -1.17578 z m 28.62891,0 -2.66992,8.46289 h 0.87109 l 2.66992,-8.46289 z m 27.00781,0.57032 v 1.72265 h -0.83008 v 0.8457 h 0.83008 v 4.08399 c 0,0.39554 0.0859,0.71914 0.25781,0.96875 0.17188,0.24576 0.49922,0.36914 0.98047,0.36914 0.14896,0 0.28607,-0.008 0.41211,-0.0234 0.12986,-0.0153 0.25465,-0.0396 0.37305,-0.0742 v -0.81836 c -0.0764,0.008 -0.14391,0.014 -0.20117,0.0176 h -0.16016 c -0.18714,0 -0.32212,-0.0222 -0.40234,-0.0644 -0.14514,-0.073 -0.2168,-0.2166 -0.2168,-0.43164 v -4.02735 h 0.98047 v -0.8457 h -0.98047 v -1.72265 z m -59.75391,1.57226 c -0.62257,0 -1.17092,0.14968 -1.64453,0.44922 -0.46983,0.29569 -0.71531,0.82364 -0.73437,1.58398 h 0.96289 c 0.0382,-0.31872 0.12005,-0.55746 0.24609,-0.71875 0.22536,-0.29185 0.60795,-0.4375 1.14649,-0.4375 0.46597,0 0.82205,0.0789 1.07031,0.24024 0.25208,0.15744 0.3789,0.41429 0.3789,0.76758 10e-6,0.1728 -0.0225,0.30431 -0.0684,0.39648 -0.0802,0.16894 -0.23976,0.27003 -0.47657,0.30078 l -1.64453,0.20703 c -0.57673,0.073 -1.04127,0.26715 -1.39648,0.58203 -0.35521,0.3149 -0.53321,0.75791 -0.53321,1.33008 0,0.52226 0.18005,0.95719 0.53907,1.30664 0.36285,0.34561 0.82738,0.51953 1.39648,0.51953 0.47361,0 0.90738,-0.10116 1.30078,-0.30468 0.39341,-0.20353 0.69618,-0.44422 0.90625,-0.72071 0.0344,0.24578 0.0937,0.43592 0.17774,0.57032 0.16041,0.25344 0.41823,0.38086 0.77343,0.38086 0.14513,0 0.25971,-0.006 0.34375,-0.0176 0.084,-0.0115 0.20482,-0.0418 0.36524,-0.0879 v -0.76563 c -0.0649,0.0111 -0.12633,0.0213 -0.1836,0.0293 -0.0573,0.004 -0.10846,0.006 -0.15429,0.006 -0.14133,0 -0.23347,-0.0324 -0.2793,-0.0977 -0.042,-0.0653 -0.0645,-0.15225 -0.0645,-0.25976 v -3.55469 c 0,-0.5837 -0.22304,-1.01258 -0.66992,-1.28906 -0.4507,-0.2765 -1.03594,-0.41602 -1.75782,-0.41602 z m 9.40235,0.0117 c -0.40868,0 -0.76884,0.14969 -1.08203,0.44922 -0.31318,0.29569 -0.50962,0.54849 -0.58985,0.75586 v -1.06641 h -0.98047 v 6.16992 h 1.03125 v -3.54883 c 0,-0.43777 0.13915,-0.82411 0.41797,-1.1582 0.27882,-0.33793 0.67783,-0.50586 1.19727,-0.50586 0.0611,0 0.11637,3.4e-4 0.16601,0.004 0.0535,0.004 0.1108,0.0119 0.17188,0.0234 v -1.09375 c -0.11077,-0.0118 -0.18854,-0.0199 -0.23438,-0.0234 -0.0458,-0.004 -0.0785,-0.006 -0.0976,-0.006 z m 14.33789,0 c -0.40868,0 -0.76884,0.14969 -1.08203,0.44922 -0.31317,0.29569 -0.50962,0.54849 -0.58985,0.75586 v -1.06641 h -0.98047 v 6.16992 h 1.03125 v -3.54883 c 0,-0.43777 0.13915,-0.82411 0.41797,-1.1582 0.27882,-0.33793 0.67782,-0.50586 1.19727,-0.50586 0.0611,0 0.11637,3.4e-4 0.16601,0.004 0.0535,0.004 0.1108,0.0119 0.17188,0.0234 v -1.09375 c -0.11077,-0.0118 -0.18854,-0.0199 -0.23438,-0.0234 -0.0458,-0.004 -0.0786,-0.006 -0.0977,-0.006 z m 13.0293,0 c -0.40869,0 -0.77079,0.14969 -1.08399,0.44922 -0.31317,0.29569 -0.50962,0.54849 -0.58984,0.75586 v -1.06641 h -0.98047 v 6.16992 h 1.03125 v -3.54883 c 0,-0.43777 0.1411,-0.82411 0.41992,-1.1582 0.27882,-0.33793 0.67782,-0.50586 1.19727,-0.50586 0.0611,0 0.11637,3.4e-4 0.16601,0.004 0.0535,0.004 0.1108,0.0119 0.17188,0.0234 v -1.09375 c -0.11077,-0.0118 -0.1905,-0.0199 -0.23633,-0.0234 -0.0458,-0.004 -0.0766,-0.006 -0.0957,-0.006 z m 3.79101,0 c -0.8632,0 -1.56098,0.30947 -2.0957,0.92773 -0.53473,0.61827 -0.80274,1.42332 -0.80274,2.41407 0,1.0061 0.26597,1.78895 0.79688,2.34961 0.5309,0.55681 1.17751,0.83593 1.9414,0.83593 0.3132,0 0.59549,-0.0323 0.84375,-0.0937 0.46216,-0.10752 0.84892,-0.31388 1.16211,-0.62109 0.18716,-0.17665 0.35495,-0.4032 0.50391,-0.67969 0.15274,-0.28033 0.24276,-0.5332 0.26953,-0.75976 h -1.01367 c -0.0764,0.27264 -0.20729,0.51138 -0.39063,0.71875 -0.32083,0.35713 -0.75051,0.53711 -1.28906,0.53711 -0.57673,0 -1.00234,-0.18812 -1.27734,-0.56446 -0.27505,-0.38017 -0.42235,-0.88383 -0.44141,-1.50976 h 4.49805 c 0,-0.62211 -0.0307,-1.07522 -0.0918,-1.35938 -0.0688,-0.41473 -0.20586,-0.77879 -0.41211,-1.08984 -0.21389,-0.32641 -0.52492,-0.5914 -0.93359,-0.79492 -0.40868,-0.20737 -0.83216,-0.31055 -1.26758,-0.31055 z m 15.01172,0 c -0.8632,0 -1.56293,0.30947 -2.09766,0.92773 -0.53472,0.61827 -0.80078,1.42332 -0.80078,2.41407 0,1.0061 0.26402,1.78895 0.79492,2.34961 0.53091,0.55681 1.17947,0.83593 1.94336,0.83593 0.31319,0 0.59353,-0.0323 0.8418,-0.0937 0.46215,-0.10752 0.84891,-0.31388 1.16211,-0.62109 0.18716,-0.17665 0.35495,-0.4032 0.50391,-0.67969 0.15274,-0.28033 0.24275,-0.5332 0.26953,-0.75976 h -1.01368 c -0.0764,0.27264 -0.20534,0.51138 -0.38867,0.71875 -0.32084,0.35713 -0.75052,0.53711 -1.28906,0.53711 -0.57674,0 -1.00234,-0.18812 -1.27734,-0.56446 -0.27504,-0.38017 -0.42235,-0.88383 -0.44141,-1.50976 h 4.49609 c 0,-0.62211 -0.0307,-1.07522 -0.0918,-1.35938 -0.0688,-0.41473 -0.20586,-0.77879 -0.41211,-1.08984 -0.21389,-0.32641 -0.52491,-0.5914 -0.9336,-0.79492 -0.40868,-0.20737 -0.83021,-0.31055 -1.26562,-0.31055 z m -31.24219,0.13867 2.26953,6.34766 c -0.0535,0.13825 -0.1394,0.34864 -0.25781,0.63281 -0.11843,0.28413 -0.18797,0.44191 -0.20703,0.47266 -0.0611,0.0922 -0.13685,0.16906 -0.22852,0.23046 -0.0879,0.0653 -0.227,0.0977 -0.41797,0.0977 -0.0611,0 -0.13266,-0.006 -0.21289,-0.0176 -0.0802,-0.0115 -0.20915,-0.0419 -0.38867,-0.0918 v 0.94531 c 0.11456,0.0308 0.2107,0.051 0.28711,0.0625 0.0802,0.0115 0.19276,0.0176 0.33789,0.0176 0.59584,0 1.01533,-0.17197 1.25977,-0.51758 0.24445,-0.34561 0.66393,-1.30641 1.25976,-2.88086 0.25209,-0.66818 0.56515,-1.53193 0.93946,-2.5918 0.50034,-1.40932 0.8236,-2.31149 0.96875,-2.70703 h -1.14063 l -1.65429,5.02344 -1.64454,-5.02344 z m 19.55469,0 1.76953,6.16992 h 1.07227 l 1.20898,-4.77539 1.24805,4.77539 h 1.07226 l 1.78125,-6.16992 h -1.03125 l -1.2539,4.83203 -1.20313,-4.83203 h -1.1582 l -1.19727,4.86133 -1.17968,-4.86133 z m -39.76758,0.0293 v 6.14062 h 1.04688 v -6.14062 z m 36.38086,0.73633 c 0.66077,0 1.13338,0.25078 1.41602,0.75 0.15277,0.2688 0.24899,0.62687 0.29101,1.07617 h -3.4082 c 0.0191,-0.52995 0.18893,-0.96488 0.50976,-1.30664 0.32084,-0.34562 0.71779,-0.51953 1.19141,-0.51953 z m 15.01172,0 c 0.66076,0 1.13142,0.25078 1.41406,0.75 0.15277,0.2688 0.25095,0.62687 0.29297,1.07617 h -3.41016 c 0.0191,-0.52995 0.18893,-0.96488 0.50977,-1.30664 0.32083,-0.34562 0.71975,-0.51953 1.19336,-0.51953 z m -38.57422,0.0293 c 0.46598,0 0.85876,0.18813 1.17578,0.56446 0.31701,0.37248 0.47461,0.94896 0.47461,1.72851 0,0.77186 -0.15351,1.36456 -0.46289,1.7793 -0.30556,0.41089 -0.69835,0.61719 -1.17578,0.61719 -0.61493,0 -1.06102,-0.22447 -1.33984,-0.66993 -0.27882,-0.44544 -0.41797,-0.9977 -0.41797,-1.6582 0,-0.77571 0.15963,-1.36235 0.48047,-1.76172 0.32465,-0.39937 0.74618,-0.59961 1.26562,-0.59961 z m -6.57617,1.55469 v 1.06641 h 2.875 v -1.06641 z m -8.96289,0.67969 v 0.83594 c 0,0.63746 -0.28646,1.09662 -0.85938,1.37695 -0.33993,0.16897 -0.68988,0.25195 -1.05273,0.25195 -0.29792,0 -0.55573,-0.085 -0.77344,-0.25781 -0.21771,-0.1728 -0.32812,-0.40946 -0.32812,-0.70898 0,-0.39554 0.15954,-0.68281 0.47656,-0.86329 0.18715,-0.10753 0.46748,-0.18641 0.8418,-0.23632 l 0.625,-0.082 c 0.19097,-0.0231 0.38537,-0.0615 0.58398,-0.11523 0.19861,-0.0537 0.36029,-0.12051 0.48633,-0.20117 z"
         transform="matrix(0.75202667,0,0,0.74797883,0,-287.22387)" /><path
         id="path2524"
         style="stroke-width:1.0027"
         d="m 451.39982,-106.84848 v 1.28851 h -0.62424 v 0.63402 h 0.62424 v 3.05474 c 0,0.29585 0.0646,0.53645 0.19388,0.72314 0.12925,0.18384 0.37543,0.27611 0.73734,0.27611 0.11202,0 0.21513,-0.006 0.30992,-0.0175 0.0977,-0.0114 0.1915,-0.0296 0.28054,-0.0555 v -0.61212 c -0.0574,0.006 -0.10822,0.0105 -0.15129,0.0132 h -0.12044 c -0.14072,0 -0.24077,-0.0166 -0.3011,-0.0483 -0.10916,-0.0546 -0.16451,-0.162 -0.16451,-0.32286 v -3.0109 h 0.73734 v -0.63403 h -0.73734 v -1.28851 z m 4.15084,1.15556 c -0.66351,0 -1.19133,0.22998 -1.58484,0.68955 -0.3935,0.45957 -0.59046,1.07689 -0.59046,1.85242 0,0.72382 0.18622,1.3003 0.55961,1.73115 0.37341,0.42798 0.87808,0.6428 1.51287,0.6428 0.76116,0 1.3228,-0.24357 1.68471,-0.72898 0.36192,-0.48544 0.542,-1.09972 0.542,-1.84366 0,-0.76978 -0.20469,-1.35231 -0.61543,-1.74869 -0.41075,-0.39639 -0.91389,-0.59459 -1.50846,-0.59459 z m -7.13104,0.0132 c -0.53138,0 -0.95602,0.13466 -1.27198,0.40467 -0.31309,0.27 -0.46855,0.62255 -0.46855,1.05915 0,0.37052 0.1662,0.66101 0.4994,0.87069 0.18669,0.12064 0.47601,0.22958 0.86953,0.32724 l 0.61689,0.15486 c 0.33032,0.0833 0.55188,0.15739 0.6639,0.22059 0.17521,0.1034 0.26145,0.25322 0.26145,0.45142 0,0.26138 -0.10778,0.45652 -0.32608,0.5829 -0.2183,0.12351 -0.47214,0.18407 -0.75937,0.18407 -0.48255,0 -0.8211,-0.12409 -1.01641,-0.37399 -0.10626,-0.13787 -0.17088,-0.33608 -0.19388,-0.59459 h -0.74468 c 0.0201,0.45958 0.17096,0.84541 0.45533,1.1585 0.28722,0.31021 0.77497,0.46602 1.46146,0.46602 0.63765,0 1.11158,-0.14977 1.42179,-0.44849 0.31309,-0.29873 0.47002,-0.65426 0.47002,-1.065 0,-0.4251 -0.1508,-0.73679 -0.45239,-0.93497 -0.18957,-0.12639 -0.56346,-0.25652 -1.12069,-0.39152 l -0.51262,-0.12417 c -0.22404,-0.0546 -0.39331,-0.11811 -0.50821,-0.18992 -0.19819,-0.12064 -0.29816,-0.28249 -0.29816,-0.48356 0,-0.18383 0.0754,-0.33063 0.22473,-0.44265 0.15223,-0.11202 0.37533,-0.168 0.6683,-0.168 0.43947,0 0.74726,0.10139 0.92535,0.30532 0.10917,0.14361 0.17073,0.30251 0.18506,0.47771 h 0.73294 c 0.006,-0.29872 -0.0881,-0.57712 -0.28055,-0.83562 -0.30733,-0.40787 -0.80747,-0.61066 -1.50258,-0.61066 z m 14.9245,0.007 c -0.46819,0 -0.88056,0.11196 -1.23673,0.33601 -0.35333,0.22116 -0.53794,0.61606 -0.55227,1.18478 h 0.72411 c 0.0287,-0.2384 0.0903,-0.41697 0.18508,-0.53761 0.16946,-0.21829 0.45719,-0.32724 0.86218,-0.32724 0.35042,0 0.6182,0.0605 0.8049,0.18115 0.18958,0.11776 0.28495,0.30842 0.28495,0.57267 0,0.12926 -0.0169,0.22762 -0.0514,0.29656 -0.0603,0.12636 -0.1803,0.20198 -0.35839,0.22498 l -1.23673,0.15486 c -0.43372,0.0546 -0.78307,0.19982 -1.0502,0.43534 -0.26713,0.23553 -0.40098,0.5669 -0.40098,0.99487 0,0.39064 0.13539,0.71742 0.40539,0.9788 0.27287,0.25852 0.62222,0.38714 1.0502,0.38714 0.35616,0 0.68236,-0.0757 0.97822,-0.2279 0.29584,-0.15223 0.52354,-0.33225 0.68152,-0.53907 0.0259,0.18383 0.0705,0.32605 0.13366,0.42658 0.12064,0.18958 0.31452,0.28488 0.58165,0.28488 0.10914,0 0.19531,-0.004 0.25851,-0.0132 0.0632,-0.009 0.15403,-0.0298 0.27466,-0.0643 v -0.57413 c -0.0489,0.008 -0.0935,0.0159 -0.1366,0.0219 -0.0431,0.003 -0.083,0.004 -0.1175,0.004 -0.10628,0 -0.17557,-0.0242 -0.21004,-0.0731 -0.0316,-0.0488 -0.0485,-0.11387 -0.0485,-0.1943 v -2.65883 c 0,-0.43659 -0.16774,-0.75738 -0.5038,-0.96419 -0.33893,-0.20681 -0.77905,-0.31117 -1.32192,-0.31117 z m -2.73197,0.009 c -0.30734,0 -0.57819,0.11196 -0.81372,0.336 -0.23552,0.22117 -0.38471,0.41027 -0.44505,0.56537 V -105.56 h -0.73587 v 4.61497 h 0.77553 v -2.65445 c 0,-0.32744 0.10464,-0.61642 0.31432,-0.86631 0.20968,-0.25276 0.50974,-0.37837 0.90038,-0.37837 0.046,0 0.0875,2.5e-4 0.12485,0.003 0.0402,0.003 0.0833,0.009 0.12926,0.0175 v -0.8181 c -0.0833,-0.009 -0.14179,-0.0149 -0.17626,-0.0175 -0.0344,-0.003 -0.0591,-0.004 -0.0734,-0.004 z m 12.65519,0 c -0.64913,0 -1.17389,0.23148 -1.57602,0.69392 -0.40212,0.46245 -0.60368,1.06461 -0.60368,1.80567 10e-6,0.75255 0.20002,1.33809 0.59928,1.75746 0.39925,0.41649 0.88551,0.62526 1.45999,0.62526 0.23552,0 0.44635,-0.0227 0.63305,-0.0687 0.34755,-0.0804 0.63987,-0.23624 0.87541,-0.46602 0.14073,-0.13213 0.26692,-0.3016 0.37894,-0.5084 0.11487,-0.20968 0.18257,-0.39882 0.2027,-0.56829 h -0.76378 c -0.0575,0.20394 -0.15442,0.3825 -0.29229,0.53761 -0.24127,0.26713 -0.56441,0.40175 -0.96941,0.40175 -0.43372,0 -0.75379,-0.14071 -0.96059,-0.4222 -0.20683,-0.28436 -0.31762,-0.66108 -0.33196,-1.12928 h 3.38266 c 0,-0.46531 -0.0231,-0.80422 -0.069,-1.01678 -0.0517,-0.31021 -0.1548,-0.58105 -0.30992,-0.81371 -0.16084,-0.24415 -0.39621,-0.44236 -0.70355,-0.59459 -0.30734,-0.15511 -0.62434,-0.23374 -0.95179,-0.23374 z m -5.19809,0.0219 c -0.53424,0 -0.99124,0.21638 -1.37038,0.65009 -0.37628,0.43373 -0.5655,1.03741 -0.5655,1.81005 0,0.81862 0.18768,1.40567 0.56109,1.76184 0.37627,0.3533 0.81332,0.53031 1.3131,0.53031 0.35905,0 0.6483,-0.0575 0.8666,-0.17238 0.21829,-0.1149 0.4045,-0.2904 0.55962,-0.52593 0.009,0.63478 -0.0407,1.07656 -0.14982,1.32357 -0.18384,0.419364 -0.57313,0.628192 -1.1677,0.628192 -0.37627,0 -0.65173,-0.08624 -0.82694,-0.258576 -0.11202,-0.112026 -0.18739,-0.270906 -0.22472,-0.477716 h -0.78875 c 0.0402,0.473931 0.22949,0.821913 0.56843,1.043075 0.33893,0.224042 0.75744,0.336007 1.25436,0.336007 0.89328,0 1.50108,-0.313186 1.82277,-0.939356 0.17234,-0.338936 0.25851,-0.801896 0.25851,-1.387846 v -4.1957 h -0.7153 v 0.58144 c -0.15224,-0.19244 -0.3015,-0.3392 -0.44799,-0.43973 -0.27,-0.17808 -0.58546,-0.26734 -0.94738,-0.26734 z m -27.11848,0.1943 v 1.89039 h -1.8786 v 0.72461 h 1.8786 v 1.88748 h 0.73734 v -1.88748 h 1.87859 v -0.72461 h -1.87859 v -1.89039 z m 14.57785,0.43096 c 0.53426,0 0.91121,0.21185 1.12951,0.63695 0.13787,0.27 0.20711,0.62099 0.20711,1.05184 0,0.4768 -0.0969,0.90956 -0.28936,1.3002 -0.18957,0.38777 -0.54045,0.5829 -1.0546,0.5829 -0.46819,0 -0.81127,-0.16488 -1.02669,-0.49232 -0.21542,-0.32745 -0.32314,-0.73599 -0.32314,-1.22715 0,-0.51128 0.10772,-0.94852 0.32314,-1.31043 0.21542,-0.36191 0.5601,-0.54199 1.03403,-0.54199 z m 17.69172,0.0293 c 0.49692,0 0.85086,0.18758 1.06341,0.56098 0.11489,0.20107 0.18872,0.46889 0.22033,0.80495 h -2.56306 c 0.0144,-0.39637 0.14209,-0.72169 0.38336,-0.97734 0.24128,-0.2585 0.5398,-0.38859 0.89596,-0.38859 z m -5.01008,0.0307 c 0.36478,0 0.66484,0.1377 0.90038,0.41343 0.23552,0.27575 0.35398,0.69939 0.35398,1.27098 0,0.37916 -0.0631,0.71052 -0.18948,0.99488 -0.22691,0.50265 -0.61928,0.75528 -1.1765,0.75528 -0.35617,0 -0.64083,-0.13613 -0.85338,-0.40613 -0.20968,-0.27287 -0.31433,-0.66927 -0.31433,-1.18917 0,-0.44234 0.0539,-0.79943 0.1601,-1.0723 0.20107,-0.51127 0.57349,-0.76697 1.11923,-0.76697 z m -3.81595,1.6625 v 0.62526 c 0,0.47681 -0.21543,0.82026 -0.64627,1.02993 -0.25564,0.1264 -0.51881,0.18992 -0.79169,0.18992 -0.22404,0 -0.41792,-0.0651 -0.58164,-0.19429 -0.16372,-0.12927 -0.24676,-0.30627 -0.24676,-0.53031 0,-0.29585 0.11999,-0.51071 0.35839,-0.64572 0.14074,-0.0804 0.35157,-0.13943 0.63305,-0.17677 l 0.47002,-0.0599 c 0.14361,-0.0173 0.28981,-0.046 0.43917,-0.0862 0.14936,-0.0402 0.27094,-0.0916 0.36573,-0.15194 z" /><path
         id="path2540"
         style="stroke-width:1.33693"
         d="m 548.36914,263.74609 v 8.46289 h 1.03125 v -8.46289 z m -13.50391,0.57032 v 1.72265 h -0.83007 v 0.84766 h 0.83007 v 4.08398 c 0,0.39554 0.0859,0.71719 0.25782,0.9668 0.17187,0.24577 0.49921,0.36914 0.98047,0.36914 0.14895,0 0.28606,-0.008 0.4121,-0.0234 0.12987,-0.0154 0.25465,-0.0396 0.37305,-0.0742 v -0.81836 c -0.0764,0.008 -0.1439,0.0137 -0.20117,0.0176 h -0.16016 c -0.18714,0 -0.32211,-0.0203 -0.40234,-0.0625 -0.14514,-0.073 -0.2168,-0.21854 -0.2168,-0.43359 v -4.02539 h 0.98047 v -0.84766 h -0.98047 v -1.72265 z m -16.7539,1.54492 c -0.80972,0 -1.47673,0.3014 -2,0.90429 -0.52326,0.6029 -0.78516,1.44639 -0.78516,2.5293 0,0.88323 0.23937,1.61956 0.7168,2.21094 0.47743,0.58754 1.11783,0.88086 1.91992,0.88086 0.71423,0 1.29948,-0.18812 1.75781,-0.56445 0.45834,-0.38018 0.74479,-0.97893 0.85938,-1.79688 h -1.00196 c -0.0955,0.45698 -0.2694,0.81902 -0.52148,1.08399 -0.24826,0.26112 -0.58589,0.39062 -1.01367,0.39062 -0.55764,0 -0.96684,-0.2104 -1.22656,-0.63281 -0.25973,-0.42242 -0.38868,-0.94424 -0.38868,-1.5625 0,-0.61442 0.0901,-1.13026 0.27344,-1.54883 0.28264,-0.64514 0.75321,-0.9668 1.41016,-0.9668 0.48125,0 0.83112,0.12546 1.04883,0.37891 0.21774,0.24961 0.35689,0.56514 0.41796,0.94531 h 1.00196 c -0.0879,-0.82562 -0.34974,-1.40816 -0.78516,-1.74609 -0.4316,-0.33793 -0.99228,-0.50586 -1.68359,-0.50586 z m 5.97461,0 c -0.88229,0 -1.58416,0.30745 -2.10742,0.92187 -0.52327,0.61442 -0.78516,1.43973 -0.78516,2.47657 0,0.96771 0.24762,1.73843 0.74414,2.31445 0.49652,0.57218 1.16762,0.85937 2.01172,0.85937 1.01215,0 1.75898,-0.32563 2.24023,-0.97461 0.48125,-0.64898 0.72266,-1.47025 0.72266,-2.46484 0,-1.02915 -0.27414,-1.80795 -0.82031,-2.33789 -0.54619,-0.52994 -1.21523,-0.79492 -2.00586,-0.79492 z m 20.20508,0 c -0.8823,0 -1.58416,0.30745 -2.10743,0.92187 -0.52326,0.61442 -0.78515,1.43973 -0.78515,2.47657 0,0.96771 0.24761,1.73843 0.74414,2.31445 0.49652,0.57218 1.16762,0.85937 2.01172,0.85937 1.01215,0 1.75898,-0.32563 2.24023,-0.97461 0.48125,-0.64898 0.7207,-1.47025 0.7207,-2.46484 0,-1.02915 -0.27218,-1.80795 -0.81835,-2.33789 -0.54619,-0.52994 -1.21524,-0.79492 -2.00586,-0.79492 z m -13.16993,0.041 c -0.39723,0 -0.75933,0.0769 -1.08398,0.23438 -0.32465,0.15744 -0.63159,0.41832 -0.92188,0.7793 v -0.87696 h -0.98046 v 6.16992 h 1.03125 v -3.23242 c 0,-0.40321 0.0246,-0.71073 0.0742,-0.92578 0.0535,-0.21889 0.16797,-0.43124 0.33985,-0.63476 0.21389,-0.25345 0.4615,-0.42138 0.74414,-0.50586 0.15659,-0.0499 0.35711,-0.0762 0.60156,-0.0762 0.48125,0 0.81277,0.19216 0.9961,0.57618 0.11076,0.2304 0.16601,0.53382 0.16601,0.91015 v 3.88867 h 1.04883 v -3.95703 c 0,-0.6221 -0.0839,-1.10145 -0.25195,-1.43554 -0.30556,-0.61058 -0.89285,-0.91407 -1.76368,-0.91407 z m 9.46875,0 c -0.40868,0 -0.76883,0.14969 -1.08203,0.44922 -0.31317,0.29569 -0.50961,0.54654 -0.58984,0.75391 v -1.06641 h -0.98047 v 6.16992 h 1.03125 v -3.54882 c 0,-0.43778 0.13915,-0.82412 0.41797,-1.15821 0.27882,-0.33793 0.67781,-0.50586 1.19726,-0.50586 0.0611,0 0.11638,0.002 0.16602,0.006 0.0535,0.004 0.1108,0.0119 0.17188,0.0234 v -1.0957 c -0.11077,-0.0115 -0.18855,-0.0196 -0.23438,-0.0234 -0.0458,-0.004 -0.0786,-0.004 -0.0977,-0.004 z m -16.53125,0.86328 c 0.71042,1e-5 1.20972,0.28323 1.5,0.85157 0.18333,0.36097 0.27539,0.83023 0.27539,1.40625 0,0.63746 -0.12691,1.21798 -0.38281,1.74023 -0.25208,0.51842 -0.72061,0.77735 -1.40429,0.77735 -0.62258,0 -1.07682,-0.21848 -1.36329,-0.65625 -0.28645,-0.43778 -0.42968,-0.98592 -0.42968,-1.64258 0,-0.68354 0.14323,-1.2681 0.42968,-1.75196 0.28647,-0.48385 0.7448,-0.72461 1.375,-0.72461 z m 20.20508,0 c 0.71042,1e-5 1.20972,0.28323 1.5,0.85157 0.18333,0.36097 0.27539,0.83023 0.27539,1.40625 0,0.63746 -0.12886,1.21798 -0.38476,1.74023 -0.25209,0.51842 -0.71867,0.77735 -1.40235,0.77735 -0.62256,0 -1.07682,-0.21848 -1.36328,-0.65625 -0.28645,-0.43778 -0.42969,-0.98592 -0.42969,-1.64258 0,-0.68354 0.14324,-1.2681 0.42969,-1.75196 0.28646,-0.48385 0.74479,-0.72461 1.375,-0.72461 z"
         transform="matrix(0.75202667,0,0,0.74797883,0,-287.22387)" /><path
         id="path2558"
         style="stroke-width:1.0027"
         d="m 403.5536,-107.07647 v 2.33159 c -0.17521,-0.21543 -0.33214,-0.36671 -0.47001,-0.45288 -0.2384,-0.14937 -0.53387,-0.22351 -0.88716,-0.22351 -0.63766,0 -1.13,0.24663 -1.47468,0.74067 -0.3418,0.49117 -0.51261,1.07365 -0.51261,1.74577 0,0.71809 0.18922,1.29306 0.56549,1.72678 0.37628,0.43084 0.821,0.64717 1.33514,0.64717 0.31882,0 0.60195,-0.0635 0.84897,-0.18991 0.24702,-0.12638 0.46091,-0.33214 0.64187,-0.6165 v 0.64279 h 0.69767 v -6.35197 z m -10.85151,0.0219 v 0.87946 h 0.78728 v -0.87946 z m 21.52971,0 -2.00786,6.33006 h 0.65509 l 2.00785,-6.33006 z m 20.31059,0.42659 v 1.2885 h -0.62424 v 0.63257 h 0.62424 v 3.05474 c 0,0.29585 0.0646,0.5379 0.19388,0.7246 0.12926,0.18382 0.37543,0.27611 0.73734,0.27611 0.11202,0 0.21513,-0.006 0.30992,-0.0175 0.0976,-0.0114 0.1915,-0.0296 0.28054,-0.0555 v -0.61212 c -0.0575,0.006 -0.10822,0.0105 -0.15129,0.0132 h -0.12044 c -0.14073,0 -0.24224,-0.0166 -0.30257,-0.0482 -0.10915,-0.0546 -0.16304,-0.16201 -0.16304,-0.32285 v -3.01238 h 0.73734 v -0.63256 h -0.73734 v -1.28851 z m -44.93653,1.17601 c -0.46819,0 -0.88057,0.11196 -1.23674,0.33601 -0.35332,0.22117 -0.53793,0.61607 -0.55226,1.18478 h 0.72412 c 0.0287,-0.23839 0.0903,-0.41696 0.18506,-0.53761 0.16948,-0.21829 0.4572,-0.32724 0.8622,-0.32724 0.35042,0 0.6182,0.059 0.8049,0.1797 0.18957,0.11776 0.28494,0.30988 0.28494,0.57413 10e-6,0.12925 -0.0169,0.22762 -0.0514,0.29656 -0.0603,0.12636 -0.1803,0.20198 -0.35839,0.22498 l -1.23673,0.15485 c -0.43372,0.0546 -0.78307,0.19982 -1.05019,0.43535 -0.26713,0.23554 -0.40099,0.5669 -0.40099,0.99487 0,0.39064 0.1354,0.71596 0.40539,0.97734 0.27288,0.25851 0.62222,0.3886 1.05019,0.3886 0.35617,0 0.68238,-0.0757 0.97823,-0.2279 0.29585,-0.15224 0.52354,-0.33227 0.68152,-0.53907 0.0259,0.18383 0.0705,0.32605 0.13366,0.42658 0.12064,0.18957 0.31453,0.28488 0.58164,0.28488 0.10915,0 0.19531,-0.004 0.25851,-0.0132 0.0632,-0.009 0.15403,-0.0313 0.27467,-0.0657 v -0.57268 c -0.0488,0.008 -0.095,0.0159 -0.13807,0.0219 -0.0431,0.003 -0.0816,0.004 -0.11603,0.004 -0.10628,0 -0.17557,-0.0242 -0.21004,-0.0731 -0.0316,-0.0489 -0.0485,-0.11388 -0.0485,-0.1943 v -2.65883 c 0,-0.4366 -0.16774,-0.75739 -0.5038,-0.96419 -0.33894,-0.20682 -0.77906,-0.31117 -1.32193,-0.31117 z m 7.07081,0.009 c -0.30734,0 -0.57819,0.11197 -0.81371,0.33601 -0.23552,0.22117 -0.38325,0.41026 -0.44359,0.56537 v -0.79765 h -0.73733 v 4.61497 h 0.77552 v -2.65445 c 0,-0.32745 0.10465,-0.61642 0.31433,-0.86631 0.20968,-0.25277 0.50974,-0.37838 0.90038,-0.37838 0.046,0 0.0875,2.6e-4 0.12484,0.003 0.0402,0.003 0.0833,0.009 0.12926,0.0175 v -0.8181 c -0.0833,-0.009 -0.14179,-0.0149 -0.17626,-0.0175 -0.0344,-0.003 -0.059,-0.004 -0.0734,-0.004 z m 10.78248,0 c -0.30734,0 -0.57819,0.11197 -0.81372,0.33601 -0.23551,0.22117 -0.38324,0.41026 -0.44358,0.56537 v -0.79765 h -0.73734 v 4.61497 h 0.77553 v -2.65445 c 0,-0.32745 0.10464,-0.61642 0.31432,-0.86631 0.20968,-0.25277 0.50974,-0.37838 0.90038,-0.37838 0.0459,0 0.0875,2.6e-4 0.12485,0.003 0.0402,0.003 0.0833,0.009 0.12925,0.0175 v -0.8181 c -0.0833,-0.009 -0.14178,-0.0149 -0.17626,-0.0175 -0.0344,-0.003 -0.0591,-0.004 -0.0735,-0.004 z m 9.79838,0 c -0.30735,0 -0.57965,0.11197 -0.81519,0.33601 -0.23551,0.22117 -0.38325,0.41026 -0.44357,0.56537 v -0.79765 h -0.73734 v 4.61497 h 0.77552 v -2.65445 c 0,-0.32745 0.10611,-0.61642 0.31579,-0.86631 0.20968,-0.25277 0.50974,-0.37838 0.90038,-0.37838 0.046,0 0.0875,2.6e-4 0.12485,0.003 0.0402,0.003 0.0833,0.009 0.12926,0.0175 v -0.8181 c -0.0833,-0.009 -0.14327,-0.0149 -0.17773,-0.0175 -0.0344,-0.003 -0.0576,-0.004 -0.072,-0.004 z m 2.85094,0 c -0.64915,0 -1.1739,0.23148 -1.57602,0.69393 -0.40213,0.46245 -0.60368,1.06461 -0.60368,1.80567 0,0.75254 0.20001,1.3381 0.59927,1.75746 0.39925,0.41648 0.88552,0.62526 1.45999,0.62526 0.23553,0 0.44782,-0.0242 0.63452,-0.0701 0.34756,-0.0804 0.63841,-0.23477 0.87394,-0.46456 0.14075,-0.13213 0.26693,-0.30159 0.37895,-0.5084 0.11486,-0.20968 0.18256,-0.39882 0.20269,-0.56828 h -0.7623 c -0.0575,0.20393 -0.15589,0.3825 -0.29377,0.53761 -0.24127,0.26713 -0.5644,0.40175 -0.9694,0.40175 -0.43372,0 -0.75379,-0.14071 -0.9606,-0.42221 -0.20684,-0.28436 -0.31762,-0.66108 -0.33195,-1.12927 h 3.38265 c 0,-0.46532 -0.0231,-0.80424 -0.069,-1.01678 -0.0517,-0.31021 -0.15482,-0.58252 -0.30992,-0.81518 -0.16085,-0.24415 -0.39475,-0.44235 -0.70209,-0.59458 -0.30733,-0.15511 -0.6258,-0.23229 -0.95325,-0.23229 z m 11.28921,0 c -0.64915,0 -1.17536,0.23148 -1.57749,0.69393 -0.40213,0.46245 -0.60221,1.06461 -0.60221,1.80567 0,0.75254 0.19855,1.3381 0.5978,1.75746 0.39926,0.41648 0.88699,0.62526 1.46146,0.62526 0.23553,0 0.44635,-0.0242 0.63306,-0.0701 0.34754,-0.0804 0.6384,-0.23477 0.87393,-0.46456 0.14075,-0.13213 0.26694,-0.30159 0.37896,-0.5084 0.11486,-0.20968 0.18255,-0.39882 0.20269,-0.56828 h -0.76231 c -0.0575,0.20393 -0.15442,0.3825 -0.29229,0.53761 -0.24128,0.26713 -0.56441,0.40175 -0.96941,0.40175 -0.43372,0 -0.75379,-0.14071 -0.96059,-0.42221 -0.20684,-0.28436 -0.31762,-0.66108 -0.33196,-1.12927 h 3.38118 c 0,-0.46532 -0.0231,-0.80424 -0.069,-1.01678 -0.0517,-0.31021 -0.15482,-0.58252 -0.30992,-0.81518 -0.16085,-0.24415 -0.39475,-0.44235 -0.70209,-0.59458 -0.30734,-0.15511 -0.62434,-0.23229 -0.95178,-0.23229 z m -23.49496,0.10373 1.70675,4.74791 c -0.0402,0.10341 -0.10483,0.26078 -0.19388,0.47333 -0.0891,0.212518 -0.14136,0.330538 -0.15569,0.353538 -0.0459,0.069 -0.10292,0.12645 -0.17185,0.17238 -0.0661,0.0488 -0.17071,0.0731 -0.31433,0.0731 -0.046,0 -0.0998,-0.004 -0.1601,-0.0132 -0.0603,-0.009 -0.15728,-0.0313 -0.29229,-0.0687 v 0.70707 c 0.0861,0.023 0.15845,0.0382 0.21592,0.0468 0.0603,0.009 0.14496,0.0132 0.2541,0.0132 0.44809,0 0.76355,-0.12863 0.94738,-0.38714 0.18383,-0.2585 0.49929,-0.977158 0.94737,-2.154818 0.18958,-0.49978 0.42501,-1.14585 0.7065,-1.93861 0.37627,-1.05414 0.61937,-1.72895 0.72853,-2.0248 h -0.85779 l -1.24407,3.75743 -1.23673,-3.75743 z m 14.70565,0 1.33074,4.61497 h 0.80637 l 0.90919,-3.57189 0.93856,3.57189 h 0.80637 l 1.33955,-4.61497 h -0.77553 l -0.94296,3.61425 -0.90479,-3.61425 h -0.871 l -0.90038,3.63617 -0.88715,-3.63617 z m -29.90628,0.0219 v 4.59306 h 0.78728 v -4.59306 z m 27.35938,0.55076 c 0.49692,0 0.85233,0.18758 1.06488,0.56099 0.11489,0.20105 0.18725,0.46888 0.21885,0.80495 h -2.56306 c 0.0144,-0.39639 0.14208,-0.72171 0.38336,-0.97734 0.24128,-0.25852 0.53979,-0.3886 0.89597,-0.3886 z m 11.28921,0 c 0.49691,0 0.85086,0.18758 1.06341,0.56099 0.11489,0.20105 0.18872,0.46888 0.22032,0.80495 h -2.56453 c 0.0144,-0.39639 0.14208,-0.72171 0.38336,-0.97734 0.24128,-0.25852 0.54128,-0.3886 0.89744,-0.3886 z m -29.00884,0.0219 c 0.35043,0 0.64581,0.14071 0.88422,0.4222 0.2384,0.27861 0.35692,0.7098 0.35692,1.29289 0,0.57734 -0.11545,1.02066 -0.34811,1.33088 -0.22979,0.30734 -0.52518,0.46164 -0.88422,0.46164 -0.46244,0 -0.79791,-0.16789 -1.00759,-0.50109 -0.20968,-0.33318 -0.31433,-0.74626 -0.31433,-1.2403 0,-0.58021 0.12005,-1.01901 0.36133,-1.31773 0.24415,-0.29872 0.56115,-0.44849 0.95178,-0.44849 z m -4.94545,1.16287 v 0.79765 h 2.16207 v -0.79765 z m -6.74034,0.5084 v 0.62526 c 0,0.47681 -0.21542,0.82025 -0.64627,1.02993 -0.25564,0.12639 -0.51881,0.18845 -0.79168,0.18845 -0.22405,0 -0.41793,-0.0636 -0.58165,-0.19283 -0.16373,-0.12925 -0.24676,-0.30627 -0.24676,-0.5303 0,-0.29586 0.11998,-0.51073 0.35839,-0.64573 0.14074,-0.0804 0.35156,-0.13943 0.63305,-0.17676 l 0.47002,-0.0613 c 0.14362,-0.0173 0.28981,-0.046 0.43917,-0.0862 0.14936,-0.0402 0.27095,-0.0901 0.36573,-0.15047 z" /></g><path
       d="m 366.74843,120.85109 h 15.824"
       style="fill:none;stroke:#000000;stroke-width:1.14156;stroke-linecap:butt;stroke-linejoin:round;stroke-miterlimit:10;stroke-dasharray:1.14156, 3.42466;stroke-dashoffset:0;stroke-opacity:1"
       id="path878" /><path
       d="m 366.53992,103.53348 h 13.824"
       style="fill:none;stroke:#000000;stroke-width:1.06698;stroke-linecap:butt;stroke-linejoin:round;stroke-miterlimit:10;stroke-dasharray:4.26791, 4.26791;stroke-dashoffset:0;stroke-opacity:1"
       id="path882" /><path
       d="m 366.53992,86.40198 h 13.824"
       style="fill:none;stroke:#000000;stroke-width:1.06698;stroke-linecap:butt;stroke-linejoin:round;stroke-miterlimit:10;stroke-dasharray:none;stroke-opacity:1"
       id="path886" /><text
       xml:space="preserve"
       style="font-style:normal;font-weight:normal;font-size:14px;line-height:1.25;font-family:sans-serif;fill:#000000;fill-opacity:1;stroke:none;stroke-width:0.75"
       x="310.05557"
       y="-263.5"
       id="text223"
       transform="scale(1,-1)"><tspan
         sodipodi:role="line"
         id="tspan221"
         x="310.05557"
         y="-263.5"
         style="font-size:14px;stroke-width:0.75">a)</tspan></text><text
       xml:space="preserve"
       style="font-style:normal;font-weight:normal;font-size:30px;line-height:1.25;font-family:sans-serif;fill:#000000;fill-opacity:1;stroke:none;stroke-width:0.75"
       x="308.7778"
       y="-135.8889"
       id="text227"
       transform="scale(1,-1)"><tspan
         sodipodi:role="line"
         id="tspan225"
         x="308.7778"
         y="-135.8889"
         style="font-size:14px;stroke-width:0.75">b)</tspan></text></g></svg>
