<?xml version="1.0" encoding="UTF-8" standalone="no"?>
<svg
   xmlns:dc="http://purl.org/dc/elements/1.1/"
   xmlns:cc="http://creativecommons.org/ns#"
   xmlns:rdf="http://www.w3.org/1999/02/22-rdf-syntax-ns#"
   xmlns:svg="http://www.w3.org/2000/svg"
   xmlns="http://www.w3.org/2000/svg"
   xmlns:sodipodi="http://sodipodi.sourceforge.net/DTD/sodipodi-0.dtd"
   xmlns:inkscape="http://www.inkscape.org/namespaces/inkscape"
   version="1.1"
   id="svg10"
   xml:space="preserve"
   width="607.32867"
   height="318.4342"
   viewBox="0 0 607.32867 318.4342"
   sodipodi:docname="conceptual-model-fig1-2_2020-10-13.svg"
   inkscape:version="1.0.1 (c497b03c, 2020-09-10)"><metadata
     id="metadata16"><rdf:RDF><cc:Work
         rdf:about=""><dc:format>image/svg+xml</dc:format><dc:type
           rdf:resource="http://purl.org/dc/dcmitype/StillImage" /><dc:title></dc:title></cc:Work></rdf:RDF></metadata><defs
     id="defs14"><marker
       style="overflow:visible"
       id="marker1902"
       refX="0"
       refY="0"
       orient="auto"
       inkscape:stockid="Arrow1Lend"
       inkscape:isstock="true"><path
         transform="matrix(-0.8,0,0,-0.8,-10,0)"
         style="fill:#000000;fill-opacity:1;fill-rule:evenodd;stroke:#000000;stroke-width:1pt;stroke-opacity:1"
         d="M 0,0 5,-5 -12.5,0 5,5 Z"
         id="path1900" /></marker><marker
       style="overflow:visible"
       id="Arrow2Lend"
       refX="0"
       refY="0"
       orient="auto"
       inkscape:stockid="Arrow2Lend"
       inkscape:isstock="true"><path
         transform="matrix(-1.1,0,0,-1.1,-1.1,0)"
         d="M 8.7185878,4.0337352 -2.2072895,0.01601326 8.7185884,-4.0017078 c -1.7454984,2.3720609 -1.7354408,5.6174519 -6e-7,8.035443 z"
         style="fill:#000000;fill-opacity:1;fill-rule:evenodd;stroke:#000000;stroke-width:0.625;stroke-linejoin:round;stroke-opacity:1"
         id="path1358" /></marker><marker
       style="overflow:visible"
       id="Arrow1Lend"
       refX="0"
       refY="0"
       orient="auto"
       inkscape:stockid="Arrow1Lend"
       inkscape:isstock="true"><path
         transform="matrix(-0.8,0,0,-0.8,-10,0)"
         style="fill:#000000;fill-opacity:1;fill-rule:evenodd;stroke:#000000;stroke-width:1pt;stroke-opacity:1"
         d="M 0,0 5,-5 -12.5,0 5,5 Z"
         id="path1340" /></marker><clipPath
       clipPathUnits="userSpaceOnUse"
       id="clipPath34"><path
         d="M 43.367,246.52 H 334.324 V 31.754 H 43.367 Z"
         id="path32" /></clipPath><clipPath
       clipPathUnits="userSpaceOnUse"
       id="clipPath174"><path
         d="M 43.367,246.52 H 253.972 V 31.754 H 43.367 Z"
         id="path172" /></clipPath></defs><sodipodi:namedview
     pagecolor="#ffffff"
     bordercolor="#666666"
     borderopacity="1"
     objecttolerance="10"
     gridtolerance="10"
     guidetolerance="10"
     inkscape:pageopacity="0"
     inkscape:pageshadow="2"
     inkscape:window-width="1530"
     inkscape:window-height="977"
     id="namedview12"
     showgrid="false"
     inkscape:zoom="0.99674932"
     inkscape:cx="350.03981"
     inkscape:cy="105.51897"
     inkscape:window-x="0"
     inkscape:window-y="23"
     inkscape:window-maximized="0"
     inkscape:current-layer="g18"
     inkscape:document-rotation="0" /><g
     id="g18"
     inkscape:groupmode="layer"
     inkscape:label="conceptual-model-fig1-1_11-09-2020"
     transform="matrix(1.3333333,0,0,-1.3333333,-7.3169274,328.69333)"><g
       id="g28"><g
         id="g30"
         clip-path="url(#clipPath34)"><path
           d="M 43.367,246.52 H 334.324 V 31.754 H 43.367 Z"
           style="fill:#ffffff;fill-opacity:1;fill-rule:nonzero;stroke:none"
           id="path36" /><path
           d="m 58.43,41.539 h 3.672 l 3.675,-0.023 3.672,0.226 3.676,0.637 3.672,2.926 3.676,7.871 3.672,10.551 3.675,15.246 3.672,19.918 3.672,-3.563 3.676,2.133 3.672,31.035 3.676,81.629 3.671,26.633 3.676,-18.012 3.672,-14.609 3.676,-15.496 3.672,-13.411 3.675,-4.332 3.672,-3.699 3.676,-6.738 3.672,-7.668 3.672,-10.66 3.676,-4.039 3.672,-7.032 3.675,-3.925 3.672,-4.219 3.676,-1.84 3.672,-6.805 3.676,-7.101 3.671,-1.77 3.676,-4.175 3.672,-3.2 3.676,-3.379 3.672,-1.859 3.676,-2.269 3.671,-1.704 3.672,-2.019 3.676,-2.492 3.672,-2.61 3.676,-2.222 3.672,-1.387 3.675,-1.723 3.672,-1.496 3.676,-1.429 3.672,-1.364 3.676,-1.519 3.672,-0.883 3.675,-1.16 3.672,-1.313 3.676,-1.387 3.672,-1.359 3.672,-1.269 3.676,-1.18 3.671,-1.066 3.676,-0.934 3.672,-0.836 3.676,-0.797 3.672,-0.816 3.676,-0.953 3.671,-0.973 3.676,-1.567 3.672,-1.382 3.676,-1.067 3.672,-1.316 3.676,-2.328 7.343,-2.219 3.676,-1.109 3.672,-1.106 3.676,-1.109"
           style="fill:none;stroke:#bebebe;stroke-width:1.06698;stroke-linecap:butt;stroke-linejoin:round;stroke-miterlimit:10;stroke-dasharray:none;stroke-opacity:1"
           id="path38" /><path
           d="m 58.43,41.984 3.672,-0.093 3.675,-0.082 3.672,-0.055 3.676,0.012 3.672,0.25 3.676,1.046 3.672,2.336 3.675,3.864 3.672,6.277 3.672,6.523 3.676,5.051 3.672,6.364 3.676,14.859 3.671,21.676 3.676,18.187 3.672,12.633 3.676,8.492 3.672,4.848 3.675,2.773 3.672,1.852 3.676,0.738 3.672,-0.457 3.672,-1.883 3.676,-2.695 3.672,-3.098 3.675,-3.496 3.672,-3.574 3.676,-3.457 3.672,-3.547 3.676,-4.195 3.671,-4.176 3.676,-3.961 3.672,-3.945 3.676,-3.844 3.672,-3.652 3.676,-3.395 3.671,-3.187 3.672,-2.973 3.676,-2.863 3.672,-2.821 3.676,-2.769 3.672,-2.609 3.675,-2.446 3.672,-2.32 3.676,-2.188 3.672,-2.058 3.676,-1.973 3.672,-1.851 3.675,-1.719 3.672,-1.649 3.676,-1.601 3.672,-1.567 3.672,-1.527 3.676,-1.484 3.671,-1.426 3.676,-1.359 3.672,-1.29 3.676,-1.21 3.672,-1.149 3.676,-1.109 3.671,-1.086 3.676,-1.114 3.672,-1.175 3.676,-1.184 3.672,-1.168 3.676,-1.285 3.671,-1.359 3.672,-1.305 3.676,-1.277 3.672,-1.25 3.676,-1.231"
           style="fill:none;stroke:#d81b60;stroke-width:1.06698;stroke-linecap:butt;stroke-linejoin:round;stroke-miterlimit:10;stroke-dasharray:none;stroke-opacity:1"
           id="path40" /><path
           d="m 58.43,42.676 3.672,-0.078 3.675,-0.071 3.672,-0.054 3.676,-0.008 3.672,0.152 3.676,0.688 3.672,1.558 3.675,2.594 3.672,4.227 3.672,4.414 3.676,3.445 3.672,4.34 3.676,10.07 3.671,14.699 3.676,12.43 3.672,8.754 3.676,6.008 3.672,3.578 3.675,2.203 3.672,1.586 3.676,0.844 3.672,0.035 3.672,-0.926 3.676,-1.48 3.672,-1.766 3.675,-2.047 3.672,-2.113 3.676,-2.047 3.672,-2.125 3.676,-2.57 3.671,-2.578 3.676,-2.446 3.672,-2.453 3.676,-2.394 3.672,-2.286 3.676,-2.129 3.671,-1.996 3.672,-1.863 3.676,-1.805 3.672,-1.789 3.676,-1.757 3.672,-1.665 3.675,-1.562 3.672,-1.488 3.676,-1.407 3.672,-1.328 3.676,-1.277 3.672,-1.203 3.675,-1.117 3.672,-1.078 3.676,-1.055 3.672,-1.035 3.672,-1.016 3.676,-0.988 3.671,-0.953 3.676,-0.918 3.672,-0.871 3.676,-0.825 3.672,-0.789 3.676,-0.761 3.671,-0.75 3.676,-0.774 3.672,-0.82 3.676,-0.824 3.672,-0.821 3.676,-0.902 3.671,-0.957 3.672,-0.922 3.676,-0.91 3.672,-0.895 3.676,-0.882"
           style="fill:none;stroke:#ffc107;stroke-width:1.06698;stroke-linecap:butt;stroke-linejoin:round;stroke-miterlimit:10;stroke-dasharray:none;stroke-opacity:1"
           id="path42" /><path
           d="m 58.43,43.957 3.672,-0.051 3.675,-0.051 3.672,-0.05 3.676,-0.043 3.672,-0.032 3.676,0.028 3.672,0.117 3.675,0.238 3.672,0.43 3.672,0.508 3.676,0.469 3.672,0.601 3.676,1.195 3.671,1.786 3.676,1.761 3.672,1.567 3.676,1.406 3.672,1.238 3.675,1.141 3.672,1.097 3.676,1.032 3.672,0.953 3.672,0.848 3.676,0.761 3.672,0.707 3.675,0.641 3.672,0.594 3.676,0.558 3.672,0.516 3.676,0.433 3.671,0.387 3.676,0.356 3.672,0.312 3.676,0.278 3.672,0.25 3.676,0.226 3.671,0.203 3.672,0.184 3.676,0.16 3.672,0.133 3.676,0.105 3.672,0.09 3.675,0.07 3.672,0.055 3.676,0.039 3.672,0.027 3.676,0.008 h 3.672 l 3.675,-0.011 3.672,-0.024 3.676,-0.035 3.672,-0.051 3.672,-0.062 3.676,-0.075 3.671,-0.085 3.676,-0.094 3.672,-0.102 3.676,-0.105 3.672,-0.117 3.676,-0.122 3.671,-0.132 3.676,-0.145 3.672,-0.156 3.676,-0.164 3.672,-0.176 3.676,-0.195 3.671,-0.207 3.672,-0.219 3.676,-0.227 3.672,-0.234 3.676,-0.242"
           style="fill:none;stroke:#1e88e5;stroke-width:1.06698;stroke-linecap:butt;stroke-linejoin:round;stroke-miterlimit:10;stroke-dasharray:none;stroke-opacity:1"
           id="path44" /><path
           d="M 43.367,246.52 H 334.324 V 31.754 H 43.367 Z"
           style="fill:none;stroke:#333333;stroke-width:1.06698;stroke-linecap:round;stroke-linejoin:round;stroke-miterlimit:10;stroke-dasharray:none;stroke-opacity:1"
           id="path46" /></g></g><g
       id="g48"><text
         transform="matrix(1,0,0,-1,33.542969,44.007812)"
         style="font-variant:normal;font-weight:normal;font-size:8.8px;font-family:Helvetica;-inkscape-font-specification:Helvetica;writing-mode:lr-tb;fill:#4d4d4d;fill-opacity:1;fill-rule:nonzero;stroke:none"
         id="text60"><tspan
           x="0"
           y="0"
           id="tspan50">0</tspan><tspan
           x="-9.7851601 -4.8923602 0.00044"
           y="-45.375"
           sodipodi:role="line"
           id="tspan52">200</tspan><tspan
           x="-9.7851601 -4.8923602 0.00044"
           y="-90.746094"
           sodipodi:role="line"
           id="tspan54">400</tspan><tspan
           x="-9.7851601 -4.8923602 0.00044"
           y="-136.12109"
           sodipodi:role="line"
           id="tspan56">600</tspan><tspan
           x="-9.7851601 -4.8923602 0.00044"
           y="-181.49609"
           sodipodi:role="line"
           id="tspan58">800</tspan></text><path
         d="m 40.625,47.164 h 2.742"
         style="fill:none;stroke:#333333;stroke-width:1.06698;stroke-linecap:butt;stroke-linejoin:round;stroke-miterlimit:10;stroke-dasharray:none;stroke-opacity:1"
         id="path62" /><path
         d="m 40.625,92.539 h 2.742"
         style="fill:none;stroke:#333333;stroke-width:1.06698;stroke-linecap:butt;stroke-linejoin:round;stroke-miterlimit:10;stroke-dasharray:none;stroke-opacity:1"
         id="path64" /><path
         d="m 40.625,137.91 h 2.742"
         style="fill:none;stroke:#333333;stroke-width:1.06698;stroke-linecap:butt;stroke-linejoin:round;stroke-miterlimit:10;stroke-dasharray:none;stroke-opacity:1"
         id="path66" /><path
         d="m 40.625,183.285 h 2.742"
         style="fill:none;stroke:#333333;stroke-width:1.06698;stroke-linecap:butt;stroke-linejoin:round;stroke-miterlimit:10;stroke-dasharray:none;stroke-opacity:1"
         id="path68" /><path
         d="m 40.625,228.66 h 2.742"
         style="fill:none;stroke:#333333;stroke-width:1.06698;stroke-linecap:butt;stroke-linejoin:round;stroke-miterlimit:10;stroke-dasharray:none;stroke-opacity:1"
         id="path70" /><path
         d="m 93.328,29.016 v 2.738"
         style="fill:none;stroke:#333333;stroke-width:1.06698;stroke-linecap:butt;stroke-linejoin:round;stroke-miterlimit:10;stroke-dasharray:none;stroke-opacity:1"
         id="path72" /><path
         d="m 166.805,29.016 v 2.738"
         style="fill:none;stroke:#333333;stroke-width:1.06698;stroke-linecap:butt;stroke-linejoin:round;stroke-miterlimit:10;stroke-dasharray:none;stroke-opacity:1"
         id="path74" /><path
         d="m 240.277,29.016 v 2.738"
         style="fill:none;stroke:#333333;stroke-width:1.06698;stroke-linecap:butt;stroke-linejoin:round;stroke-miterlimit:10;stroke-dasharray:none;stroke-opacity:1"
         id="path76" /><path
         d="m 313.75,29.016 v 2.738"
         style="fill:none;stroke:#333333;stroke-width:1.06698;stroke-linecap:butt;stroke-linejoin:round;stroke-miterlimit:10;stroke-dasharray:none;stroke-opacity:1"
         id="path78" /><text
         transform="matrix(1,0,0,-1,83.542969,20.511719)"
         style="font-variant:normal;font-weight:normal;font-size:8.8px;font-family:Helvetica;-inkscape-font-specification:Helvetica;writing-mode:lr-tb;fill:#4d4d4d;fill-opacity:1;fill-rule:nonzero;stroke:none"
         id="text82"><tspan
           x="0 4.8927999 9.7855997 14.6784 73.471199 78.363998 83.256798 88.149597 146.94922 151.84203 156.73482 161.62762 220.42043 225.31322 230.20602 235.09882"
           y="0"
           sodipodi:role="line"
           id="tspan80">1960198020002020</tspan></text><text
         transform="matrix(1,0,0,-1,177.22656,7.898438)"
         style="font-variant:normal;font-weight:normal;font-size:11px;font-family:Helvetica;-inkscape-font-specification:Helvetica;writing-mode:lr-tb;fill:#000000;fill-opacity:1;fill-rule:nonzero;stroke:none"
         id="text86"><tspan
           x="0 7.3260002 13.442 19.558001"
           y="0"
           sodipodi:role="line"
           id="tspan84">Year</tspan></text><text
         transform="matrix(0,1,1,0,16.347656,116.82422)"
         style="font-variant:normal;font-weight:normal;font-size:11px;font-family:Symbol;-inkscape-font-specification:Symbol;writing-mode:lr-tb;fill:#000000;fill-opacity:1;fill-rule:nonzero;stroke:none"
         id="text90"><tspan
           x="0"
           y="0"
           id="tspan88">Δ</tspan></text><text
         transform="matrix(0,1,1,0,10.886719,123.55469)"
         style="font-variant:normal;font-weight:normal;font-size:7.7px;font-family:Helvetica;-inkscape-font-specification:Helvetica;writing-mode:lr-tb;fill:#000000;fill-opacity:1;fill-rule:nonzero;stroke:none"
         id="text94"><tspan
           x="0 4.2811999"
           y="0"
           sodipodi:role="line"
           id="tspan92">14</tspan></text><text
         transform="matrix(0,1,1,0,16.347656,132.125)"
         style="font-variant:normal;font-weight:normal;font-size:11px;font-family:Helvetica;-inkscape-font-specification:Helvetica;writing-mode:lr-tb;fill:#000000;fill-opacity:1;fill-rule:nonzero;stroke:none"
         id="text98"><tspan
           x="0 7.9419999 10.989 14.652 25.652"
           y="0"
           sodipodi:role="line"
           id="tspan96">C (‰)</tspan></text><path
         d="m 345.281,187.074 h 81.238 V 91.199 h -81.238 z"
         style="fill:#ffffff;fill-opacity:1;fill-rule:nonzero;stroke:none"
         id="path100" /><text
         transform="scale(1,-1)"
         style="font-variant:normal;font-weight:normal;font-size:11px;font-family:Helvetica;-inkscape-font-specification:Helvetica;writing-mode:lr-tb;fill:#000000;fill-opacity:1;fill-rule:nonzero;stroke:none"
         id="text104"
         x="350.76172"
         y="-110.99219"><tspan
           x="350.76172 358.08771 364.20374 370.31973"
           y="-110.99219"
           sodipodi:role="line"
           id="tspan102">Pool</tspan></text><path
         d="m 350.762,165.801 h 17.281 V 148.52 h -17.281 z"
         style="fill:#ffffff;fill-opacity:1;fill-rule:nonzero;stroke:none"
         id="path106" /><path
         d="m 352.488,95.66 h 13.824"
         style="fill:none;stroke:#bebebe;stroke-width:1.06698;stroke-linecap:butt;stroke-linejoin:round;stroke-miterlimit:10;stroke-dasharray:none;stroke-opacity:1"
         id="path108" /><path
         d="m 350.762,148.52 h 17.281 v -17.281 h -17.281 z"
         style="fill:#ffffff;fill-opacity:1;fill-rule:nonzero;stroke:none"
         id="path110" /><path
         d="m 352.488,78.379 h 13.824"
         style="fill:none;stroke:#d81b60;stroke-width:1.06698;stroke-linecap:butt;stroke-linejoin:round;stroke-miterlimit:10;stroke-dasharray:none;stroke-opacity:1"
         id="path112" /><path
         d="m 352.488,61.098 h 13.824"
         style="fill:none;stroke:#ffc107;stroke-width:1.06698;stroke-linecap:butt;stroke-linejoin:round;stroke-miterlimit:10;stroke-dasharray:none;stroke-opacity:1"
         id="path116" /><path
         d="m 352.488,43.82 h 13.824"
         style="fill:none;stroke:#1e88e5;stroke-width:1.06698;stroke-linecap:butt;stroke-linejoin:round;stroke-miterlimit:10;stroke-dasharray:none;stroke-opacity:1"
         id="path120" /><text
         transform="scale(1,-1)"
         style="font-variant:normal;font-weight:normal;font-size:8.8px;font-family:Helvetica;-inkscape-font-specification:Helvetica;writing-mode:lr-tb;fill:#000000;fill-opacity:1;fill-rule:nonzero;stroke:none"
         id="text130"
         x="373.51953"
         y="-92.503906"><tspan
           x="373.51953 378.41232 380.84995 388.18033 393.07312 397.47314 402.36594 407.25873 412.15152 415.08194"
           y="-92.503906"
           sodipodi:role="line"
           id="tspan122">atmosphere</tspan><tspan
           x="373.51953 375.95712 380.84995 385.24994"
           y="-75.222656"
           sodipodi:role="line"
           id="tspan124">fast</tspan><tspan
           x="373.51953 376.44992 381.34274 385.74274 390.63553 392.58914 395.51953 400.41232 402.84995 404.80353 409.69632"
           y="-57.941406"
           sodipodi:role="line"
           id="tspan126">respiration</tspan><tspan
           x="373.51953 377.91953 379.87314 384.76593"
           y="-40.66407"
           sodipodi:role="line"
           id="tspan128">slow</tspan></text></g><g
       id="g201"
       transform="matrix(0.636804,0,0,0.636804,270.84337,-99.016601)"><g
         id="g168"
         transform="translate(-154.28571,296.0906)"><g
           id="g170"
           clip-path="url(#clipPath174)"><path
             d="M 43.367,246.52 H 253.972 V 31.754 H 43.367 Z"
             style="fill:#ffffff;fill-opacity:1;fill-rule:nonzero;stroke:none"
             id="path176" /><path
             d="m 52.941,181.957 5.629,-5.992 5.633,-7.406 5.629,-7.743 5.633,-6.597 5.629,-4.11 5.633,-5.113 5.632,-4.445 5.629,-4.242 5.633,-4.039 5.629,-4.512 5.633,-2.625 5.629,-3.434 5.633,-3.902 5.632,-4.109 5.629,-4.04 5.633,-3.769 5.629,-3.5 5.633,-3.164 5.629,-2.762 5.632,-2.492 5.633,-2.356 5.629,-2.421 5.633,-2.829 5.629,-2.894 5.633,-4.649 5.629,-4.105 5.632,-3.164 5.633,-3.906 5.629,-6.903 5.633,-3.293 5.629,-3.289 5.633,-3.289 5.629,-3.293 5.632,-3.285"
             style="fill:none;stroke:#bebebe;stroke-width:1.06698;stroke-linecap:butt;stroke-linejoin:round;stroke-miterlimit:10;stroke-dasharray:none;stroke-opacity:1"
             id="path178" /><path
             d="m 52.941,235.828 5.629,-8.812 5.633,-8.504 5.629,-8.375 5.633,-8.215 5.629,-7.746 5.633,-7.25 5.632,-6.887 5.629,-6.488 5.633,-6.117 5.629,-5.852 5.633,-5.5 5.629,-5.094 5.633,-4.886 5.632,-4.754 5.629,-4.649 5.633,-4.539 5.629,-4.398 5.633,-4.235 5.629,-4.035 5.632,-3.82 5.633,-3.602 5.629,-3.41 5.633,-3.293 5.629,-3.215 5.633,-3.304 5.629,-3.493 5.632,-3.507 5.633,-3.465 5.629,-3.813 5.633,-4.035 5.629,-3.871 5.633,-3.797 5.629,-3.711 5.632,-3.648"
             style="fill:none;stroke:#d81b60;stroke-width:1.06698;stroke-linecap:butt;stroke-linejoin:round;stroke-miterlimit:10;stroke-dasharray:none;stroke-opacity:1"
             id="path180" /><path
             d="m 52.941,193.578 5.629,-5.535 5.633,-5.352 5.629,-5.3 5.633,-5.227 5.629,-4.937 5.633,-4.633 5.632,-4.414 5.629,-4.172 5.633,-3.946 5.629,-3.789 5.633,-3.574 5.629,-3.316 5.633,-3.199 5.632,-3.125 5.629,-3.075 5.633,-3.007 5.629,-2.934 5.633,-2.84 5.629,-2.719 5.632,-2.586 5.633,-2.449 5.629,-2.336 5.633,-2.265 5.629,-2.223 5.633,-2.297 5.629,-2.43 5.632,-2.453 5.633,-2.433 5.629,-2.676 5.633,-2.836 5.629,-2.742 5.633,-2.699 5.629,-2.653 5.632,-2.625"
             style="fill:none;stroke:#ffc107;stroke-width:1.06698;stroke-linecap:butt;stroke-linejoin:round;stroke-miterlimit:10;stroke-dasharray:none;stroke-opacity:1"
             id="path182" /><path
             d="m 52.941,115.332 5.629,0.547 5.633,0.473 5.629,0.394 5.633,0.313 5.629,0.261 5.633,0.215 5.632,0.16 5.629,0.117 5.633,0.079 5.629,0.031 5.633,-0.004 5.629,-0.031 5.633,-0.071 5.632,-0.109 5.629,-0.148 5.633,-0.188 5.629,-0.219 5.633,-0.25 5.629,-0.281 5.632,-0.301 5.633,-0.32 5.629,-0.344 5.633,-0.363 5.629,-0.391 5.633,-0.422 5.629,-0.464 5.632,-0.496 5.633,-0.524 5.629,-0.574 5.633,-0.617 5.629,-0.645 5.633,-0.672 5.629,-0.699 5.632,-0.723"
             style="fill:none;stroke:#1e88e5;stroke-width:1.06698;stroke-linecap:butt;stroke-linejoin:round;stroke-miterlimit:10;stroke-dasharray:none;stroke-opacity:1"
             id="path184" /><path
             d="m 76.559,174.777 c 0,-5.211 -7.821,-5.211 -7.821,0 0,5.215 7.821,5.215 7.821,0"
             style="fill:#ffc107;fill-opacity:1;fill-rule:nonzero;stroke:none"
             id="path186" /><path
             d="m 234.23,87.41 c 0,-5.215 -7.82,-5.215 -7.82,0 0,5.211 7.82,5.211 7.82,0"
             style="fill:#ffc107;fill-opacity:1;fill-rule:nonzero;stroke:none"
             id="path188" /><path
             d="m 68.738,163.246 h 7.82 v -7.82 h -7.82 z"
             style="fill:none;stroke:#ffc107;stroke-width:1.41732;stroke-linecap:round;stroke-linejoin:round;stroke-miterlimit:10;stroke-dasharray:none;stroke-opacity:1"
             id="path190" /><path
             d="m 226.41,102.652 h 7.82 v -7.82 h -7.82 z"
             style="fill:none;stroke:#ffc107;stroke-width:1.41732;stroke-linecap:round;stroke-linejoin:round;stroke-miterlimit:10;stroke-dasharray:none;stroke-opacity:1"
             id="path192" /><path
             d="m 76.559,186.266 c 0,-5.215 -7.821,-5.215 -7.821,0 0,5.211 7.821,5.211 7.821,0"
             style="fill:none;stroke:#ffc107;stroke-width:1.41732;stroke-linecap:round;stroke-linejoin:round;stroke-miterlimit:10;stroke-dasharray:none;stroke-opacity:1"
             id="path194" /><path
             d="m 234.23,78.543 c 0,-5.211 -7.82,-5.211 -7.82,0 0,5.215 7.82,5.215 7.82,0"
             style="fill:none;stroke:#ffc107;stroke-width:1.41732;stroke-linecap:round;stroke-linejoin:round;stroke-miterlimit:10;stroke-dasharray:none;stroke-opacity:1"
             id="path196" /><path
             d="M 43.367,246.52 H 253.972 V 31.754 H 43.367 Z"
             style="fill:none;stroke:#333333;stroke-width:1.06698;stroke-linecap:round;stroke-linejoin:round;stroke-miterlimit:10;stroke-dasharray:none;stroke-opacity:1"
             id="path198" /></g></g><path
         d="m -113.66071,354.4386 h 2.742"
         style="fill:none;stroke:#333333;stroke-width:1.06698;stroke-linecap:butt;stroke-linejoin:round;stroke-miterlimit:10;stroke-dasharray:none;stroke-opacity:1"
         id="path210" /><path
         d="m -113.66071,421.7626 h 2.742"
         style="fill:none;stroke:#333333;stroke-width:1.06698;stroke-linecap:butt;stroke-linejoin:round;stroke-miterlimit:10;stroke-dasharray:none;stroke-opacity:1"
         id="path212" /><path
         d="m -113.66071,489.0866 h 2.742"
         style="fill:none;stroke:#333333;stroke-width:1.06698;stroke-linecap:butt;stroke-linejoin:round;stroke-miterlimit:10;stroke-dasharray:none;stroke-opacity:1"
         id="path214" /><path
         d="m -87.26971,325.1066 v 2.738"
         style="fill:none;stroke:#333333;stroke-width:1.06698;stroke-linecap:butt;stroke-linejoin:round;stroke-miterlimit:10;stroke-dasharray:none;stroke-opacity:1"
         id="path216" /><path
         d="m -30.95771,325.1066 v 2.738"
         style="fill:none;stroke:#333333;stroke-width:1.06698;stroke-linecap:butt;stroke-linejoin:round;stroke-miterlimit:10;stroke-dasharray:none;stroke-opacity:1"
         id="path218" /><path
         d="m 25.35529,325.1066 v 2.738"
         style="fill:none;stroke:#333333;stroke-width:1.06698;stroke-linecap:butt;stroke-linejoin:round;stroke-miterlimit:10;stroke-dasharray:none;stroke-opacity:1"
         id="path220" /><path
         d="m 81.66729,325.1066 v 2.738"
         style="fill:none;stroke:#333333;stroke-width:1.06698;stroke-linecap:butt;stroke-linejoin:round;stroke-miterlimit:10;stroke-dasharray:none;stroke-opacity:1"
         id="path222" /></g><g
       aria-label="0
100
200"
       transform="scale(1,-1)"
       id="text208"
       style="font-variant:normal;font-weight:normal;font-size:8.8px;font-family:Helvetica;-inkscape-font-specification:Helvetica;writing-mode:lr-tb;fill:#4d4d4d;fill-opacity:1;fill-rule:nonzero;stroke:none"><path
         d="m 193.494,-130.19516 q 1.19453,0 1.72735,0.98399 0.4125,0.76054 0.4125,2.08398 0,1.25469 -0.37383,2.07539 -0.54141,1.17735 -1.77031,1.17735 -1.1086,0 -1.65,-0.9625 -0.45118,-0.80352 -0.45118,-2.15704 0,-1.04843 0.27071,-1.80039 0.50703,-1.40078 1.83476,-1.40078 z m -0.009,5.61602 q 0.60156,0 0.9582,-0.53281 0.35664,-0.53282 0.35664,-1.98516 0,-1.04844 -0.25781,-1.72305 -0.25781,-0.6789 -1.00117,-0.6789 -0.68321,0 -1.00117,0.64453 -0.31368,0.64023 -0.31368,1.89062 0,0.94102 0.20196,1.5125 0.30937,0.87227 1.05703,0.87227 z"
         id="path223" /><path
         id="path225"
         style="stroke-width:0.999998"
         d="m 188.60139,-174.10348 c -0.88517,0 -1.49597,0.46654 -1.83399,1.40038 -0.18047,0.50131 -0.27099,1.10134 -0.27099,1.8003 0,0.90234 0.15039,1.62204 0.45117,2.15772 0.36094,0.64166 0.91035,0.9624 1.64941,0.9624 0.81927,0 1.41006,-0.39284 1.77099,-1.17774 0.24923,-0.54713 0.37354,-1.23922 0.37354,-2.07568 0,-0.88229 -0.13808,-1.57598 -0.41308,-2.08301 -0.35521,-0.65599 -0.9307,-0.98437 -1.72705,-0.98437 z m 4.89257,0 c -0.88516,0 -1.49596,0.46654 -1.83398,1.40038 -0.18047,0.50131 -0.271,1.10134 -0.271,1.8003 0,0.90234 0.1504,1.62204 0.45118,2.15772 0.36094,0.64166 0.91035,0.9624 1.64941,0.9624 0.81927,0 1.41006,-0.39284 1.77099,-1.17774 0.24923,-0.54713 0.37354,-1.23922 0.37354,-2.07568 0,-0.88229 -0.13662,-1.57598 -0.41162,-2.08301 -0.35521,-0.65599 -0.93216,-0.98437 -1.72852,-0.98437 z m -9.66064,0.0263 c -0.10886,0.47553 -0.27308,0.77637 -0.49365,0.90528 -0.22057,0.12606 -0.61035,0.2166 -1.16895,0.27099 v 0.59327 h 1.44726 v 4.35644 h 0.82618 v -6.12598 z m 4.81494,0.66944 c 0.49557,0 0.83007,0.22708 1.00195,0.67969 0.17188,0.44973 0.25781,1.02369 0.25781,1.72266 0,0.96822 -0.11966,1.62964 -0.35742,1.98486 -0.23775,0.3552 -0.55695,0.5332 -0.958,0.5332 -0.49844,0 -0.85136,-0.29153 -1.05762,-0.87304 -0.13463,-0.381 -0.20069,-0.88438 -0.20069,-1.51173 0,-0.83359 0.10437,-1.46429 0.31348,-1.89111 0.21198,-0.42969 0.54503,-0.64453 1.00049,-0.64453 z m 4.89258,0 c 0.49557,0 0.83008,0.22708 1.00195,0.67969 0.17188,0.44973 0.25781,1.02369 0.25781,1.72266 0,0.96822 -0.11966,1.62964 -0.35742,1.98486 -0.23775,0.3552 -0.55696,0.5332 -0.958,0.5332 -0.49844,0 -0.8499,-0.29153 -1.05616,-0.87304 -0.13463,-0.381 -0.20215,-0.88438 -0.20215,-1.51173 0,-0.83359 0.10437,-1.46429 0.31348,-1.89111 0.21198,-0.42969 0.54502,-0.64453 1.00049,-0.64453 z" /><path
         id="path231"
         style="stroke-width:0.999998"
         d="m 183.29236,-216.96949 c -0.84792,0 -1.43877,0.29772 -1.77393,0.89355 -0.18906,0.33802 -0.28877,0.77536 -0.29736,1.31104 h 0.78661 c 0.0115,-0.38099 0.0713,-0.67871 0.18018,-0.89356 0.20339,-0.40104 0.57015,-0.60204 1.1001,-0.60204 0.35807,0 0.64502,0.10589 0.85986,0.31787 0.21485,0.20911 0.32227,0.493 0.32227,0.85107 0,0.30652 -0.11813,0.57816 -0.35303,0.81592 -0.14896,0.15183 -0.4083,0.33594 -0.77783,0.55078 l -0.82471,0.47754 c -0.55287,0.32083 -0.92428,0.67688 -1.11621,1.06934 -0.18904,0.39244 -0.29799,0.85286 -0.32666,1.38281 h 4.22315 v -0.7295 h -3.36036 c 0.0745,-0.30364 0.25554,-0.57987 0.54199,-0.8291 0.16042,-0.14035 0.38139,-0.28769 0.66212,-0.44238 l 0.5874,-0.32666 c 0.51849,-0.28932 0.87906,-0.53636 1.07958,-0.73975 0.34662,-0.34948 0.52002,-0.76999 0.52002,-1.26269 0,-0.46693 -0.16416,-0.89196 -0.49071,-1.27295 -0.3237,-0.38099 -0.8378,-0.57129 -1.54248,-0.57129 z m 4.77685,0.022 c -0.88516,0 -1.49596,0.46653 -1.83399,1.40039 -0.18046,0.5013 -0.27099,1.10133 -0.27099,1.80029 0,0.90234 0.15039,1.62204 0.45117,2.15772 0.36094,0.64167 0.91035,0.9624 1.64942,0.9624 0.81927,0 1.41006,-0.39283 1.77099,-1.17774 0.24922,-0.54713 0.37353,-1.23921 0.37353,-2.07567 0,-0.8823 -0.13808,-1.57598 -0.41308,-2.08302 -0.35521,-0.65599 -0.9307,-0.98437 -1.72705,-0.98437 z m 4.89257,0 c -0.88515,0 -1.49596,0.46653 -1.83398,1.40039 -0.18046,0.5013 -0.271,1.10133 -0.271,1.80029 0,0.90234 0.1504,1.62204 0.45118,2.15772 0.36094,0.64167 0.91035,0.9624 1.64941,0.9624 0.81928,0 1.41007,-0.39283 1.771,-1.17774 0.24922,-0.54713 0.37353,-1.23921 0.37353,-2.07567 0,-0.8823 -0.13662,-1.57598 -0.41162,-2.08302 -0.35521,-0.65599 -0.93216,-0.98437 -1.72852,-0.98437 z m -4.84569,0.6958 c 0.49557,0 0.83007,0.22709 1.00194,0.67969 0.17188,0.44974 0.25782,1.02369 0.25782,1.72265 0,0.96824 -0.11967,1.62966 -0.35742,1.98487 -0.23776,0.3552 -0.55696,0.5332 -0.95801,0.5332 -0.49843,0 -0.85136,-0.29153 -1.05762,-0.87305 -0.13463,-0.38098 -0.20068,-0.88437 -0.20068,-1.51171 0,-0.8336 0.10436,-1.4643 0.31347,-1.89112 0.21198,-0.42968 0.54503,-0.64453 1.0005,-0.64453 z m 4.89257,0 c 0.49558,0 0.83008,0.22709 1.00195,0.67969 0.17188,0.44974 0.25782,1.02369 0.25782,1.72265 0,0.96824 -0.11967,1.62966 -0.35742,1.98487 -0.23776,0.3552 -0.55697,0.5332 -0.95801,0.5332 -0.49843,0 -0.8499,-0.29153 -1.05616,-0.87305 -0.13463,-0.38098 -0.20214,-0.88437 -0.20214,-1.51171 0,-0.8336 0.10436,-1.4643 0.31347,-1.89112 0.21198,-0.42968 0.54502,-0.64453 1.00049,-0.64453 z" /></g><g
       aria-label="1990200020102020"
       transform="scale(1,-1)"
       id="text226"
       style="font-variant:normal;font-weight:normal;font-size:8.8px;font-family:Helvetica;-inkscape-font-specification:Helvetica;writing-mode:lr-tb;fill:#4d4d4d;fill-opacity:1;fill-rule:nonzero;stroke:none"><path
         id="path240"
         style="stroke-width:0.999998"
         d="m 212.01281,-105.97419 c -0.66459,-1e-5 -1.16791,0.21178 -1.50879,0.63574 -0.34089,0.42396 -0.51123,0.91504 -0.51123,1.47363 0,0.58151 0.17187,1.05723 0.51563,1.42676 0.34661,0.36953 0.81621,0.55371 1.40917,0.55371 0.29219,0 0.56384,-0.0537 0.81592,-0.1626 0.25495,-0.11172 0.46826,-0.30355 0.64014,-0.57568 -0.10886,0.94244 -0.29303,1.56855 -0.55371,1.87793 -0.26068,0.30651 -0.5753,0.45849 -0.94483,0.45849 -0.19765,0 -0.37565,-0.043 -0.5332,-0.1289 -0.30651,-0.16328 -0.47074,-0.45795 -0.49365,-0.88477 h -0.78223 c 0,0.47552 0.15651,0.87142 0.46875,1.18652 0.31224,0.315111 0.76807,0.471684 1.36963,0.471684 0.89661,0 1.53343,-0.483434 1.90869,-1.451664 0.2263,-0.58151 0.33838,-1.24905 0.33838,-2.00244 0,-0.66744 -0.0936,-1.22298 -0.28272,-1.66699 -0.34088,-0.80781 -0.95934,-1.21142 -1.85595,-1.21142 z m 4.89257,0 c -0.66458,-1e-5 -1.1679,0.21178 -1.50879,0.63574 -0.34088,0.42396 -0.51123,0.91504 -0.51123,1.47363 0,0.58151 0.17188,1.05723 0.51563,1.42676 0.34662,0.36953 0.81622,0.55371 1.40918,0.55371 0.29219,0 0.5653,-0.0537 0.81738,-0.1626 0.25495,-0.11172 0.46827,-0.30355 0.64014,-0.57568 -0.10885,0.94244 -0.2945,1.56855 -0.55518,1.87793 -0.26067,0.30651 -0.57529,0.45849 -0.94482,0.45849 -0.19765,0 -0.37565,-0.043 -0.5332,-0.1289 -0.30651,-0.16328 -0.47074,-0.45795 -0.49365,-0.88477 h -0.78223 c 0,0.47552 0.15651,0.87142 0.46875,1.18652 0.31224,0.315111 0.76807,0.471684 1.36963,0.471684 0.89662,0 1.53343,-0.483434 1.90869,-1.451664 0.2263,-0.58151 0.33985,-1.24905 0.33985,-2.00244 0,-0.66744 -0.0951,-1.22298 -0.28419,-1.66699 -0.34088,-0.80781 -0.95934,-1.21142 -1.85596,-1.21142 z m 4.93946,0.009 c -0.88516,0 -1.49596,0.46653 -1.83398,1.40039 -0.18047,0.5013 -0.271,1.10133 -0.271,1.80029 0,0.90234 0.15039,1.62057 0.45117,2.15625 0.36094,0.641666 0.91035,0.963866 1.64942,0.963866 0.81927,0 1.41006,-0.392846 1.77099,-1.177736 0.24922,-0.54713 0.37354,-1.23922 0.37354,-2.07568 0,-0.8823 -0.13809,-1.57744 -0.41309,-2.08447 -0.35521,-0.65599 -0.93069,-0.98291 -1.72705,-0.98291 z m -14.55323,0.0249 c -0.10885,0.47552 -0.27454,0.77783 -0.49511,0.90673 -0.22057,0.12607 -0.60889,0.2166 -1.16748,0.271 v 0.59326 h 1.44726 v 4.356447 h 0.82471 v -6.127437 z m 4.73731,0.67089 c 0.35234,0 0.64235,0.11201 0.86865,0.33545 0.22917,0.22058 0.34424,0.55667 0.34424,1.00928 0,0.50417 -0.12884,0.85717 -0.38379,1.06055 -0.25208,0.20052 -0.53138,0.30175 -0.83789,0.30175 -0.42682,0 -0.73684,-0.11813 -0.93164,-0.35302 -0.19479,-0.23776 -0.29297,-0.55697 -0.29297,-0.95801 0,-0.42396 0.11049,-0.76159 0.33106,-1.01367 0.22343,-0.25496 0.52421,-0.38233 0.90234,-0.38233 z m 4.89258,0 c 0.35235,0 0.64235,0.11201 0.86865,0.33545 0.22917,0.22058 0.34424,0.55667 0.34424,1.00928 1e-5,0.50417 -0.12737,0.85717 -0.38232,1.06055 -0.25208,0.20052 -0.53139,0.30175 -0.8379,0.30175 -0.42682,0 -0.73831,-0.11813 -0.9331,-0.35302 -0.19479,-0.23776 -0.2915,-0.55697 -0.2915,-0.95801 0,-0.42396 0.10901,-0.76159 0.32958,-1.01367 0.22344,-0.25496 0.52422,-0.38233 0.90235,-0.38233 z m 4.97022,0 c 0.49557,0 0.83007,0.22562 1.00195,0.67823 0.17187,0.44974 0.25781,1.02516 0.25781,1.72412 0,0.96822 -0.11966,1.62965 -0.35742,1.98486 -0.23776,0.35521 -0.55697,0.53174 -0.95801,0.53174 -0.49843,0 -0.8499,-0.29007 -1.05615,-0.87158 -0.13464,-0.38099 -0.20215,-0.88584 -0.20215,-1.51319 0,-0.83359 0.10437,-1.46282 0.31348,-1.88964 0.21198,-0.42969 0.54502,-0.64454 1.00049,-0.64454 z" /><path
         id="path249"
         style="stroke-width:0.999998"
         d="m 243.90377,-105.89085 c -0.84792,0 -1.44024,0.29773 -1.77539,0.89356 -0.18906,0.33802 -0.28731,0.77536 -0.2959,1.31103 h 0.78662 c 0.0115,-0.38098 0.0713,-0.6787 0.18018,-0.89355 0.20338,-0.40104 0.57015,-0.60205 1.1001,-0.60205 0.35807,0 0.64355,0.10589 0.85839,0.31787 0.21485,0.20911 0.32227,0.493 0.32227,0.85107 0,0.30652 -0.11667,0.57816 -0.35156,0.81592 -0.14896,0.15182 -0.4083,0.33594 -0.77784,0.55078 l -0.8247,0.47608 c -0.55287,0.32083 -0.92575,0.67835 -1.11768,1.0708 -0.18906,0.39244 -0.29801,0.85286 -0.32666,1.382811 h 4.22461 v -0.730961 h -3.36035 c 0.0745,-0.30364 0.25407,-0.57988 0.54053,-0.8291 0.16041,-0.14036 0.38138,-0.28769 0.66211,-0.44238 l 0.58886,-0.32666 c 0.51849,-0.28933 0.87761,-0.5349 1.07813,-0.73828 0.34661,-0.34948 0.52002,-0.77145 0.52002,-1.26416 0,-0.46693 -0.1627,-0.8905 -0.48926,-1.27149 -0.3237,-0.38098 -0.83779,-0.57129 -1.54248,-0.57129 z m 4.77686,0.022 c -0.88516,0 -1.49743,0.46654 -1.83545,1.40039 -0.18047,0.5013 -0.271,1.10133 -0.271,1.80029 0,0.90235 0.15039,1.62058 0.45117,2.15625 0.36094,0.64167 0.91182,0.963871 1.65088,0.963871 0.81927,0 1.40859,-0.392841 1.76953,-1.177731 0.24922,-0.54714 0.37354,-1.23923 0.37354,-2.07569 0,-0.88229 -0.13662,-1.57744 -0.41162,-2.08447 -0.35521,-0.65599 -0.9307,-0.98291 -1.72705,-0.98291 z m 4.89257,0 c -0.88515,0 -1.49742,0.46654 -1.83545,1.40039 -0.18046,0.5013 -0.27099,1.10133 -0.27099,1.80029 0,0.90235 0.15039,1.62058 0.45117,2.15625 0.36094,0.64167 0.91182,0.963871 1.65088,0.963871 0.81927,0 1.40859,-0.392841 1.76953,-1.177731 0.24922,-0.54714 0.375,-1.23923 0.375,-2.07569 0,-0.88229 -0.13809,-1.57744 -0.41309,-2.08447 -0.3552,-0.65599 -0.93069,-0.98291 -1.72705,-0.98291 z m 4.89258,0 c -0.88515,0 -1.49743,0.46654 -1.83545,1.40039 -0.18047,0.5013 -0.26953,1.10133 -0.26953,1.80029 0,0.90235 0.15039,1.62058 0.45117,2.15625 0.36094,0.64167 0.91036,0.963871 1.64942,0.963871 0.81927,0 1.41006,-0.392841 1.77099,-1.177731 0.24922,-0.54714 0.37354,-1.23923 0.37354,-2.07569 0,-0.88229 -0.13809,-1.57744 -0.41309,-2.08447 -0.35521,-0.65599 -0.93069,-0.98291 -1.72705,-0.98291 z m -9.73828,0.6958 c 0.49557,0 0.82861,0.22562 1.00049,0.67822 0.17187,0.44974 0.25781,1.02516 0.25781,1.72412 0,0.96823 -0.1182,1.62966 -0.35596,1.98487 -0.23776,0.35521 -0.55696,0.53174 -0.958,0.53174 -0.49844,0 -0.85137,-0.29007 -1.05762,-0.87159 -0.13464,-0.38098 -0.20215,-0.88583 -0.20215,-1.51318 0,-0.83359 0.10436,-1.46282 0.31348,-1.88965 0.21198,-0.42968 0.54648,-0.64453 1.00195,-0.64453 z m 4.89258,0 c 0.49557,0 0.83008,0.22562 1.00195,0.67822 0.17188,0.44974 0.25781,1.02516 0.25781,1.72412 0,0.96823 -0.11966,1.62966 -0.35742,1.98487 -0.23776,0.35521 -0.55696,0.53174 -0.95801,0.53174 -0.49843,0 -0.85136,-0.29007 -1.05761,-0.87159 -0.13464,-0.38098 -0.20215,-0.88583 -0.20215,-1.51318 0,-0.83359 0.10583,-1.46282 0.31494,-1.88965 0.21198,-0.42968 0.54502,-0.64453 1.00049,-0.64453 z m 4.89258,0 c 0.49557,0 0.83007,0.22562 1.00195,0.67822 0.17187,0.44974 0.25781,1.02516 0.25781,1.72412 0,0.96823 -0.11966,1.62966 -0.35742,1.98487 -0.23776,0.35521 -0.55697,0.53174 -0.95801,0.53174 -0.49844,0 -0.85136,-0.29007 -1.05761,-0.87159 -0.13464,-0.38098 -0.20069,-0.88583 -0.20069,-1.51318 0,-0.83359 0.10436,-1.46282 0.31348,-1.88965 0.21198,-0.42968 0.54502,-0.64453 1.00049,-0.64453 z" /><path
         id="path257"
         style="stroke-width:0.999998"
         d="m 279.88575,-105.35867 c -0.84792,0 -1.43877,0.29772 -1.77393,0.89356 -0.18906,0.33802 -0.28731,0.77536 -0.2959,1.31103 h 0.78516 c 0.0115,-0.38098 0.0728,-0.67871 0.18164,-0.89355 0.20338,-0.40104 0.57015,-0.60205 1.1001,-0.60205 0.35807,0 0.64355,0.10589 0.85839,0.31787 0.21485,0.20911 0.32227,0.493 0.32227,0.85107 0,0.30652 -0.11667,0.57816 -0.35156,0.81592 -0.14896,0.15182 -0.4083,0.33593 -0.77783,0.55078 l -0.82471,0.47608 c -0.55287,0.32083 -0.92575,0.67835 -1.11768,1.0708 -0.18906,0.39244 -0.29801,0.852863 -0.32666,1.382809 h 4.22315 v -0.730957 h -3.35889 c 0.0745,-0.303642 0.25407,-0.579882 0.54053,-0.829102 0.16041,-0.14037 0.38138,-0.2877 0.66211,-0.44238 l 0.58886,-0.32666 c 0.51849,-0.28933 0.87761,-0.5349 1.07813,-0.73828 0.34661,-0.34948 0.52002,-0.77145 0.52002,-1.26416 0,-0.46693 -0.1627,-0.8905 -0.48926,-1.27149 -0.3237,-0.38098 -0.83926,-0.57129 -1.54394,-0.57129 z m 4.77685,0.022 c -0.88516,0 -1.49596,0.46654 -1.83398,1.40039 -0.18047,0.5013 -0.271,1.10133 -0.271,1.80029 0,0.90235 0.15039,1.62058 0.45117,2.156251 0.36094,0.641667 0.91035,0.963868 1.64942,0.963868 0.81927,0 1.41005,-0.392841 1.77099,-1.177739 0.24922,-0.54713 0.37354,-1.23922 0.37354,-2.07568 0,-0.88229 -0.13662,-1.57744 -0.41162,-2.08447 -0.35521,-0.65599 -0.93216,-0.98291 -1.72852,-0.98291 z m 9.78662,0 c -0.88515,0 -1.49743,0.46654 -1.83545,1.40039 -0.18047,0.5013 -0.27099,1.10133 -0.27099,1.80029 0,0.90235 0.15039,1.62058 0.45117,2.156251 0.36094,0.641667 0.91181,0.963868 1.65088,0.963868 0.81927,0 1.40859,-0.392841 1.76953,-1.177739 0.24922,-0.54713 0.37353,-1.23922 0.37353,-2.07568 0,-0.88229 -0.13662,-1.57744 -0.41162,-2.08447 -0.35521,-0.65599 -0.93069,-0.98291 -1.72705,-0.98291 z m -4.76806,0.0249 c -0.10886,0.47552 -0.27455,0.77783 -0.49512,0.90674 -0.22057,0.12606 -0.61035,0.21659 -1.16895,0.27099 v 0.59326 h 1.44873 v 4.356449 h 0.82471 v -6.127439 z m -4.97022,0.6709 c 0.49557,0 0.82861,0.22561 1.00049,0.67822 0.17187,0.44974 0.25781,1.02516 0.25781,1.72412 0,0.96823 -0.1182,1.62966 -0.35596,1.98486 -0.23776,0.355217 -0.55696,0.531741 -0.958,0.531741 -0.49844,0 -0.85137,-0.290071 -1.05762,-0.871581 -0.13464,-0.38099 -0.20215,-0.88584 -0.20215,-1.51318 0,-0.8336 0.10436,-1.46283 0.31348,-1.88965 0.21198,-0.42969 0.54648,-0.64453 1.00195,-0.64453 z m 9.78516,0 c 0.49557,0 0.82861,0.22561 1.00049,0.67822 0.17187,0.44974 0.25781,1.02516 0.25781,1.72412 0,0.96823 -0.1182,1.62966 -0.35596,1.98486 -0.23776,0.355217 -0.55697,0.531741 -0.95801,0.531741 -0.49843,0 -0.85136,-0.290071 -1.05761,-0.871581 -0.13464,-0.38099 -0.20215,-0.88584 -0.20215,-1.51318 0,-0.8336 0.10436,-1.46283 0.31347,-1.88965 0.21198,-0.42969 0.54649,-0.64453 1.00196,-0.64453 z" /><path
         id="path265"
         style="stroke-width:0.999998"
         d="m 315.45551,-105.4552 c -0.84791,0 -1.44023,0.29772 -1.77539,0.89355 -0.18906,0.33802 -0.2873,0.77537 -0.2959,1.31104 h 0.78663 c 0.0115,-0.38099 0.0713,-0.67871 0.18017,-0.89356 0.20339,-0.40104 0.57015,-0.60205 1.1001,-0.60205 0.35807,0 0.64502,0.10589 0.85986,0.31787 0.21485,0.20912 0.32227,0.49301 0.32227,0.85108 0,0.30651 -0.11813,0.57816 -0.35303,0.81592 -0.14896,0.15182 -0.4083,0.33593 -0.77783,0.55078 l -0.82471,0.47607 c -0.55286,0.32084 -0.92575,0.67836 -1.11767,1.0708 -0.18907,0.39245 -0.29802,0.852869 -0.32666,1.382815 h 4.22461 v -0.730955 h -3.36036 c 0.0745,-0.30365 0.25554,-0.57988 0.542,-0.8291 0.16041,-0.14037 0.37991,-0.2877 0.66064,-0.44239 l 0.58887,-0.32666 c 0.51849,-0.28932 0.8776,-0.5349 1.07812,-0.73828 0.34662,-0.34948 0.52002,-0.77144 0.52002,-1.26416 0,-0.46692 -0.16269,-0.8905 -0.48925,-1.27148 -0.3237,-0.38099 -0.8378,-0.57129 -1.54249,-0.57129 z m 9.78516,0 c -0.84792,0 -1.43877,0.29772 -1.77392,0.89355 -0.18907,0.33802 -0.28877,0.77537 -0.29737,1.31104 h 0.78662 c 0.0115,-0.38099 0.0713,-0.67871 0.18018,-0.89356 0.20338,-0.40104 0.57015,-0.60205 1.1001,-0.60205 0.35807,0 0.64502,0.10589 0.85986,0.31787 0.21484,0.20912 0.32226,0.49301 0.32226,0.85108 0,0.30651 -0.11813,0.57816 -0.35302,0.81592 -0.14896,0.15182 -0.4083,0.33593 -0.77783,0.55078 l -0.82471,0.47607 c -0.55286,0.32084 -0.92429,0.67836 -1.11621,1.0708 -0.18906,0.39245 -0.29801,0.852869 -0.32666,1.382815 h 4.22314 v -0.730955 h -3.36035 c 0.0745,-0.30365 0.25554,-0.57988 0.54199,-0.8291 0.16042,-0.14037 0.38139,-0.2877 0.66211,-0.44239 l 0.58741,-0.32666 c 0.51848,-0.28932 0.87907,-0.5349 1.07959,-0.73828 0.34661,-0.34948 0.52002,-0.77144 0.52002,-1.26416 0,-0.46692 -0.16416,-0.8905 -0.49073,-1.27148 -0.3237,-0.38099 -0.83779,-0.57129 -1.54248,-0.57129 z m -5.0083,0.022 c -0.88515,0 -1.49742,0.46654 -1.83545,1.40039 -0.18046,0.5013 -0.271,1.10134 -0.271,1.8003 0,0.90234 0.15039,1.62057 0.45117,2.15625 0.36094,0.641664 0.91182,0.963865 1.65089,0.963865 0.81927,0 1.40859,-0.392841 1.76953,-1.177735 0.24921,-0.54713 0.375,-1.23922 0.375,-2.07568 0,-0.8823 -0.13809,-1.57744 -0.41309,-2.08448 -0.35521,-0.65598 -0.9307,-0.98291 -1.72705,-0.98291 z m 9.78516,0 c -0.88516,0 -1.49597,0.46654 -1.83399,1.40039 -0.18047,0.5013 -0.27099,1.10134 -0.27099,1.8003 0,0.90234 0.15039,1.62057 0.45117,2.15625 0.36093,0.641664 0.91035,0.963865 1.64941,0.963865 0.81927,0 1.41006,-0.392841 1.771,-1.177735 0.24922,-0.54713 0.37354,-1.23922 0.37354,-2.07568 0,-0.8823 -0.13809,-1.57744 -0.4131,-2.08448 -0.3552,-0.65598 -0.93069,-0.98291 -1.72704,-0.98291 z m -9.73828,0.69581 c 0.49557,0 0.83008,0.22561 1.00195,0.67822 0.17187,0.44974 0.25781,1.02516 0.25781,1.72412 0,0.96822 -0.11966,1.62965 -0.35742,1.98486 -0.23776,0.355215 -0.55697,0.53174 -0.95801,0.53174 -0.49844,0 -0.85137,-0.29007 -1.05762,-0.87158 -0.13463,-0.38099 -0.20214,-0.88584 -0.20214,-1.51319 0,-0.83359 0.10582,-1.46282 0.31494,-1.88964 0.21198,-0.42969 0.54501,-0.64453 1.00049,-0.64453 z m 9.78515,0 c 0.49557,0 0.83008,0.22561 1.00196,0.67822 0.17187,0.44974 0.25781,1.02516 0.25781,1.72412 0,0.96822 -0.11966,1.62965 -0.35742,1.98486 -0.23777,0.355215 -0.55697,0.53174 -0.95801,0.53174 -0.49844,0 -0.8499,-0.29007 -1.05615,-0.87158 -0.13464,-0.38099 -0.20215,-0.88584 -0.20215,-1.51319 0,-0.83359 0.10436,-1.46282 0.31348,-1.88964 0.21198,-0.42969 0.54501,-0.64453 1.00048,-0.64453 z" /></g><text
       transform="scale(1,-1)"
       style="font-variant:normal;font-weight:normal;font-size:11px;font-family:Helvetica;-inkscape-font-specification:Helvetica;writing-mode:lr-tb;fill:#000000;fill-opacity:1;fill-rule:nonzero;stroke:none"
       id="text230"
       x="258.43323"
       y="-86.860443"><tspan
         x="258.43323 265.75925 271.87524 277.99124"
         y="-86.860443"
         sodipodi:role="line"
         id="tspan228">Year</tspan></text><g
       id="g285"
       transform="translate(312.92063,-261.83155)"><text
         transform="matrix(0,1,1,0,0,0)"
         style="font-variant:normal;font-weight:normal;font-size:11px;font-family:Symbol;-inkscape-font-specification:Symbol;writing-mode:lr-tb;fill:#000000;fill-opacity:1;fill-rule:nonzero;stroke:none"
         id="text234"
         x="412.91483"
         y="-137.93805"><tspan
           x="412.91483"
           y="-137.93805"
           id="tspan232">Δ</tspan></text><text
         transform="matrix(0,1,1,0,0,0)"
         style="font-variant:normal;font-weight:normal;font-size:7.7px;font-family:Helvetica;-inkscape-font-specification:Helvetica;writing-mode:lr-tb;fill:#000000;fill-opacity:1;fill-rule:nonzero;stroke:none"
         id="text238"
         x="419.64529"
         y="-143.39899"><tspan
           x="419.64529 423.92648"
           y="-143.39899"
           sodipodi:role="line"
           id="tspan236">14</tspan></text><text
         transform="matrix(0,1,1,0,0,0)"
         style="font-variant:normal;font-weight:normal;font-size:11px;font-family:Helvetica;-inkscape-font-specification:Helvetica;writing-mode:lr-tb;fill:#000000;fill-opacity:1;fill-rule:nonzero;stroke:none"
         id="text242"
         x="428.21561"
         y="-137.93805"><tspan
           x="428.21561 436.15759 439.20459 442.86761 453.86761"
           y="-137.93805"
           sodipodi:role="line"
           id="tspan240">C (‰)</tspan></text></g><g
       id="g296"
       transform="translate(229.90671,-269.0236)"><text
         transform="scale(1,-1)"
         style="font-variant:normal;font-weight:normal;font-size:11px;font-family:Helvetica;-inkscape-font-specification:Helvetica;writing-mode:lr-tb;fill:#000000;fill-opacity:1;fill-rule:nonzero;stroke:none"
         id="text280"
         x="116.12444"
         y="-463.5242"><tspan
           x="116.12444 124.67144 130.78745 136.28745 142.40344 146.06647 151.56647 157.68246 163.79846 166.84546 170.50845 176.62445 182.12445 188.24045 190.68246 194.34546 200.46146 203.50845 205.95044 212.06647"
           y="-463.5242"
           sodipodi:role="line"
           id="tspan278">Observed respiration</tspan></text><path
         d="m 128.67529,448.1926 c 0,-5.215 -7.82,-5.215 -7.82,0 0,5.21 7.82,5.21 7.82,0"
         style="fill:#ffc107;fill-opacity:1;fill-rule:nonzero;stroke:none"
         id="path284" /><path
         d="m 128.67529,430.9106 c 0,-5.211 -7.82,-5.211 -7.82,0 0,5.215 7.82,5.215 7.82,0"
         style="fill:none;stroke:#ffc107;stroke-width:1.41732;stroke-linecap:round;stroke-linejoin:round;stroke-miterlimit:10;stroke-dasharray:none;stroke-opacity:1"
         id="path288" /><path
         d="m 120.85529,417.5436 h 7.82 v -7.82 h -7.82 z"
         style="fill:none;stroke:#ffc107;stroke-width:1.41732;stroke-linecap:round;stroke-linejoin:round;stroke-miterlimit:10;stroke-dasharray:none;stroke-opacity:1"
         id="path292" /><g
         aria-label="control
increased fast pool contribution
increased slow pool contribution"
         transform="scale(1,-1)"
         id="text300"
         style="font-variant:normal;font-weight:normal;font-size:8.8px;font-family:Helvetica;-inkscape-font-specification:Helvetica;writing-mode:lr-tb;fill:#000000;fill-opacity:1;fill-rule:nonzero;stroke:none"><g
           id="g510"
           transform="translate(-32.366321,0.53217794)"><path
             d="m 180.22841,-433.05701 q 0.0172,-0.48125 0.16758,-0.70469 0.2707,-0.39531 1.04414,-0.39531 0.073,0 0.15039,0.004 0.0773,0.004 0.17617,0.0129 v 0.70469 q -0.12031,-0.009 -0.17617,-0.009 -0.0516,-0.004 -0.0988,-0.004 -0.35234,0 -0.42109,0.18477 -0.0688,0.18047 -0.0688,0.92812 h 0.76484 v 0.61016 h -0.77343 v 3.97031 h -0.76485 v -3.97031 h -0.64023 v -0.61016 h 0.64023 z"
             id="path371" /><path
             d="m 183.06561,-428.97928 q 0,0.33516 0.24492,0.52852 0.24493,0.19336 0.58008,0.19336 0.40821,0 0.79063,-0.18907 0.64453,-0.31367 0.64453,-1.02695 v -0.62305 q -0.1418,0.0902 -0.36524,0.15039 -0.22343,0.0602 -0.43828,0.0859 l -0.46836,0.0602 q -0.42109,0.0559 -0.63164,0.17617 -0.35664,0.20195 -0.35664,0.64453 z m 1.87344,-1.56406 q 0.26641,-0.0344 0.35664,-0.22344 0.0516,-0.10312 0.0516,-0.29648 0,-0.39532 -0.28359,-0.57149 -0.2793,-0.18047 -0.80352,-0.18047 -0.60586,0 -0.85937,0.32657 -0.1418,0.18047 -0.18477,0.53711 h -0.72187 q 0.0215,-0.85079 0.55,-1.18164 0.53281,-0.33516 1.2332,-0.33516 0.81211,0 1.31914,0.30937 0.50274,0.30938 0.50274,0.9625 v 2.65118 q 0,0.12031 0.0473,0.19336 0.0516,0.073 0.21055,0.073 0.0516,0 0.11601,-0.004 0.0645,-0.009 0.1375,-0.0215 v 0.57149 q -0.18046,0.0516 -0.275,0.0645 -0.0945,0.0129 -0.25781,0.0129 -0.39961,0 -0.58008,-0.28359 -0.0945,-0.1504 -0.1332,-0.4254 -0.23633,0.30938 -0.67891,0.53711 -0.44257,0.22774 -0.97539,0.22774 -0.64023,0 -1.04843,-0.38672 -0.40391,-0.39102 -0.40391,-0.97539 0,-0.64024 0.39961,-0.99258 0.39961,-0.35234 1.04844,-0.43398 z m -0.64023,-1.925 z"
             id="path373" /><path
             d="m 187.82523,-429.19842 q 0.0344,0.38672 0.19336,0.59297 0.29219,0.37383 1.01406,0.37383 0.42969,0 0.75625,-0.18477 0.32657,-0.18906 0.32657,-0.58008 0,-0.29648 -0.26211,-0.45117 -0.16758,-0.0945 -0.66172,-0.21914 l -0.61445,-0.15469 q -0.58868,-0.14609 -0.86797,-0.32656 -0.49844,-0.31367 -0.49844,-0.86797 0,-0.65312 0.46836,-1.05703 0.47265,-0.4039 1.26758,-0.4039 1.03984,0 1.49961,0.61015 0.28789,0.38672 0.27929,0.8336 h -0.73047 q -0.0215,-0.26211 -0.18476,-0.47696 -0.26641,-0.30508 -0.92383,-0.30508 -0.43828,0 -0.66602,0.16758 -0.22343,0.16758 -0.22343,0.44258 0,0.30078 0.29648,0.48125 0.17188,0.10742 0.50703,0.18906 l 0.51133,0.12461 q 0.83359,0.20196 1.11719,0.39102 0.45117,0.29648 0.45117,0.93242 0,0.61445 -0.46836,1.06133 -0.46406,0.44687 -1.41797,0.44687 -1.02695,0 -1.45664,-0.46406 -0.42539,-0.46836 -0.45547,-1.15586 z m 1.14297,-3.26992 z"
             id="path375" /><path
             d="m 191.92015,-433.64139 h 0.78203 v 1.28477 h 0.73476 v 0.63164 h -0.73476 v 3.00351 q 0,0.24063 0.16328,0.32227 0.0902,0.0473 0.30078,0.0473 0.0559,0 0.12031,0 0.0645,-0.004 0.15039,-0.0129 v 0.61016 q -0.1332,0.0387 -0.27929,0.0559 -0.1418,0.0172 -0.30938,0.0172 -0.5414,0 -0.73476,-0.275 -0.19336,-0.2793 -0.19336,-0.72188 v -3.04648 h -0.62305 v -0.63164 h 0.62305 z"
             id="path377" /><path
             d="m 198.58283,-428.27459 q 0.54141,0 0.89805,-0.45117 0.36094,-0.45547 0.36094,-1.35782 0,-0.55 -0.15899,-0.94531 -0.30078,-0.76054 -1.1,-0.76054 -0.80351,0 -1.1,0.80351 -0.15898,0.42969 -0.15898,1.09141 0,0.53281 0.15898,0.90664 0.30078,0.71328 1.1,0.71328 z m -2.00234,-4.06055 h 0.75195 v 0.61016 q 0.23203,-0.31367 0.50703,-0.48555 0.39102,-0.25781 0.91953,-0.25781 0.78203,0 1.32774,0.60156 0.5457,0.59727 0.5457,1.71016 0,1.5039 -0.78633,2.14844 -0.49844,0.4082 -1.16015,0.4082 -0.51993,0 -0.87227,-0.22774 -0.20625,-0.1289 -0.45977,-0.44257 v 2.35039 h -0.77343 z"
             id="path379" /><path
             d="m 203.35964,-428.25311 q 0.76914,0 1.05273,-0.58007 0.28789,-0.58438 0.28789,-1.29766 0,-0.64453 -0.20625,-1.04844 -0.32656,-0.63594 -1.12578,-0.63594 -0.70898,0 -1.03125,0.54141 -0.32226,0.54141 -0.32226,1.30625 0,0.73477 0.32226,1.22461 0.32227,0.48984 1.02266,0.48984 z m 0.0301,-4.23672 q 0.88945,0 1.5039,0.59297 0.61446,0.59297 0.61446,1.74453 0,1.1129 -0.54141,1.83907 -0.54141,0.72617 -1.68008,0.72617 -0.94961,0 -1.5082,-0.64024 -0.5586,-0.64453 -0.5586,-1.72734 0,-1.16016 0.58868,-1.84766 0.58867,-0.6875 1.58125,-0.6875 z m -0.0258,0.0215 z"
             id="path381" /><path
             d="m 208.22603,-428.25311 q 0.76914,0 1.05274,-0.58007 0.28789,-0.58438 0.28789,-1.29766 0,-0.64453 -0.20625,-1.04844 -0.32657,-0.63594 -1.12578,-0.63594 -0.70899,0 -1.03125,0.54141 -0.32227,0.54141 -0.32227,1.30625 0,0.73477 0.32227,1.22461 0.32226,0.48984 1.02265,0.48984 z m 0.0301,-4.23672 q 0.88945,0 1.50391,0.59297 0.61445,0.59297 0.61445,1.74453 0,1.1129 -0.54141,1.83907 -0.5414,0.72617 -1.68008,0.72617 -0.9496,0 -1.5082,-0.64024 -0.55859,-0.64453 -0.55859,-1.72734 0,-1.16016 0.58867,-1.84766 0.58867,-0.6875 1.58125,-0.6875 z m -0.0258,0.0215 z"
             id="path383" /><path
             d="m 211.31414,-434.06678 h 0.77343 v 6.31211 h -0.77343 z"
             id="path385" /><path
             d="m 217.45847,-432.48983 q 0.77773,0 1.26328,0.37813 0.48984,0.37812 0.58867,1.30195 h -0.75195 q -0.0687,-0.42539 -0.31368,-0.70468 -0.24492,-0.2836 -0.78632,-0.2836 -0.73907,0 -1.05704,0.72188 -0.20625,0.46836 -0.20625,1.15586 0,0.69179 0.29219,1.16445 0.29219,0.47266 0.91953,0.47266 0.48125,0 0.76055,-0.29219 0.28359,-0.29649 0.39102,-0.80781 h 0.75195 q -0.12891,0.91523 -0.64453,1.34062 -0.51563,0.42109 -1.31914,0.42109 -0.90235,0 -1.43946,-0.65742 -0.53711,-0.66172 -0.53711,-1.65 0,-1.21172 0.58868,-1.88633 0.58867,-0.67461 1.49961,-0.67461 z m -0.12032,0.0215 z"
             id="path387" /><path
             d="m 221.91002,-428.25311 q 0.76914,0 1.05274,-0.58007 0.28789,-0.58438 0.28789,-1.29766 0,-0.64453 -0.20625,-1.04844 -0.32657,-0.63594 -1.12578,-0.63594 -0.70899,0 -1.03125,0.54141 -0.32227,0.54141 -0.32227,1.30625 0,0.73477 0.32227,1.22461 0.32226,0.48984 1.02265,0.48984 z m 0.0301,-4.23672 q 0.88945,0 1.50391,0.59297 0.61445,0.59297 0.61445,1.74453 0,1.1129 -0.54141,1.83907 -0.5414,0.72617 -1.68007,0.72617 -0.94961,0 -1.50821,-0.64024 -0.55859,-0.64453 -0.55859,-1.72734 0,-1.16016 0.58867,-1.84766 0.58867,-0.6875 1.58125,-0.6875 z m -0.0258,0.0215 z"
             id="path389" /><path
             d="m 224.97664,-432.35662 h 0.73477 v 0.65312 q 0.32656,-0.4039 0.69179,-0.58008 0.36524,-0.17617 0.81211,-0.17617 0.97969,0 1.32344,0.68321 0.18906,0.37382 0.18906,1.06992 v 2.95195 h -0.78632 v -2.90039 q 0,-0.42109 -0.12461,-0.67891 -0.20625,-0.42968 -0.74766,-0.42968 -0.275,0 -0.45117,0.0559 -0.31797,0.0945 -0.5586,0.37812 -0.19335,0.22774 -0.25351,0.47266 -0.0559,0.24062 -0.0559,0.69179 v 2.41055 h -0.77344 z m 1.81758,-0.11172 z"
             id="path391" /><path
             d="m 230.02415,-433.64139 h 0.78203 v 1.28477 h 0.73477 v 0.63164 h -0.73477 v 3.00351 q 0,0.24063 0.16328,0.32227 0.0902,0.0473 0.30079,0.0473 0.0558,0 0.12031,0 0.0644,-0.004 0.15039,-0.0129 v 0.61016 q -0.1332,0.0387 -0.2793,0.0559 -0.1418,0.0172 -0.30937,0.0172 -0.54141,0 -0.73477,-0.275 -0.19336,-0.2793 -0.19336,-0.72188 v -3.04648 h -0.62305 v -0.63164 h 0.62305 z"
             id="path393" /><path
             d="m 232.32854,-432.35662 h 0.73477 v 0.79492 q 0.0902,-0.23203 0.44257,-0.56289 0.35235,-0.33516 0.81211,-0.33516 0.0215,0 0.073,0.004 0.0516,0.004 0.17617,0.0172 v 0.8164 q -0.0687,-0.0129 -0.1289,-0.0172 -0.0559,-0.004 -0.12461,-0.004 -0.58438,0 -0.89805,0.37812 -0.31367,0.37383 -0.31367,0.86368 v 2.64687 h -0.77344 z"
             id="path395" /><path
             d="m 235.23745,-432.33514 h 0.78632 v 4.58047 h -0.78632 z m 0,-1.73164 h 0.78632 v 0.87656 h -0.78632 z"
             id="path397" /><path
             d="m 237.1309,-434.08826 h 0.75196 v 2.29023 q 0.25351,-0.33086 0.60585,-0.50273 0.35235,-0.17617 0.76485,-0.17617 0.85937,0 1.39219,0.59296 0.53711,0.58868 0.53711,1.74024 0,1.0914 -0.52852,1.81328 -0.52852,0.72187 -1.46523,0.72187 -0.52422,0 -0.88516,-0.25351 -0.21484,-0.15039 -0.45977,-0.48125 v 0.58867 h -0.71328 z m 2.01094,5.79648 q 0.62734,0 0.93672,-0.49844 0.31367,-0.49843 0.31367,-1.31484 0,-0.72617 -0.31367,-1.20312 -0.30938,-0.47696 -0.91524,-0.47696 -0.52851,0 -0.92812,0.39102 -0.39531,0.39101 -0.39531,1.28906 0,0.64883 0.16328,1.05273 0.30508,0.76055 1.13867,0.76055 z"
             id="path399" /><path
             d="m 242.85729,-432.35662 v 3.05508 q 0,0.35234 0.11172,0.57578 0.20625,0.4125 0.76914,0.4125 0.80781,0 1.1,-0.72188 0.15898,-0.38672 0.15898,-1.06133 v -2.26015 h 0.77344 v 4.60195 h -0.73047 l 0.009,-0.67891 q -0.15039,0.26211 -0.37382,0.44258 -0.44258,0.36094 -1.07422,0.36094 -0.98399,0 -1.34063,-0.65742 -0.19336,-0.35235 -0.19336,-0.94102 v -3.12812 z m 1.06133,-0.11172 z"
             id="path401" /><path
             d="m 247.13133,-433.64139 h 0.78203 v 1.28477 h 0.73477 v 0.63164 h -0.73477 v 3.00351 q 0,0.24063 0.16328,0.32227 0.0902,0.0473 0.30078,0.0473 0.0559,0 0.12032,0 0.0644,-0.004 0.15039,-0.0129 v 0.61016 q -0.13321,0.0387 -0.2793,0.0559 -0.1418,0.0172 -0.30938,0.0172 -0.5414,0 -0.73476,-0.275 -0.19336,-0.2793 -0.19336,-0.72188 v -3.04648 h -0.62305 v -0.63164 h 0.62305 z"
             id="path403" /><path
             d="m 249.41426,-432.33514 h 0.78633 v 4.58047 h -0.78633 z m 0,-1.73164 h 0.78633 v 0.87656 h -0.78633 z"
             id="path405" /><path
             d="m 253.19402,-428.25311 q 0.76914,0 1.05273,-0.58007 0.28789,-0.58438 0.28789,-1.29766 0,-0.64453 -0.20625,-1.04844 -0.32656,-0.63594 -1.12578,-0.63594 -0.70898,0 -1.03125,0.54141 -0.32226,0.54141 -0.32226,1.30625 0,0.73477 0.32226,1.22461 0.32227,0.48984 1.02266,0.48984 z m 0.0301,-4.23672 q 0.88945,0 1.5039,0.59297 0.61446,0.59297 0.61446,1.74453 0,1.1129 -0.54141,1.83907 -0.54141,0.72617 -1.68008,0.72617 -0.94961,0 -1.5082,-0.64024 -0.5586,-0.64453 -0.5586,-1.72734 0,-1.16016 0.58868,-1.84766 0.58867,-0.6875 1.58125,-0.6875 z m -0.0258,0.0215 z"
             id="path407" /><path
             d="m 256.26067,-432.35662 h 0.73476 v 0.65312 q 0.32657,-0.4039 0.6918,-0.58008 0.36524,-0.17617 0.81211,-0.17617 0.97969,0 1.32344,0.68321 0.18906,0.37382 0.18906,1.06992 v 2.95195 h -0.78633 v -2.90039 q 0,-0.42109 -0.12461,-0.67891 -0.20625,-0.42968 -0.74765,-0.42968 -0.275,0 -0.45117,0.0559 -0.31797,0.0945 -0.5586,0.37812 -0.19336,0.22774 -0.25351,0.47266 -0.0559,0.24062 -0.0559,0.69179 v 2.41055 h -0.77344 z m 1.81758,-0.11172 z"
             id="path409" /><path
             d="m 180.49482,-411.91717 q 0.0344,0.38672 0.19336,0.59297 0.29219,0.37383 1.01406,0.37383 0.42969,0 0.75625,-0.18477 0.32656,-0.18906 0.32656,-0.58008 0,-0.29648 -0.26211,-0.45117 -0.16757,-0.0945 -0.66172,-0.21914 l -0.61445,-0.15469 q -0.58867,-0.14609 -0.86797,-0.32656 -0.49844,-0.31367 -0.49844,-0.86797 0,-0.65312 0.46836,-1.05703 0.47266,-0.4039 1.26758,-0.4039 1.03985,0 1.49961,0.61015 0.28789,0.38672 0.2793,0.8336 h -0.73047 q -0.0215,-0.26211 -0.18477,-0.47696 -0.2664,-0.30508 -0.92382,-0.30508 -0.43828,0 -0.66602,0.16758 -0.22344,0.16758 -0.22344,0.44258 0,0.30078 0.29649,0.48125 0.17187,0.10742 0.50703,0.18906 l 0.51133,0.12461 q 0.83359,0.20196 1.11718,0.39102 0.45118,0.29648 0.45118,0.93242 0,0.61445 -0.46836,1.06133 -0.46407,0.44687 -1.41797,0.44687 -1.02695,0 -1.45664,-0.46406 -0.42539,-0.46836 -0.45547,-1.15586 z m 1.14297,-3.26992 z"
             id="path429" /><path
             d="m 184.45653,-416.78553 h 0.77344 v 6.31211 h -0.77344 z"
             id="path431" /><path
             d="m 188.21483,-410.97186 q 0.76914,0 1.05274,-0.58007 0.28789,-0.58438 0.28789,-1.29766 0,-0.64453 -0.20625,-1.04844 -0.32657,-0.63594 -1.12578,-0.63594 -0.70899,0 -1.03125,0.54141 -0.32227,0.54141 -0.32227,1.30625 0,0.73477 0.32227,1.22461 0.32226,0.48984 1.02265,0.48984 z m 0.0301,-4.23672 q 0.88945,0 1.50391,0.59297 0.61445,0.59297 0.61445,1.74453 0,1.1129 -0.54141,1.83907 -0.5414,0.72617 -1.68008,0.72617 -0.9496,0 -1.5082,-0.64024 -0.55859,-0.64453 -0.55859,-1.72734 0,-1.16016 0.58867,-1.84766 0.58867,-0.6875 1.58125,-0.6875 z m -0.0258,0.0215 z"
             id="path433" /><path
             d="m 191.63809,-415.07537 0.88516,3.62656 0.89805,-3.62656 h 0.86796 l 0.90235,3.60508 0.94101,-3.60508 h 0.77344 l -1.33633,4.60195 h -0.80351 l -0.93672,-3.56211 -0.90664,3.56211 h -0.80352 l -1.32773,-4.60195 z"
             id="path435" /><path
             d="m 202.01484,-410.99334 q 0.5414,0 0.89804,-0.45117 0.36094,-0.45547 0.36094,-1.35782 0,-0.55 -0.15898,-0.94531 -0.30078,-0.76054 -1.1,-0.76054 -0.80352,0 -1.1,0.80351 -0.15899,0.42969 -0.15899,1.09141 0,0.53281 0.15899,0.90664 0.30078,0.71328 1.1,0.71328 z m -2.00235,-4.06055 h 0.75196 v 0.61016 q 0.23203,-0.31367 0.50703,-0.48555 0.39101,-0.25781 0.91953,-0.25781 0.78203,0 1.32773,0.60156 0.54571,0.59727 0.54571,1.71016 0,1.5039 -0.78633,2.14844 -0.49844,0.4082 -1.16016,0.4082 -0.51992,0 -0.87226,-0.22774 -0.20625,-0.1289 -0.45977,-0.44257 v 2.35039 h -0.77344 z"
             id="path437" /><path
             d="m 206.76522,-410.97186 q 0.76914,0 1.05273,-0.58007 0.28789,-0.58438 0.28789,-1.29766 0,-0.64453 -0.20625,-1.04844 -0.32656,-0.63594 -1.12578,-0.63594 -0.70898,0 -1.03125,0.54141 -0.32227,0.54141 -0.32227,1.30625 0,0.73477 0.32227,1.22461 0.32227,0.48984 1.02266,0.48984 z m 0.0301,-4.23672 q 0.88946,0 1.50391,0.59297 0.61445,0.59297 0.61445,1.74453 0,1.1129 -0.5414,1.83907 -0.54141,0.72617 -1.68008,0.72617 -0.94961,0 -1.5082,-0.64024 -0.5586,-0.64453 -0.5586,-1.72734 0,-1.16016 0.58867,-1.84766 0.58868,-0.6875 1.58125,-0.6875 z m -0.0258,0.0215 z"
             id="path439" /><path
             d="m 211.65804,-410.97186 q 0.76914,0 1.05273,-0.58007 0.28789,-0.58438 0.28789,-1.29766 0,-0.64453 -0.20625,-1.04844 -0.32656,-0.63594 -1.12578,-0.63594 -0.70898,0 -1.03125,0.54141 -0.32226,0.54141 -0.32226,1.30625 0,0.73477 0.32226,1.22461 0.32227,0.48984 1.02266,0.48984 z m 0.0301,-4.23672 q 0.88945,0 1.5039,0.59297 0.61446,0.59297 0.61446,1.74453 0,1.1129 -0.54141,1.83907 -0.54141,0.72617 -1.68008,0.72617 -0.94961,0 -1.5082,-0.64024 -0.5586,-0.64453 -0.5586,-1.72734 0,-1.16016 0.58868,-1.84766 0.58867,-0.6875 1.58125,-0.6875 z m -0.0258,0.0215 z"
             id="path441" /><path
             d="m 214.74614,-416.78553 h 0.77344 v 6.31211 h -0.77344 z"
             id="path443" /><path
             d="m 220.89047,-415.20858 q 0.77774,0 1.26328,0.37813 0.48985,0.37812 0.58868,1.30195 h -0.75196 q -0.0687,-0.42539 -0.31367,-0.70468 -0.24492,-0.2836 -0.78633,-0.2836 -0.73906,0 -1.05703,0.72188 -0.20625,0.46836 -0.20625,1.15586 0,0.69179 0.29219,1.16445 0.29219,0.47266 0.91953,0.47266 0.48125,0 0.76055,-0.29219 0.28359,-0.29649 0.39101,-0.80781 h 0.75196 q -0.12891,0.91523 -0.64454,1.34062 -0.51562,0.42109 -1.31914,0.42109 -0.90234,0 -1.43945,-0.65742 -0.53711,-0.66172 -0.53711,-1.65 0,-1.21172 0.58867,-1.88633 0.58867,-0.67461 1.49961,-0.67461 z m -0.12031,0.0215 z"
             id="path445" /><path
             d="m 225.34203,-410.97186 q 0.76914,0 1.05273,-0.58007 0.28789,-0.58438 0.28789,-1.29766 0,-0.64453 -0.20625,-1.04844 -0.32656,-0.63594 -1.12578,-0.63594 -0.70898,0 -1.03125,0.54141 -0.32226,0.54141 -0.32226,1.30625 0,0.73477 0.32226,1.22461 0.32227,0.48984 1.02266,0.48984 z m 0.0301,-4.23672 q 0.88945,0 1.5039,0.59297 0.61446,0.59297 0.61446,1.74453 0,1.1129 -0.54141,1.83907 -0.54141,0.72617 -1.68008,0.72617 -0.94961,0 -1.5082,-0.64024 -0.55859,-0.64453 -0.55859,-1.72734 0,-1.16016 0.58867,-1.84766 0.58867,-0.6875 1.58125,-0.6875 z m -0.0258,0.0215 z"
             id="path447" /><path
             d="m 228.40865,-415.07537 h 0.73476 v 0.65312 q 0.32657,-0.4039 0.6918,-0.58008 0.36524,-0.17617 0.81211,-0.17617 0.97969,0 1.32344,0.68321 0.18906,0.37382 0.18906,1.06992 v 2.95195 h -0.78633 v -2.90039 q 0,-0.42109 -0.12461,-0.67891 -0.20625,-0.42968 -0.74765,-0.42968 -0.275,0 -0.45118,0.0559 -0.31796,0.0945 -0.55859,0.37812 -0.19336,0.22774 -0.25351,0.47266 -0.0559,0.24062 -0.0559,0.69179 v 2.41055 h -0.77344 z m 1.81758,-0.11172 z"
             id="path449" /><path
             d="m 233.45613,-416.36014 h 0.78203 v 1.28477 h 0.73476 v 0.63164 h -0.73476 v 3.00351 q 0,0.24063 0.16328,0.32227 0.0902,0.0473 0.30078,0.0473 0.0559,0 0.12031,0 0.0645,-0.004 0.15039,-0.0129 v 0.61016 q -0.1332,0.0387 -0.27929,0.0559 -0.1418,0.0172 -0.30938,0.0172 -0.5414,0 -0.73476,-0.275 -0.19336,-0.2793 -0.19336,-0.72188 v -3.04648 h -0.62305 v -0.63164 h 0.62305 z"
             id="path451" /><path
             d="m 235.76055,-415.07537 h 0.73476 v 0.79492 q 0.0902,-0.23203 0.44258,-0.56289 0.35234,-0.33516 0.81211,-0.33516 0.0215,0 0.073,0.004 0.0516,0.004 0.17617,0.0172 v 0.8164 q -0.0687,-0.0129 -0.12891,-0.0172 -0.0559,-0.004 -0.12461,-0.004 -0.58437,0 -0.89804,0.37812 -0.31368,0.37383 -0.31368,0.86368 v 2.64687 h -0.77343 z"
             id="path453" /><path
             d="m 238.66945,-415.05389 h 0.78633 v 4.58047 h -0.78633 z m 0,-1.73164 h 0.78633 v 0.87656 h -0.78633 z"
             id="path455" /><path
             d="m 240.56291,-416.80701 h 0.75195 v 2.29023 q 0.25352,-0.33086 0.60586,-0.50273 0.35235,-0.17617 0.76485,-0.17617 0.85937,0 1.39218,0.59296 0.53711,0.58868 0.53711,1.74024 0,1.0914 -0.52851,1.81328 -0.52852,0.72187 -1.46524,0.72187 -0.52422,0 -0.88515,-0.25351 -0.21485,-0.15039 -0.45977,-0.48125 v 0.58867 h -0.71328 z m 2.01094,5.79648 q 0.62734,0 0.93672,-0.49844 0.31367,-0.49843 0.31367,-1.31484 0,-0.72617 -0.31367,-1.20312 -0.30938,-0.47696 -0.91524,-0.47696 -0.52851,0 -0.92812,0.39102 -0.39532,0.39101 -0.39532,1.28906 0,0.64883 0.16328,1.05273 0.30508,0.76055 1.13868,0.76055 z"
             id="path457" /><path
             d="m 246.28929,-415.07537 v 3.05508 q 0,0.35234 0.11172,0.57578 0.20625,0.4125 0.76914,0.4125 0.80782,0 1.1,-0.72188 0.15899,-0.38672 0.15899,-1.06133 v -2.26015 h 0.77344 v 4.60195 h -0.73047 l 0.009,-0.67891 q -0.15039,0.26211 -0.37383,0.44258 -0.44258,0.36094 -1.07422,0.36094 -0.98398,0 -1.34062,-0.65742 -0.19336,-0.35235 -0.19336,-0.94102 v -3.12812 z m 1.06133,-0.11172 z"
             id="path459" /><path
             d="m 250.56334,-416.36014 h 0.78203 v 1.28477 h 0.73476 v 0.63164 h -0.73476 v 3.00351 q 0,0.24063 0.16328,0.32227 0.0902,0.0473 0.30078,0.0473 0.0559,0 0.12031,0 0.0645,-0.004 0.15039,-0.0129 v 0.61016 q -0.1332,0.0387 -0.27929,0.0559 -0.1418,0.0172 -0.30938,0.0172 -0.54141,0 -0.73476,-0.275 -0.19336,-0.2793 -0.19336,-0.72188 v -3.04648 h -0.62305 v -0.63164 h 0.62305 z"
             id="path461" /><path
             d="m 252.84624,-415.05389 h 0.78633 v 4.58047 h -0.78633 z m 0,-1.73164 h 0.78633 v 0.87656 h -0.78633 z"
             id="path463" /><path
             d="m 256.62603,-410.97186 q 0.76914,0 1.05273,-0.58007 0.28789,-0.58438 0.28789,-1.29766 0,-0.64453 -0.20625,-1.04844 -0.32656,-0.63594 -1.12578,-0.63594 -0.70899,0 -1.03125,0.54141 -0.32227,0.54141 -0.32227,1.30625 0,0.73477 0.32227,1.22461 0.32226,0.48984 1.02266,0.48984 z m 0.0301,-4.23672 q 0.88946,0 1.50391,0.59297 0.61445,0.59297 0.61445,1.74453 0,1.1129 -0.5414,1.83907 -0.54141,0.72617 -1.68008,0.72617 -0.94961,0 -1.5082,-0.64024 -0.5586,-0.64453 -0.5586,-1.72734 0,-1.16016 0.58867,-1.84766 0.58868,-0.6875 1.58125,-0.6875 z m -0.0258,0.0215 z"
             id="path465" /><path
             d="m 259.69265,-415.07537 h 0.73476 v 0.65312 q 0.32656,-0.4039 0.6918,-0.58008 0.36523,-0.17617 0.81211,-0.17617 0.97968,0 1.32343,0.68321 0.18907,0.37382 0.18907,1.06992 v 2.95195 h -0.78633 v -2.90039 q 0,-0.42109 -0.12461,-0.67891 -0.20625,-0.42968 -0.74766,-0.42968 -0.275,0 -0.45117,0.0559 -0.31797,0.0945 -0.55859,0.37812 -0.19336,0.22774 -0.25352,0.47266 -0.0559,0.24062 -0.0559,0.69179 v 2.41055 h -0.77343 z m 1.81757,-0.11172 z"
             id="path467" /></g><path
           d="m 141.22406,-449.77108 q 0.77773,0 1.26328,0.37813 0.48985,0.37812 0.58867,1.30195 h -0.75195 q -0.0687,-0.42539 -0.31367,-0.70468 -0.24492,-0.2836 -0.78633,-0.2836 -0.73906,0 -1.05703,0.72188 -0.20625,0.46836 -0.20625,1.15586 0,0.69179 0.29219,1.16445 0.29218,0.47266 0.91953,0.47266 0.48125,0 0.76054,-0.29219 0.2836,-0.29649 0.39102,-0.80781 h 0.75195 q -0.1289,0.91523 -0.64453,1.34062 -0.51562,0.42109 -1.31914,0.42109 -0.90234,0 -1.43945,-0.65742 -0.53711,-0.66172 -0.53711,-1.65 0,-1.21172 0.58867,-1.88633 0.58867,-0.67461 1.49961,-0.67461 z m -0.12031,0.0215 z"
           id="path339" /><path
           d="m 145.67562,-445.53436 q 0.76914,0 1.05273,-0.58007 0.28789,-0.58438 0.28789,-1.29766 0,-0.64453 -0.20625,-1.04844 -0.32656,-0.63594 -1.12578,-0.63594 -0.70898,0 -1.03125,0.54141 -0.32227,0.54141 -0.32227,1.30625 0,0.73477 0.32227,1.22461 0.32227,0.48984 1.02266,0.48984 z m 0.0301,-4.23672 q 0.88946,0 1.50391,0.59297 0.61445,0.59297 0.61445,1.74453 0,1.1129 -0.5414,1.83907 -0.54141,0.72617 -1.68008,0.72617 -0.94961,0 -1.5082,-0.64024 -0.5586,-0.64453 -0.5586,-1.72734 0,-1.16016 0.58867,-1.84766 0.58868,-0.6875 1.58125,-0.6875 z m -0.0258,0.0215 z"
           id="path341" /><path
           d="m 148.74227,-449.63787 h 0.73476 v 0.65312 q 0.32657,-0.4039 0.6918,-0.58008 0.36523,-0.17617 0.81211,-0.17617 0.97969,0 1.32344,0.68321 0.18906,0.37382 0.18906,1.06992 v 2.95195 h -0.78633 v -2.90039 q 0,-0.42109 -0.12461,-0.67891 -0.20625,-0.42968 -0.74765,-0.42968 -0.275,0 -0.45118,0.0559 -0.31797,0.0945 -0.55859,0.37812 -0.19336,0.22774 -0.25352,0.47266 -0.0559,0.24062 -0.0559,0.69179 v 2.41055 h -0.77343 z m 1.81758,-0.11172 z"
           id="path343" /><path
           d="m 153.78975,-450.92264 h 0.78203 v 1.28477 h 0.73476 v 0.63164 h -0.73476 v 3.00351 q 0,0.24063 0.16328,0.32227 0.0902,0.0473 0.30078,0.0473 0.0559,0 0.12031,0 0.0645,-0.004 0.15039,-0.0129 v 0.61016 q -0.1332,0.0387 -0.27929,0.0559 -0.1418,0.0172 -0.30938,0.0172 -0.54141,0 -0.73476,-0.275 -0.19336,-0.2793 -0.19336,-0.72188 v -3.04648 h -0.62305 v -0.63164 h 0.62305 z"
           id="path345" /><path
           d="m 156.09413,-449.63787 h 0.73477 v 0.79492 q 0.0902,-0.23203 0.44258,-0.56289 0.35234,-0.33516 0.81211,-0.33516 0.0215,0 0.073,0.004 0.0516,0.004 0.17618,0.0172 v 0.8164 q -0.0687,-0.0129 -0.12891,-0.0172 -0.0559,-0.004 -0.12461,-0.004 -0.58437,0 -0.89805,0.37812 -0.31367,0.37383 -0.31367,0.86368 v 2.64687 h -0.77344 z"
           id="path347" /><path
           d="m 160.82921,-445.53436 q 0.76914,0 1.05274,-0.58007 0.28789,-0.58438 0.28789,-1.29766 0,-0.64453 -0.20625,-1.04844 -0.32657,-0.63594 -1.12578,-0.63594 -0.70899,0 -1.03125,0.54141 -0.32227,0.54141 -0.32227,1.30625 0,0.73477 0.32227,1.22461 0.32226,0.48984 1.02265,0.48984 z m 0.0301,-4.23672 q 0.88945,0 1.50391,0.59297 0.61445,0.59297 0.61445,1.74453 0,1.1129 -0.54141,1.83907 -0.5414,0.72617 -1.68008,0.72617 -0.9496,0 -1.5082,-0.64024 -0.55859,-0.64453 -0.55859,-1.72734 0,-1.16016 0.58867,-1.84766 0.58867,-0.6875 1.58125,-0.6875 z m -0.0258,0.0215 z"
           id="path349" /><path
           d="m 163.91735,-451.34803 h 0.77343 v 6.31211 h -0.77343 z"
           id="path351" /><g
           id="g2126"
           transform="matrix(1.3352551,0,0,1.0357773,-46.623429,15.267392)"><path
             style="color:#000000;font-style:normal;font-variant:normal;font-weight:normal;font-stretch:normal;font-size:medium;line-height:normal;font-family:Helvetica;-inkscape-font-specification:Helvetica;font-variant-ligatures:normal;font-variant-position:normal;font-variant-caps:normal;font-variant-numeric:normal;font-variant-alternates:normal;font-variant-east-asian:normal;font-feature-settings:normal;font-variation-settings:normal;text-indent:0;text-align:start;text-decoration:none;text-decoration-line:none;text-decoration-style:solid;text-decoration-color:#000000;letter-spacing:normal;word-spacing:normal;text-transform:none;writing-mode:lr-tb;direction:ltr;text-orientation:mixed;dominant-baseline:auto;baseline-shift:baseline;text-anchor:start;white-space:normal;shape-padding:0;shape-margin:0;inline-size:0;clip-rule:nonzero;display:inline;overflow:visible;visibility:visible;isolation:auto;mix-blend-mode:normal;color-interpolation:sRGB;color-interpolation-filters:linearRGB;solid-color:#000000;solid-opacity:1;vector-effect:none;fill:#000000;fill-opacity:1;fill-rule:nonzero;stroke:none;stroke-width:0.593507;stroke-linecap:butt;stroke-linejoin:miter;stroke-miterlimit:4;stroke-dasharray:none;stroke-dashoffset:0;stroke-opacity:1;color-rendering:auto;image-rendering:auto;shape-rendering:auto;text-rendering:auto;enable-background:accumulate;stop-color:#000000"
             d="m 140.41016,-432.94336 v 6.20898 h 0.93933 v -6.20898 z"
             id="path2114" /><g
             id="g2104"
             transform="translate(0.26224697,-0.5996488)"><g
               id="g2108"
               style="opacity:1"><path
                 style="color:#000000;font-style:normal;font-variant:normal;font-weight:normal;font-stretch:normal;font-size:medium;line-height:normal;font-family:Helvetica;-inkscape-font-specification:Helvetica;font-variant-ligatures:normal;font-variant-position:normal;font-variant-caps:normal;font-variant-numeric:normal;font-variant-alternates:normal;font-variant-east-asian:normal;font-feature-settings:normal;font-variation-settings:normal;text-indent:0;text-align:start;text-decoration:none;text-decoration-line:none;text-decoration-style:solid;text-decoration-color:#000000;letter-spacing:normal;word-spacing:normal;text-transform:none;writing-mode:lr-tb;direction:ltr;text-orientation:mixed;dominant-baseline:auto;baseline-shift:baseline;text-anchor:start;white-space:normal;shape-padding:0;shape-margin:0;inline-size:0;clip-rule:nonzero;display:inline;overflow:visible;visibility:visible;isolation:auto;mix-blend-mode:normal;color-interpolation:sRGB;color-interpolation-filters:linearRGB;solid-color:#000000;solid-opacity:1;vector-effect:none;fill:#000000;fill-opacity:1;fill-rule:evenodd;stroke:none;stroke-width:0.257812;stroke-linecap:butt;stroke-linejoin:round;stroke-miterlimit:4;stroke-dasharray:none;stroke-dashoffset:0;stroke-opacity:1;color-rendering:auto;image-rendering:auto;shape-rendering:auto;text-rendering:auto;enable-background:accumulate;stop-color:#000000;stop-opacity:1"
                 d="m 138.9345,-428.93538 1.65731,-4.50693 1.65731,4.50693 c -0.97847,-0.72002 -2.31719,-0.71587 -3.31462,0 z"
                 id="path2110" /><path
                 style="color:#000000;font-style:normal;font-variant:normal;font-weight:normal;font-stretch:normal;font-size:medium;line-height:normal;font-family:Helvetica;-inkscape-font-specification:Helvetica;font-variant-ligatures:normal;font-variant-position:normal;font-variant-caps:normal;font-variant-numeric:normal;font-variant-alternates:normal;font-variant-east-asian:normal;font-feature-settings:normal;font-variation-settings:normal;text-indent:0;text-align:start;text-decoration:none;text-decoration-line:none;text-decoration-style:solid;text-decoration-color:#000000;letter-spacing:normal;word-spacing:normal;text-transform:none;writing-mode:lr-tb;direction:ltr;text-orientation:mixed;dominant-baseline:auto;baseline-shift:baseline;text-anchor:start;white-space:normal;shape-padding:0;shape-margin:0;inline-size:0;clip-rule:nonzero;display:inline;overflow:visible;visibility:visible;isolation:auto;mix-blend-mode:normal;color-interpolation:sRGB;color-interpolation-filters:linearRGB;solid-color:#000000;solid-opacity:1;vector-effect:none;fill:#000000;fill-opacity:1;fill-rule:evenodd;stroke:none;stroke-width:0.257812;stroke-linecap:butt;stroke-linejoin:round;stroke-miterlimit:4;stroke-dasharray:none;stroke-dashoffset:0;stroke-opacity:1;color-rendering:auto;image-rendering:auto;shape-rendering:auto;text-rendering:auto;enable-background:accumulate;stop-color:#000000;stop-opacity:1"
                 d="m 140.59766,-433.57031 a 0.12891889,0.12891889 0 0 0 -0.12696,0.084 l -1.65625,4.50586 a 0.12891889,0.12891889 0 0 0 0.19532,0.15039 c 0.95323,-0.68415 2.22903,-0.68856 3.16211,-0.002 a 0.12891889,0.12891889 0 0 0 0.19726,-0.14844 l -1.65625,-4.50586 a 0.12891889,0.12891889 0 0 0 -0.11523,-0.084 z m -0.006,0.50195 1.44726,3.93555 c -0.90292,-0.52383 -1.97987,-0.52249 -2.89453,0 z"
                 id="path2112" /></g></g></g><g
           id="g2150"
           transform="matrix(1.3352551,0,0,1.0357773,-46.490414,32.692346)"><path
             style="color:#000000;font-style:normal;font-variant:normal;font-weight:normal;font-stretch:normal;font-size:medium;line-height:normal;font-family:Helvetica;-inkscape-font-specification:Helvetica;font-variant-ligatures:normal;font-variant-position:normal;font-variant-caps:normal;font-variant-numeric:normal;font-variant-alternates:normal;font-variant-east-asian:normal;font-feature-settings:normal;font-variation-settings:normal;text-indent:0;text-align:start;text-decoration:none;text-decoration-line:none;text-decoration-style:solid;text-decoration-color:#000000;letter-spacing:normal;word-spacing:normal;text-transform:none;writing-mode:lr-tb;direction:ltr;text-orientation:mixed;dominant-baseline:auto;baseline-shift:baseline;text-anchor:start;white-space:normal;shape-padding:0;shape-margin:0;inline-size:0;clip-rule:nonzero;display:inline;overflow:visible;visibility:visible;isolation:auto;mix-blend-mode:normal;color-interpolation:sRGB;color-interpolation-filters:linearRGB;solid-color:#000000;solid-opacity:1;vector-effect:none;fill:#000000;fill-opacity:1;fill-rule:nonzero;stroke:none;stroke-width:0.593507;stroke-linecap:butt;stroke-linejoin:miter;stroke-miterlimit:4;stroke-dasharray:none;stroke-dashoffset:0;stroke-opacity:1;color-rendering:auto;image-rendering:auto;shape-rendering:auto;text-rendering:auto;enable-background:accumulate;stop-color:#000000"
             d="m 140.41016,-432.94336 v 6.20898 h 0.93933 v -6.20898 z"
             id="path2140" /><g
             id="g2148"
             transform="translate(0.26224697,-0.5996488)"><g
               id="g2146"
               style="opacity:1"><path
                 style="color:#000000;font-style:normal;font-variant:normal;font-weight:normal;font-stretch:normal;font-size:medium;line-height:normal;font-family:Helvetica;-inkscape-font-specification:Helvetica;font-variant-ligatures:normal;font-variant-position:normal;font-variant-caps:normal;font-variant-numeric:normal;font-variant-alternates:normal;font-variant-east-asian:normal;font-feature-settings:normal;font-variation-settings:normal;text-indent:0;text-align:start;text-decoration:none;text-decoration-line:none;text-decoration-style:solid;text-decoration-color:#000000;letter-spacing:normal;word-spacing:normal;text-transform:none;writing-mode:lr-tb;direction:ltr;text-orientation:mixed;dominant-baseline:auto;baseline-shift:baseline;text-anchor:start;white-space:normal;shape-padding:0;shape-margin:0;inline-size:0;clip-rule:nonzero;display:inline;overflow:visible;visibility:visible;isolation:auto;mix-blend-mode:normal;color-interpolation:sRGB;color-interpolation-filters:linearRGB;solid-color:#000000;solid-opacity:1;vector-effect:none;fill:#000000;fill-opacity:1;fill-rule:evenodd;stroke:none;stroke-width:0.257812;stroke-linecap:butt;stroke-linejoin:round;stroke-miterlimit:4;stroke-dasharray:none;stroke-dashoffset:0;stroke-opacity:1;color-rendering:auto;image-rendering:auto;shape-rendering:auto;text-rendering:auto;enable-background:accumulate;stop-color:#000000;stop-opacity:1"
                 d="m 138.9345,-428.93538 1.65731,-4.50693 1.65731,4.50693 c -0.97847,-0.72002 -2.31719,-0.71587 -3.31462,0 z"
                 id="path2142" /><path
                 style="color:#000000;font-style:normal;font-variant:normal;font-weight:normal;font-stretch:normal;font-size:medium;line-height:normal;font-family:Helvetica;-inkscape-font-specification:Helvetica;font-variant-ligatures:normal;font-variant-position:normal;font-variant-caps:normal;font-variant-numeric:normal;font-variant-alternates:normal;font-variant-east-asian:normal;font-feature-settings:normal;font-variation-settings:normal;text-indent:0;text-align:start;text-decoration:none;text-decoration-line:none;text-decoration-style:solid;text-decoration-color:#000000;letter-spacing:normal;word-spacing:normal;text-transform:none;writing-mode:lr-tb;direction:ltr;text-orientation:mixed;dominant-baseline:auto;baseline-shift:baseline;text-anchor:start;white-space:normal;shape-padding:0;shape-margin:0;inline-size:0;clip-rule:nonzero;display:inline;overflow:visible;visibility:visible;isolation:auto;mix-blend-mode:normal;color-interpolation:sRGB;color-interpolation-filters:linearRGB;solid-color:#000000;solid-opacity:1;vector-effect:none;fill:#000000;fill-opacity:1;fill-rule:evenodd;stroke:none;stroke-width:0.257812;stroke-linecap:butt;stroke-linejoin:round;stroke-miterlimit:4;stroke-dasharray:none;stroke-dashoffset:0;stroke-opacity:1;color-rendering:auto;image-rendering:auto;shape-rendering:auto;text-rendering:auto;enable-background:accumulate;stop-color:#000000;stop-opacity:1"
                 d="m 140.59766,-433.57031 a 0.12891889,0.12891889 0 0 0 -0.12696,0.084 l -1.65625,4.50586 a 0.12891889,0.12891889 0 0 0 0.19532,0.15039 c 0.95323,-0.68415 2.22903,-0.68856 3.16211,-0.002 a 0.12891889,0.12891889 0 0 0 0.19726,-0.14844 l -1.65625,-4.50586 a 0.12891889,0.12891889 0 0 0 -0.11523,-0.084 z m -0.006,0.50195 1.44726,3.93555 c -0.90292,-0.52383 -1.97987,-0.52249 -2.89453,0 z"
                 id="path2144" /></g></g></g></g></g><text
       xml:space="preserve"
       style="font-style:normal;font-weight:normal;font-size:30px;line-height:1.25;font-family:sans-serif;fill:#000000;fill-opacity:1;stroke:none;stroke-width:0.75"
       x="49.658451"
       y="-232.68338"
       id="text301"
       transform="scale(1,-1)"><tspan
         sodipodi:role="line"
         id="tspan299"
         x="49.658451"
         y="-232.68338"
         style="font-size:14px;stroke-width:0.75">a)</tspan></text><text
       xml:space="preserve"
       style="font-style:normal;font-weight:normal;font-size:30px;line-height:1.25;font-family:sans-serif;fill:#000000;fill-opacity:1;stroke:none;stroke-width:0.75"
       x="313.94275"
       y="-232.49847"
       id="text301-1"
       transform="scale(1,-1)"><tspan
         sodipodi:role="line"
         id="tspan299-0"
         x="313.94275"
         y="-232.49847"
         style="font-size:14px;stroke-width:0.75">b)</tspan></text></g></svg>
