<?xml version="1.0" encoding="UTF-8" standalone="no"?>
<svg
   xmlns:dc="http://purl.org/dc/elements/1.1/"
   xmlns:cc="http://creativecommons.org/ns#"
   xmlns:rdf="http://www.w3.org/1999/02/22-rdf-syntax-ns#"
   xmlns:svg="http://www.w3.org/2000/svg"
   xmlns="http://www.w3.org/2000/svg"
   xmlns:sodipodi="http://sodipodi.sourceforge.net/DTD/sodipodi-0.dtd"
   xmlns:inkscape="http://www.inkscape.org/namespaces/inkscape"
   version="1.1"
   id="svg10"
   xml:space="preserve"
   width="576"
   height="336"
   viewBox="0 0 576 336"
   sodipodi:docname="conceptual-model-fig1-2_11-09-2020.svg"
   inkscape:version="1.0.1 (c497b03c, 2020-09-10)"><metadata
     id="metadata16"><rdf:RDF><cc:Work
         rdf:about=""><dc:format>image/svg+xml</dc:format><dc:type
           rdf:resource="http://purl.org/dc/dcmitype/StillImage" /><dc:title></dc:title></cc:Work></rdf:RDF></metadata><defs
     id="defs14"><clipPath
       clipPathUnits="userSpaceOnUse"
       id="clipPath34"><path
         d="M 43.367,246.52 H 334.324 V 31.754 H 43.367 Z"
         id="path32" /></clipPath><clipPath
       clipPathUnits="userSpaceOnUse"
       id="clipPath174"><path
         d="M 43.367,246.52 H 253.972 V 31.754 H 43.367 Z"
         id="path172" /></clipPath></defs><sodipodi:namedview
     pagecolor="#ffffff"
     bordercolor="#666666"
     borderopacity="1"
     objecttolerance="10"
     gridtolerance="10"
     guidetolerance="10"
     inkscape:pageopacity="0"
     inkscape:pageshadow="2"
     inkscape:window-width="1440"
     inkscape:window-height="855"
     id="namedview12"
     showgrid="false"
     inkscape:zoom="0.99652778"
     inkscape:cx="174.09631"
     inkscape:cy="-33.317815"
     inkscape:window-x="0"
     inkscape:window-y="23"
     inkscape:window-maximized="0"
     inkscape:current-layer="g18" /><g
     id="g18"
     inkscape:groupmode="layer"
     inkscape:label="conceptual-model-fig1-1_11-09-2020"
     transform="matrix(1.3333333,0,0,-1.3333333,0,336)"><g
       id="g20"><path
         d="M 0,0 H 432 V 252 H 0 Z"
         style="fill:#ffffff;fill-opacity:1;fill-rule:nonzero;stroke:none"
         id="path22" /><path
         d="M 0,0 H 432 V 252 H 0 Z"
         style="fill:#ffffff;fill-opacity:1;fill-rule:nonzero;stroke:none"
         id="path24" /><path
         d="M 0,252 H 432 V 0 H 0 Z"
         style="fill:none;stroke:#ffffff;stroke-width:1.06698;stroke-linecap:round;stroke-linejoin:round;stroke-miterlimit:10;stroke-dasharray:none;stroke-opacity:1"
         id="path26" /></g><g
       id="g28"><g
         id="g30"
         clip-path="url(#clipPath34)"><path
           d="M 43.367,246.52 H 334.324 V 31.754 H 43.367 Z"
           style="fill:#ffffff;fill-opacity:1;fill-rule:nonzero;stroke:none"
           id="path36" /><path
           d="m 58.43,41.539 h 3.672 l 3.675,-0.023 3.672,0.226 3.676,0.637 3.672,2.926 3.676,7.871 3.672,10.551 3.675,15.246 3.672,19.918 3.672,-3.563 3.676,2.133 3.672,31.035 3.676,81.629 3.671,26.633 3.676,-18.012 3.672,-14.609 3.676,-15.496 3.672,-13.411 3.675,-4.332 3.672,-3.699 3.676,-6.738 3.672,-7.668 3.672,-10.66 3.676,-4.039 3.672,-7.032 3.675,-3.925 3.672,-4.219 3.676,-1.84 3.672,-6.805 3.676,-7.101 3.671,-1.77 3.676,-4.175 3.672,-3.2 3.676,-3.379 3.672,-1.859 3.676,-2.269 3.671,-1.704 3.672,-2.019 3.676,-2.492 3.672,-2.61 3.676,-2.222 3.672,-1.387 3.675,-1.723 3.672,-1.496 3.676,-1.429 3.672,-1.364 3.676,-1.519 3.672,-0.883 3.675,-1.16 3.672,-1.313 3.676,-1.387 3.672,-1.359 3.672,-1.269 3.676,-1.18 3.671,-1.066 3.676,-0.934 3.672,-0.836 3.676,-0.797 3.672,-0.816 3.676,-0.953 3.671,-0.973 3.676,-1.567 3.672,-1.382 3.676,-1.067 3.672,-1.316 3.676,-2.328 7.343,-2.219 3.676,-1.109 3.672,-1.106 3.676,-1.109"
           style="fill:none;stroke:#bebebe;stroke-width:1.06698;stroke-linecap:butt;stroke-linejoin:round;stroke-miterlimit:10;stroke-dasharray:none;stroke-opacity:1"
           id="path38" /><path
           d="m 58.43,41.984 3.672,-0.093 3.675,-0.082 3.672,-0.055 3.676,0.012 3.672,0.25 3.676,1.046 3.672,2.336 3.675,3.864 3.672,6.277 3.672,6.523 3.676,5.051 3.672,6.364 3.676,14.859 3.671,21.676 3.676,18.187 3.672,12.633 3.676,8.492 3.672,4.848 3.675,2.773 3.672,1.852 3.676,0.738 3.672,-0.457 3.672,-1.883 3.676,-2.695 3.672,-3.098 3.675,-3.496 3.672,-3.574 3.676,-3.457 3.672,-3.547 3.676,-4.195 3.671,-4.176 3.676,-3.961 3.672,-3.945 3.676,-3.844 3.672,-3.652 3.676,-3.395 3.671,-3.187 3.672,-2.973 3.676,-2.863 3.672,-2.821 3.676,-2.769 3.672,-2.609 3.675,-2.446 3.672,-2.32 3.676,-2.188 3.672,-2.058 3.676,-1.973 3.672,-1.851 3.675,-1.719 3.672,-1.649 3.676,-1.601 3.672,-1.567 3.672,-1.527 3.676,-1.484 3.671,-1.426 3.676,-1.359 3.672,-1.29 3.676,-1.21 3.672,-1.149 3.676,-1.109 3.671,-1.086 3.676,-1.114 3.672,-1.175 3.676,-1.184 3.672,-1.168 3.676,-1.285 3.671,-1.359 3.672,-1.305 3.676,-1.277 3.672,-1.25 3.676,-1.231"
           style="fill:none;stroke:#d81b60;stroke-width:1.06698;stroke-linecap:butt;stroke-linejoin:round;stroke-miterlimit:10;stroke-dasharray:none;stroke-opacity:1"
           id="path40" /><path
           d="m 58.43,42.676 3.672,-0.078 3.675,-0.071 3.672,-0.054 3.676,-0.008 3.672,0.152 3.676,0.688 3.672,1.558 3.675,2.594 3.672,4.227 3.672,4.414 3.676,3.445 3.672,4.34 3.676,10.07 3.671,14.699 3.676,12.43 3.672,8.754 3.676,6.008 3.672,3.578 3.675,2.203 3.672,1.586 3.676,0.844 3.672,0.035 3.672,-0.926 3.676,-1.48 3.672,-1.766 3.675,-2.047 3.672,-2.113 3.676,-2.047 3.672,-2.125 3.676,-2.57 3.671,-2.578 3.676,-2.446 3.672,-2.453 3.676,-2.394 3.672,-2.286 3.676,-2.129 3.671,-1.996 3.672,-1.863 3.676,-1.805 3.672,-1.789 3.676,-1.757 3.672,-1.665 3.675,-1.562 3.672,-1.488 3.676,-1.407 3.672,-1.328 3.676,-1.277 3.672,-1.203 3.675,-1.117 3.672,-1.078 3.676,-1.055 3.672,-1.035 3.672,-1.016 3.676,-0.988 3.671,-0.953 3.676,-0.918 3.672,-0.871 3.676,-0.825 3.672,-0.789 3.676,-0.761 3.671,-0.75 3.676,-0.774 3.672,-0.82 3.676,-0.824 3.672,-0.821 3.676,-0.902 3.671,-0.957 3.672,-0.922 3.676,-0.91 3.672,-0.895 3.676,-0.882"
           style="fill:none;stroke:#ffc107;stroke-width:1.06698;stroke-linecap:butt;stroke-linejoin:round;stroke-miterlimit:10;stroke-dasharray:none;stroke-opacity:1"
           id="path42" /><path
           d="m 58.43,43.957 3.672,-0.051 3.675,-0.051 3.672,-0.05 3.676,-0.043 3.672,-0.032 3.676,0.028 3.672,0.117 3.675,0.238 3.672,0.43 3.672,0.508 3.676,0.469 3.672,0.601 3.676,1.195 3.671,1.786 3.676,1.761 3.672,1.567 3.676,1.406 3.672,1.238 3.675,1.141 3.672,1.097 3.676,1.032 3.672,0.953 3.672,0.848 3.676,0.761 3.672,0.707 3.675,0.641 3.672,0.594 3.676,0.558 3.672,0.516 3.676,0.433 3.671,0.387 3.676,0.356 3.672,0.312 3.676,0.278 3.672,0.25 3.676,0.226 3.671,0.203 3.672,0.184 3.676,0.16 3.672,0.133 3.676,0.105 3.672,0.09 3.675,0.07 3.672,0.055 3.676,0.039 3.672,0.027 3.676,0.008 h 3.672 l 3.675,-0.011 3.672,-0.024 3.676,-0.035 3.672,-0.051 3.672,-0.062 3.676,-0.075 3.671,-0.085 3.676,-0.094 3.672,-0.102 3.676,-0.105 3.672,-0.117 3.676,-0.122 3.671,-0.132 3.676,-0.145 3.672,-0.156 3.676,-0.164 3.672,-0.176 3.676,-0.195 3.671,-0.207 3.672,-0.219 3.676,-0.227 3.672,-0.234 3.676,-0.242"
           style="fill:none;stroke:#1e88e5;stroke-width:1.06698;stroke-linecap:butt;stroke-linejoin:round;stroke-miterlimit:10;stroke-dasharray:none;stroke-opacity:1"
           id="path44" /><path
           d="M 43.367,246.52 H 334.324 V 31.754 H 43.367 Z"
           style="fill:none;stroke:#333333;stroke-width:1.06698;stroke-linecap:round;stroke-linejoin:round;stroke-miterlimit:10;stroke-dasharray:none;stroke-opacity:1"
           id="path46" /></g></g><g
       id="g48"><text
         transform="matrix(1,0,0,-1,33.542969,44.007812)"
         style="font-variant:normal;font-weight:normal;font-size:8.8px;font-family:Helvetica;-inkscape-font-specification:Helvetica;writing-mode:lr-tb;fill:#4d4d4d;fill-opacity:1;fill-rule:nonzero;stroke:none"
         id="text60"><tspan
           x="0"
           y="0"
           id="tspan50">0</tspan><tspan
           x="-9.7851601 -4.8923602 0.00044"
           y="-45.375"
           sodipodi:role="line"
           id="tspan52">200</tspan><tspan
           x="-9.7851601 -4.8923602 0.00044"
           y="-90.746094"
           sodipodi:role="line"
           id="tspan54">400</tspan><tspan
           x="-9.7851601 -4.8923602 0.00044"
           y="-136.12109"
           sodipodi:role="line"
           id="tspan56">600</tspan><tspan
           x="-9.7851601 -4.8923602 0.00044"
           y="-181.49609"
           sodipodi:role="line"
           id="tspan58">800</tspan></text><path
         d="m 40.625,47.164 h 2.742"
         style="fill:none;stroke:#333333;stroke-width:1.06698;stroke-linecap:butt;stroke-linejoin:round;stroke-miterlimit:10;stroke-dasharray:none;stroke-opacity:1"
         id="path62" /><path
         d="m 40.625,92.539 h 2.742"
         style="fill:none;stroke:#333333;stroke-width:1.06698;stroke-linecap:butt;stroke-linejoin:round;stroke-miterlimit:10;stroke-dasharray:none;stroke-opacity:1"
         id="path64" /><path
         d="m 40.625,137.91 h 2.742"
         style="fill:none;stroke:#333333;stroke-width:1.06698;stroke-linecap:butt;stroke-linejoin:round;stroke-miterlimit:10;stroke-dasharray:none;stroke-opacity:1"
         id="path66" /><path
         d="m 40.625,183.285 h 2.742"
         style="fill:none;stroke:#333333;stroke-width:1.06698;stroke-linecap:butt;stroke-linejoin:round;stroke-miterlimit:10;stroke-dasharray:none;stroke-opacity:1"
         id="path68" /><path
         d="m 40.625,228.66 h 2.742"
         style="fill:none;stroke:#333333;stroke-width:1.06698;stroke-linecap:butt;stroke-linejoin:round;stroke-miterlimit:10;stroke-dasharray:none;stroke-opacity:1"
         id="path70" /><path
         d="m 93.328,29.016 v 2.738"
         style="fill:none;stroke:#333333;stroke-width:1.06698;stroke-linecap:butt;stroke-linejoin:round;stroke-miterlimit:10;stroke-dasharray:none;stroke-opacity:1"
         id="path72" /><path
         d="m 166.805,29.016 v 2.738"
         style="fill:none;stroke:#333333;stroke-width:1.06698;stroke-linecap:butt;stroke-linejoin:round;stroke-miterlimit:10;stroke-dasharray:none;stroke-opacity:1"
         id="path74" /><path
         d="m 240.277,29.016 v 2.738"
         style="fill:none;stroke:#333333;stroke-width:1.06698;stroke-linecap:butt;stroke-linejoin:round;stroke-miterlimit:10;stroke-dasharray:none;stroke-opacity:1"
         id="path76" /><path
         d="m 313.75,29.016 v 2.738"
         style="fill:none;stroke:#333333;stroke-width:1.06698;stroke-linecap:butt;stroke-linejoin:round;stroke-miterlimit:10;stroke-dasharray:none;stroke-opacity:1"
         id="path78" /><text
         transform="matrix(1,0,0,-1,83.542969,20.511719)"
         style="font-variant:normal;font-weight:normal;font-size:8.8px;font-family:Helvetica;-inkscape-font-specification:Helvetica;writing-mode:lr-tb;fill:#4d4d4d;fill-opacity:1;fill-rule:nonzero;stroke:none"
         id="text82"><tspan
           x="0 4.8927999 9.7855997 14.6784 73.471199 78.363998 83.256798 88.149597 146.94922 151.84203 156.73482 161.62762 220.42043 225.31322 230.20602 235.09882"
           y="0"
           sodipodi:role="line"
           id="tspan80">1960198020002020</tspan></text><text
         transform="matrix(1,0,0,-1,177.22656,7.898438)"
         style="font-variant:normal;font-weight:normal;font-size:11px;font-family:Helvetica;-inkscape-font-specification:Helvetica;writing-mode:lr-tb;fill:#000000;fill-opacity:1;fill-rule:nonzero;stroke:none"
         id="text86"><tspan
           x="0 7.3260002 13.442 19.558001"
           y="0"
           sodipodi:role="line"
           id="tspan84">Year</tspan></text><text
         transform="matrix(0,1,1,0,16.347656,116.82422)"
         style="font-variant:normal;font-weight:normal;font-size:11px;font-family:Symbol;-inkscape-font-specification:Symbol;writing-mode:lr-tb;fill:#000000;fill-opacity:1;fill-rule:nonzero;stroke:none"
         id="text90"><tspan
           x="0"
           y="0"
           id="tspan88">Δ</tspan></text><text
         transform="matrix(0,1,1,0,10.886719,123.55469)"
         style="font-variant:normal;font-weight:normal;font-size:7.7px;font-family:Helvetica;-inkscape-font-specification:Helvetica;writing-mode:lr-tb;fill:#000000;fill-opacity:1;fill-rule:nonzero;stroke:none"
         id="text94"><tspan
           x="0 4.2811999"
           y="0"
           sodipodi:role="line"
           id="tspan92">14</tspan></text><text
         transform="matrix(0,1,1,0,16.347656,132.125)"
         style="font-variant:normal;font-weight:normal;font-size:11px;font-family:Helvetica;-inkscape-font-specification:Helvetica;writing-mode:lr-tb;fill:#000000;fill-opacity:1;fill-rule:nonzero;stroke:none"
         id="text98"><tspan
           x="0 7.9419999 10.989 14.652 25.652"
           y="0"
           sodipodi:role="line"
           id="tspan96">C (‰)</tspan></text><path
         d="m 345.281,187.074 h 81.238 V 91.199 h -81.238 z"
         style="fill:#ffffff;fill-opacity:1;fill-rule:nonzero;stroke:none"
         id="path100" /><text
         transform="scale(1,-1)"
         style="font-variant:normal;font-weight:normal;font-size:11px;font-family:Helvetica;-inkscape-font-specification:Helvetica;writing-mode:lr-tb;fill:#000000;fill-opacity:1;fill-rule:nonzero;stroke:none"
         id="text104"
         x="350.76172"
         y="-110.99219"><tspan
           x="350.76172 358.08771 364.20374 370.31973"
           y="-110.99219"
           sodipodi:role="line"
           id="tspan102">Pool</tspan></text><path
         d="m 350.762,165.801 h 17.281 V 148.52 h -17.281 z"
         style="fill:#ffffff;fill-opacity:1;fill-rule:nonzero;stroke:none"
         id="path106" /><path
         d="m 352.488,95.66 h 13.824"
         style="fill:none;stroke:#bebebe;stroke-width:1.06698;stroke-linecap:butt;stroke-linejoin:round;stroke-miterlimit:10;stroke-dasharray:none;stroke-opacity:1"
         id="path108" /><path
         d="m 350.762,148.52 h 17.281 v -17.281 h -17.281 z"
         style="fill:#ffffff;fill-opacity:1;fill-rule:nonzero;stroke:none"
         id="path110" /><path
         d="m 352.488,78.379 h 13.824"
         style="fill:none;stroke:#d81b60;stroke-width:1.06698;stroke-linecap:butt;stroke-linejoin:round;stroke-miterlimit:10;stroke-dasharray:none;stroke-opacity:1"
         id="path112" /><path
         d="m 352.488,61.098 h 13.824"
         style="fill:none;stroke:#ffc107;stroke-width:1.06698;stroke-linecap:butt;stroke-linejoin:round;stroke-miterlimit:10;stroke-dasharray:none;stroke-opacity:1"
         id="path116" /><path
         d="m 352.488,43.82 h 13.824"
         style="fill:none;stroke:#1e88e5;stroke-width:1.06698;stroke-linecap:butt;stroke-linejoin:round;stroke-miterlimit:10;stroke-dasharray:none;stroke-opacity:1"
         id="path120" /><text
         transform="scale(1,-1)"
         style="font-variant:normal;font-weight:normal;font-size:8.8px;font-family:Helvetica;-inkscape-font-specification:Helvetica;writing-mode:lr-tb;fill:#000000;fill-opacity:1;fill-rule:nonzero;stroke:none"
         id="text130"
         x="373.51953"
         y="-92.503906"><tspan
           x="373.51953 378.41232 380.84995 388.18033 393.07312 397.47314 402.36594 407.25873 412.15152 415.08194"
           y="-92.503906"
           sodipodi:role="line"
           id="tspan122">atmosphere</tspan><tspan
           x="373.51953 375.95712 380.84995 385.24994"
           y="-75.222656"
           sodipodi:role="line"
           id="tspan124">fast</tspan><tspan
           x="373.51953 376.44992 381.34274 385.74274 390.63553 392.58914 395.51953 400.41232 402.84995 404.80353 409.69632"
           y="-57.941406"
           sodipodi:role="line"
           id="tspan126">respiration</tspan><tspan
           x="373.51953 377.91953 379.87314 384.76593"
           y="-40.66407"
           sodipodi:role="line"
           id="tspan128">slow</tspan></text></g><g
       id="g160"
       transform="translate(-154.28571,296.0906)"><path
         d="M 0,0 H 432 V 252 H 0 Z"
         style="fill:#ffffff;fill-opacity:1;fill-rule:nonzero;stroke:none"
         id="path162" /><path
         d="M 0,0 H 432 V 252 H 0 Z"
         style="fill:#ffffff;fill-opacity:1;fill-rule:nonzero;stroke:none"
         id="path164" /><path
         d="M 0,252 H 432 V 0 H 0 Z"
         style="fill:none;stroke:#ffffff;stroke-width:1.06698;stroke-linecap:round;stroke-linejoin:round;stroke-miterlimit:10;stroke-dasharray:none;stroke-opacity:1"
         id="path166" /></g><g
       id="g168"
       transform="translate(-154.28571,296.0906)"><g
         id="g170"
         clip-path="url(#clipPath174)"><path
           d="M 43.367,246.52 H 253.972 V 31.754 H 43.367 Z"
           style="fill:#ffffff;fill-opacity:1;fill-rule:nonzero;stroke:none"
           id="path176" /><path
           d="m 52.941,181.957 5.629,-5.992 5.633,-7.406 5.629,-7.743 5.633,-6.597 5.629,-4.11 5.633,-5.113 5.632,-4.445 5.629,-4.242 5.633,-4.039 5.629,-4.512 5.633,-2.625 5.629,-3.434 5.633,-3.902 5.632,-4.109 5.629,-4.04 5.633,-3.769 5.629,-3.5 5.633,-3.164 5.629,-2.762 5.632,-2.492 5.633,-2.356 5.629,-2.421 5.633,-2.829 5.629,-2.894 5.633,-4.649 5.629,-4.105 5.632,-3.164 5.633,-3.906 5.629,-6.903 5.633,-3.293 5.629,-3.289 5.633,-3.289 5.629,-3.293 5.632,-3.285"
           style="fill:none;stroke:#bebebe;stroke-width:1.06698;stroke-linecap:butt;stroke-linejoin:round;stroke-miterlimit:10;stroke-dasharray:none;stroke-opacity:1"
           id="path178" /><path
           d="m 52.941,235.828 5.629,-8.812 5.633,-8.504 5.629,-8.375 5.633,-8.215 5.629,-7.746 5.633,-7.25 5.632,-6.887 5.629,-6.488 5.633,-6.117 5.629,-5.852 5.633,-5.5 5.629,-5.094 5.633,-4.886 5.632,-4.754 5.629,-4.649 5.633,-4.539 5.629,-4.398 5.633,-4.235 5.629,-4.035 5.632,-3.82 5.633,-3.602 5.629,-3.41 5.633,-3.293 5.629,-3.215 5.633,-3.304 5.629,-3.493 5.632,-3.507 5.633,-3.465 5.629,-3.813 5.633,-4.035 5.629,-3.871 5.633,-3.797 5.629,-3.711 5.632,-3.648"
           style="fill:none;stroke:#d81b60;stroke-width:1.06698;stroke-linecap:butt;stroke-linejoin:round;stroke-miterlimit:10;stroke-dasharray:none;stroke-opacity:1"
           id="path180" /><path
           d="m 52.941,193.578 5.629,-5.535 5.633,-5.352 5.629,-5.3 5.633,-5.227 5.629,-4.937 5.633,-4.633 5.632,-4.414 5.629,-4.172 5.633,-3.946 5.629,-3.789 5.633,-3.574 5.629,-3.316 5.633,-3.199 5.632,-3.125 5.629,-3.075 5.633,-3.007 5.629,-2.934 5.633,-2.84 5.629,-2.719 5.632,-2.586 5.633,-2.449 5.629,-2.336 5.633,-2.265 5.629,-2.223 5.633,-2.297 5.629,-2.43 5.632,-2.453 5.633,-2.433 5.629,-2.676 5.633,-2.836 5.629,-2.742 5.633,-2.699 5.629,-2.653 5.632,-2.625"
           style="fill:none;stroke:#ffc107;stroke-width:1.06698;stroke-linecap:butt;stroke-linejoin:round;stroke-miterlimit:10;stroke-dasharray:none;stroke-opacity:1"
           id="path182" /><path
           d="m 52.941,115.332 5.629,0.547 5.633,0.473 5.629,0.394 5.633,0.313 5.629,0.261 5.633,0.215 5.632,0.16 5.629,0.117 5.633,0.079 5.629,0.031 5.633,-0.004 5.629,-0.031 5.633,-0.071 5.632,-0.109 5.629,-0.148 5.633,-0.188 5.629,-0.219 5.633,-0.25 5.629,-0.281 5.632,-0.301 5.633,-0.32 5.629,-0.344 5.633,-0.363 5.629,-0.391 5.633,-0.422 5.629,-0.464 5.632,-0.496 5.633,-0.524 5.629,-0.574 5.633,-0.617 5.629,-0.645 5.633,-0.672 5.629,-0.699 5.632,-0.723"
           style="fill:none;stroke:#1e88e5;stroke-width:1.06698;stroke-linecap:butt;stroke-linejoin:round;stroke-miterlimit:10;stroke-dasharray:none;stroke-opacity:1"
           id="path184" /><path
           d="m 76.559,174.777 c 0,-5.211 -7.821,-5.211 -7.821,0 0,5.215 7.821,5.215 7.821,0"
           style="fill:#ffc107;fill-opacity:1;fill-rule:nonzero;stroke:none"
           id="path186" /><path
           d="m 234.23,87.41 c 0,-5.215 -7.82,-5.215 -7.82,0 0,5.211 7.82,5.211 7.82,0"
           style="fill:#ffc107;fill-opacity:1;fill-rule:nonzero;stroke:none"
           id="path188" /><path
           d="m 68.738,163.246 h 7.82 v -7.82 h -7.82 z"
           style="fill:none;stroke:#ffc107;stroke-width:1.41732;stroke-linecap:round;stroke-linejoin:round;stroke-miterlimit:10;stroke-dasharray:none;stroke-opacity:1"
           id="path190" /><path
           d="m 226.41,102.652 h 7.82 v -7.82 h -7.82 z"
           style="fill:none;stroke:#ffc107;stroke-width:1.41732;stroke-linecap:round;stroke-linejoin:round;stroke-miterlimit:10;stroke-dasharray:none;stroke-opacity:1"
           id="path192" /><path
           d="m 76.559,186.266 c 0,-5.215 -7.821,-5.215 -7.821,0 0,5.211 7.821,5.211 7.821,0"
           style="fill:none;stroke:#ffc107;stroke-width:1.41732;stroke-linecap:round;stroke-linejoin:round;stroke-miterlimit:10;stroke-dasharray:none;stroke-opacity:1"
           id="path194" /><path
           d="m 234.23,78.543 c 0,-5.211 -7.82,-5.211 -7.82,0 0,5.215 7.82,5.215 7.82,0"
           style="fill:none;stroke:#ffc107;stroke-width:1.41732;stroke-linecap:round;stroke-linejoin:round;stroke-miterlimit:10;stroke-dasharray:none;stroke-opacity:1"
           id="path196" /><path
           d="M 43.367,246.52 H 253.972 V 31.754 H 43.367 Z"
           style="fill:none;stroke:#333333;stroke-width:1.06698;stroke-linecap:round;stroke-linejoin:round;stroke-miterlimit:10;stroke-dasharray:none;stroke-opacity:1"
           id="path198" /></g></g><g
       id="g200"
       transform="translate(-154.28571,296.0906)"><text
         transform="matrix(1,0,0,-1,33.542969,55.191406)"
         style="font-variant:normal;font-weight:normal;font-size:8.8px;font-family:Helvetica;-inkscape-font-specification:Helvetica;writing-mode:lr-tb;fill:#4d4d4d;fill-opacity:1;fill-rule:nonzero;stroke:none"
         id="text208"><tspan
           x="0"
           y="0"
           id="tspan202">0</tspan><tspan
           x="-9.7851601 -4.8923602 0.00044"
           y="-67.324219"
           sodipodi:role="line"
           id="tspan204">100</tspan><tspan
           x="-9.7851601 -4.8923602 0.00044"
           y="-134.64844"
           sodipodi:role="line"
           id="tspan206">200</tspan></text><path
         d="m 40.625,58.348 h 2.742"
         style="fill:none;stroke:#333333;stroke-width:1.06698;stroke-linecap:butt;stroke-linejoin:round;stroke-miterlimit:10;stroke-dasharray:none;stroke-opacity:1"
         id="path210" /><path
         d="m 40.625,125.672 h 2.742"
         style="fill:none;stroke:#333333;stroke-width:1.06698;stroke-linecap:butt;stroke-linejoin:round;stroke-miterlimit:10;stroke-dasharray:none;stroke-opacity:1"
         id="path212" /><path
         d="m 40.625,192.996 h 2.742"
         style="fill:none;stroke:#333333;stroke-width:1.06698;stroke-linecap:butt;stroke-linejoin:round;stroke-miterlimit:10;stroke-dasharray:none;stroke-opacity:1"
         id="path214" /><path
         d="m 67.016,29.016 v 2.738"
         style="fill:none;stroke:#333333;stroke-width:1.06698;stroke-linecap:butt;stroke-linejoin:round;stroke-miterlimit:10;stroke-dasharray:none;stroke-opacity:1"
         id="path216" /><path
         d="m 123.328,29.016 v 2.738"
         style="fill:none;stroke:#333333;stroke-width:1.06698;stroke-linecap:butt;stroke-linejoin:round;stroke-miterlimit:10;stroke-dasharray:none;stroke-opacity:1"
         id="path218" /><path
         d="m 179.641,29.016 v 2.738"
         style="fill:none;stroke:#333333;stroke-width:1.06698;stroke-linecap:butt;stroke-linejoin:round;stroke-miterlimit:10;stroke-dasharray:none;stroke-opacity:1"
         id="path220" /><path
         d="m 235.953,29.016 v 2.738"
         style="fill:none;stroke:#333333;stroke-width:1.06698;stroke-linecap:butt;stroke-linejoin:round;stroke-miterlimit:10;stroke-dasharray:none;stroke-opacity:1"
         id="path222" /><text
         transform="matrix(1,0,0,-1,57.230469,20.511719)"
         style="font-variant:normal;font-weight:normal;font-size:8.8px;font-family:Helvetica;-inkscape-font-specification:Helvetica;writing-mode:lr-tb;fill:#4d4d4d;fill-opacity:1;fill-rule:nonzero;stroke:none"
         id="text226"><tspan
           x="0 4.8927999 9.7855997 14.6784 56.311199 61.203999 66.096802 70.989601 112.6136 117.5064 122.3992 127.292 168.9375 173.83029 178.7231 183.61591"
           y="0"
           sodipodi:role="line"
           id="tspan224">1990200020102020</tspan></text><text
         transform="matrix(1,0,0,-1,137.05078,7.898438)"
         style="font-variant:normal;font-weight:normal;font-size:11px;font-family:Helvetica;-inkscape-font-specification:Helvetica;writing-mode:lr-tb;fill:#000000;fill-opacity:1;fill-rule:nonzero;stroke:none"
         id="text230"><tspan
           x="0 7.3260002 13.442 19.558001"
           y="0"
           sodipodi:role="line"
           id="tspan228">Year</tspan></text><text
         transform="matrix(0,1,1,0,16.347656,116.82422)"
         style="font-variant:normal;font-weight:normal;font-size:11px;font-family:Symbol;-inkscape-font-specification:Symbol;writing-mode:lr-tb;fill:#000000;fill-opacity:1;fill-rule:nonzero;stroke:none"
         id="text234"><tspan
           x="0"
           y="0"
           id="tspan232">Δ</tspan></text><text
         transform="matrix(0,1,1,0,10.886719,123.55469)"
         style="font-variant:normal;font-weight:normal;font-size:7.7px;font-family:Helvetica;-inkscape-font-specification:Helvetica;writing-mode:lr-tb;fill:#000000;fill-opacity:1;fill-rule:nonzero;stroke:none"
         id="text238"><tspan
           x="0 4.2811999"
           y="0"
           sodipodi:role="line"
           id="tspan236">14</tspan></text><text
         transform="matrix(0,1,1,0,16.347656,132.125)"
         style="font-variant:normal;font-weight:normal;font-size:11px;font-family:Helvetica;-inkscape-font-specification:Helvetica;writing-mode:lr-tb;fill:#000000;fill-opacity:1;fill-rule:nonzero;stroke:none"
         id="text242"><tspan
           x="0 7.9419999 10.989 14.652 25.652"
           y="0"
           sodipodi:role="line"
           id="tspan240">C (‰)</tspan></text><path
         d="m 264.93,231.852 h 81.238 V 135.977 H 264.93 Z"
         style="fill:#ffffff;fill-opacity:1;fill-rule:nonzero;stroke:none"
         id="path244" /><path
         d="m 270.41,210.578 h 17.281 V 193.297 H 270.41 Z"
         style="fill:#ffffff;fill-opacity:1;fill-rule:nonzero;stroke:none"
         id="path250" /><path
         d="m 270.41,193.297 h 17.281 V 176.016 H 270.41 Z"
         style="fill:#ffffff;fill-opacity:1;fill-rule:nonzero;stroke:none"
         id="path254" /><path
         d="m 270.41,176.016 h 17.281 V 158.735 H 270.41 Z"
         style="fill:#ffffff;fill-opacity:1;fill-rule:nonzero;stroke:none"
         id="path258" /><path
         d="m 270.41,158.738 h 17.281 V 141.457 H 270.41 Z"
         style="fill:#ffffff;fill-opacity:1;fill-rule:nonzero;stroke:none"
         id="path262" /><path
         d="M 264.93,125.02 H 426.52 V 46.422 H 264.93 Z"
         style="fill:#ffffff;fill-opacity:1;fill-rule:nonzero;stroke:none"
         id="path276" /><text
         transform="scale(1,-1)"
         style="font-variant:normal;font-weight:normal;font-size:11px;font-family:Helvetica;-inkscape-font-specification:Helvetica;writing-mode:lr-tb;fill:#000000;fill-opacity:1;fill-rule:nonzero;stroke:none"
         id="text280"
         x="270.41016"
         y="-167.43359"><tspan
           x="270.41016 278.95715 285.07315 290.57315 296.68915 300.35217 305.85217 311.96817 318.08417 321.13116 324.79416 330.91016 336.41016 342.52615 344.96817 348.63116 354.74716 357.79416 360.23615 366.35217"
           y="-167.43359"
           sodipodi:role="line"
           id="tspan278">Observed respiration</tspan></text><path
         d="m 270.41,103.742 h 17.281 V 86.461 H 270.41 Z"
         style="fill:#ffffff;fill-opacity:1;fill-rule:nonzero;stroke:none"
         id="path282" /><path
         d="m 282.961,152.102 c 0,-5.215 -7.82,-5.215 -7.82,0 0,5.21 7.82,5.21 7.82,0"
         style="fill:#ffc107;fill-opacity:1;fill-rule:nonzero;stroke:none"
         id="path284" /><path
         d="m 270.41,86.461 h 17.281 V 69.18 H 270.41 Z"
         style="fill:#ffffff;fill-opacity:1;fill-rule:nonzero;stroke:none"
         id="path286" /><path
         d="m 282.961,134.82 c 0,-5.211 -7.82,-5.211 -7.82,0 0,5.215 7.82,5.215 7.82,0"
         style="fill:none;stroke:#ffc107;stroke-width:1.41732;stroke-linecap:round;stroke-linejoin:round;stroke-miterlimit:10;stroke-dasharray:none;stroke-opacity:1"
         id="path288" /><path
         d="m 270.41,69.184 h 17.281 V 51.903 H 270.41 Z"
         style="fill:#ffffff;fill-opacity:1;fill-rule:nonzero;stroke:none"
         id="path290" /><path
         d="m 275.141,121.453 h 7.82 v -7.82 h -7.82 z"
         style="fill:none;stroke:#ffc107;stroke-width:1.41732;stroke-linecap:round;stroke-linejoin:round;stroke-miterlimit:10;stroke-dasharray:none;stroke-opacity:1"
         id="path292" /><text
         transform="scale(1,-1)"
         style="font-variant:normal;font-weight:normal;font-size:8.8px;font-family:Helvetica;-inkscape-font-specification:Helvetica;writing-mode:lr-tb;fill:#000000;fill-opacity:1;fill-rule:nonzero;stroke:none"
         id="text300"
         x="293.16797"
         y="-148.94531"><tspan
           x="293.16797 297.56796 302.46078 307.35358 309.79117 312.72156 317.61438"
           y="-148.94531"
           sodipodi:role="line"
           id="tspan294">control</tspan><tspan
           x="293.16797 295.12158 300.01437 304.41437 307.34476 312.23758 317.13037 321.53036 326.42316 331.31598 333.75357 336.19116 341.08398 345.48398 347.92157 350.35916 355.25198 360.11838 365.01117 366.96478 369.40237 373.80237 378.69516 383.58798 386.02557 388.95596 390.90958 395.80237 400.69516 403.13278 405.08636 409.97919"
           y="-131.66406"
           sodipodi:role="line"
           id="tspan296">increased fast pool contribution</tspan><tspan
           x="293.16797 295.12158 300.01437 304.41437 307.34476 312.23758 317.13037 321.53036 326.42316 331.31598 333.75357 338.15356 340.10718 344.99997 351.35358 353.79117 358.65756 363.55038 368.44318 370.39676 372.83438 377.23438 382.12717 387.01996 389.45758 392.38797 394.34158 399.23438 404.12717 406.56476 408.51837 413.41116"
           y="-114.38282"
           sodipodi:role="line"
           id="tspan298">increased slow pool contribution</tspan></text></g></g></svg>
