<?xml version="1.0" encoding="UTF-8" standalone="no"?>
<svg
   xmlns:dc="http://purl.org/dc/elements/1.1/"
   xmlns:cc="http://creativecommons.org/ns#"
   xmlns:rdf="http://www.w3.org/1999/02/22-rdf-syntax-ns#"
   xmlns:svg="http://www.w3.org/2000/svg"
   xmlns="http://www.w3.org/2000/svg"
   xmlns:sodipodi="http://sodipodi.sourceforge.net/DTD/sodipodi-0.dtd"
   xmlns:inkscape="http://www.inkscape.org/namespaces/inkscape"
   version="1.1"
   id="svg10"
   xml:space="preserve"
   width="717.33331"
   height="480"
   viewBox="0 0 717.33331 480"
   sodipodi:docname="hai.ts.svg"
   inkscape:version="1.0.1 (c497b03c, 2020-09-10)"><metadata
     id="metadata16"><rdf:RDF><cc:Work
         rdf:about=""><dc:format>image/svg+xml</dc:format><dc:type
           rdf:resource="http://purl.org/dc/dcmitype/StillImage" /><dc:title></dc:title></cc:Work></rdf:RDF></metadata><defs
     id="defs14"><clipPath
       clipPathUnits="userSpaceOnUse"
       id="clipPath34"><path
         d="M 51.633,354.52 H 210.059 V 36.805 H 51.633 Z"
         id="path32" /></clipPath><clipPath
       clipPathUnits="userSpaceOnUse"
       id="clipPath84"><path
         d="M 215.535,354.52 H 373.961 V 36.805 H 215.535 Z"
         id="path82" /></clipPath></defs><sodipodi:namedview
     pagecolor="#ffffff"
     bordercolor="#666666"
     borderopacity="1"
     objecttolerance="10"
     gridtolerance="10"
     guidetolerance="10"
     inkscape:pageopacity="0"
     inkscape:pageshadow="2"
     inkscape:window-width="709"
     inkscape:window-height="480"
     id="namedview12"
     showgrid="false"
     inkscape:zoom="1.4354167"
     inkscape:cx="358.66666"
     inkscape:cy="240"
     inkscape:window-x="0"
     inkscape:window-y="23"
     inkscape:window-maximized="0"
     inkscape:current-layer="g18" /><g
     id="g18"
     inkscape:groupmode="layer"
     inkscape:label="hai.ts"
     transform="matrix(1.3333333,0,0,-1.3333333,0,480)"><g
       id="g20"><path
         d="M 0,0 H 538 V 360 H 0 Z"
         style="fill:#ffffff;fill-opacity:1;fill-rule:nonzero;stroke:none"
         id="path22" /><path
         d="M 0,0 H 538 V 360 H 0 Z"
         style="fill:#ffffff;fill-opacity:1;fill-rule:nonzero;stroke:none"
         id="path24" /><path
         d="M 0,360 H 538 V 0 H 0 Z"
         style="fill:none;stroke:#ffffff;stroke-width:1.06698;stroke-linecap:round;stroke-linejoin:round;stroke-miterlimit:10;stroke-dasharray:none;stroke-opacity:1"
         id="path26" /></g><g
       id="g28"><g
         id="g30"
         clip-path="url(#clipPath34)"><path
           d="M 51.633,354.523 H 210.059 V 36.808 H 51.633 Z"
           style="fill:#ffffff;fill-opacity:1;fill-rule:nonzero;stroke:none"
           id="path36" /><path
           d="m 82.168,313.082 c 0,-7.105 -10.664,-7.105 -10.664,0 0,7.109 10.664,7.109 10.664,0"
           style="fill:#a35513;fill-opacity:1;fill-rule:nonzero;stroke:none"
           id="path38" /><path
           d="m 64.305,290.574 h 10.66 v -10.66 h -10.66 z"
           style="fill:none;stroke:#a35513;stroke-width:2.12598;stroke-linecap:round;stroke-linejoin:round;stroke-miterlimit:10;stroke-dasharray:none;stroke-opacity:1"
           id="path40" /><path
           d="m 197.387,181.441 c 0,-7.109 -10.664,-7.109 -10.664,0 0,7.11 10.664,7.11 10.664,0"
           style="fill:#a35513;fill-opacity:1;fill-rule:nonzero;stroke:none"
           id="path42" /><path
           d="m 190.184,212.035 c 0,-7.109 -10.661,-7.109 -10.661,0 0,7.106 10.661,7.106 10.661,0"
           style="fill:none;stroke:#a35513;stroke-width:2.12598;stroke-linecap:round;stroke-linejoin:round;stroke-miterlimit:10;stroke-dasharray:none;stroke-opacity:1"
           id="path44" /><path
           d="m 75.395,294.559 h 2.882"
           style="fill:none;stroke:#a35513;stroke-width:1.06698;stroke-linecap:butt;stroke-linejoin:round;stroke-miterlimit:10;stroke-dasharray:none;stroke-opacity:0.4"
           id="path46" /><path
           d="m 76.836,294.559 v 37.046"
           style="fill:none;stroke:#a35513;stroke-width:1.06698;stroke-linecap:butt;stroke-linejoin:round;stroke-miterlimit:10;stroke-dasharray:none;stroke-opacity:0.4"
           id="path48" /><path
           d="m 75.395,331.605 h 2.882"
           style="fill:none;stroke:#a35513;stroke-width:1.06698;stroke-linecap:butt;stroke-linejoin:round;stroke-miterlimit:10;stroke-dasharray:none;stroke-opacity:0.4"
           id="path50" /><path
           d="m 68.195,264.074 h 2.879"
           style="fill:none;stroke:#a35513;stroke-width:1.06698;stroke-linecap:butt;stroke-linejoin:round;stroke-miterlimit:10;stroke-dasharray:none;stroke-opacity:0.4"
           id="path52" /><path
           d="m 69.637,264.074 v 42.34"
           style="fill:none;stroke:#a35513;stroke-width:1.06698;stroke-linecap:butt;stroke-linejoin:round;stroke-miterlimit:10;stroke-dasharray:none;stroke-opacity:0.4"
           id="path54" /><path
           d="m 68.195,306.414 h 2.879"
           style="fill:none;stroke:#a35513;stroke-width:1.06698;stroke-linecap:butt;stroke-linejoin:round;stroke-miterlimit:10;stroke-dasharray:none;stroke-opacity:0.4"
           id="path56" /><path
           d="m 190.613,138.461 h 2.883"
           style="fill:none;stroke:#a35513;stroke-width:1.06698;stroke-linecap:butt;stroke-linejoin:round;stroke-miterlimit:10;stroke-dasharray:none;stroke-opacity:0.4"
           id="path58" /><path
           d="m 192.055,138.461 v 85.961"
           style="fill:none;stroke:#a35513;stroke-width:1.06698;stroke-linecap:butt;stroke-linejoin:round;stroke-miterlimit:10;stroke-dasharray:none;stroke-opacity:0.4"
           id="path60" /><path
           d="m 190.613,224.422 h 2.883"
           style="fill:none;stroke:#a35513;stroke-width:1.06698;stroke-linecap:butt;stroke-linejoin:round;stroke-miterlimit:10;stroke-dasharray:none;stroke-opacity:0.4"
           id="path62" /><path
           d="m 183.414,152.164 h 2.879"
           style="fill:none;stroke:#a35513;stroke-width:1.06698;stroke-linecap:butt;stroke-linejoin:round;stroke-miterlimit:10;stroke-dasharray:none;stroke-opacity:0.4"
           id="path64" /><path
           d="M 184.855,152.164 V 271.902"
           style="fill:none;stroke:#a35513;stroke-width:1.06698;stroke-linecap:butt;stroke-linejoin:round;stroke-miterlimit:10;stroke-dasharray:none;stroke-opacity:0.4"
           id="path66" /><path
           d="m 183.414,271.902 h 2.879"
           style="fill:none;stroke:#a35513;stroke-width:1.06698;stroke-linecap:butt;stroke-linejoin:round;stroke-miterlimit:10;stroke-dasharray:none;stroke-opacity:0.4"
           id="path68" /><path
           d="m 66.035,187.48 14.403,-10.351 14.402,-16.606 14.402,-14.683 14.403,-11.313 14.402,-13.961 14.402,-24.679 14.403,-11.77 14.402,-11.765 14.402,-11.762"
           style="fill:none;stroke:#000000;stroke-width:1.06698;stroke-linecap:butt;stroke-linejoin:round;stroke-miterlimit:10;stroke-dasharray:none;stroke-opacity:1"
           id="path70" /><text
           transform="matrix(1,0,0,-1,116.80078,334.97656)"
           style="font-variant:normal;font-weight:normal;font-size:14.2264px;font-family:Helvetica;-inkscape-font-specification:Helvetica;writing-mode:lr-tb;fill:#000000;fill-opacity:1;fill-rule:nonzero;stroke:none"
           id="text74"><tspan
             x="0 7.9098663 12.64725 16.587957 25.266047 33.175915 37.913296 45.823162 52.936352"
             y="0"
             sodipodi:role="line"
             id="tspan72">a) Forest</tspan></text><path
           d="M 51.633,354.523 H 210.059 V 36.808 H 51.633 Z"
           style="fill:none;stroke:#333333;stroke-width:1.06698;stroke-linecap:round;stroke-linejoin:round;stroke-miterlimit:10;stroke-dasharray:none;stroke-opacity:1"
           id="path76" /></g></g><g
       id="g78"><g
         id="g80"
         clip-path="url(#clipPath84)"><path
           d="M 215.535,354.523 H 373.961 V 36.808 H 215.535 Z"
           style="fill:#ffffff;fill-opacity:1;fill-rule:nonzero;stroke:none"
           id="path86" /><path
           d="m 246.07,218.543 c 0,-7.109 -10.66,-7.109 -10.66,0 0,7.109 10.66,7.109 10.66,0"
           style="fill:#1361a3;fill-opacity:1;fill-rule:nonzero;stroke:none"
           id="path88" /><path
           d="m 228.207,279.863 h 10.66 v -10.66 h -10.66 z"
           style="fill:none;stroke:#1361a3;stroke-width:2.12598;stroke-linecap:round;stroke-linejoin:round;stroke-miterlimit:10;stroke-dasharray:none;stroke-opacity:1"
           id="path90" /><path
           d="m 361.289,136.09 c 0,-7.11 -10.66,-7.11 -10.66,0 0,7.109 10.66,7.109 10.66,0"
           style="fill:#1361a3;fill-opacity:1;fill-rule:nonzero;stroke:none"
           id="path92" /><path
           d="m 354.09,183.191 c 0,-7.109 -10.664,-7.109 -10.664,0 0,7.11 10.664,7.11 10.664,0"
           style="fill:none;stroke:#1361a3;stroke-width:2.12598;stroke-linecap:round;stroke-linejoin:round;stroke-miterlimit:10;stroke-dasharray:none;stroke-opacity:1"
           id="path94" /><path
           d="m 239.301,178.145 h 2.879"
           style="fill:none;stroke:#1361a3;stroke-width:1.06698;stroke-linecap:butt;stroke-linejoin:round;stroke-miterlimit:10;stroke-dasharray:none;stroke-opacity:0.4"
           id="path96" /><path
           d="m 240.742,178.145 v 80.796"
           style="fill:none;stroke:#1361a3;stroke-width:1.06698;stroke-linecap:butt;stroke-linejoin:round;stroke-miterlimit:10;stroke-dasharray:none;stroke-opacity:0.4"
           id="path98" /><path
           d="m 239.301,258.941 h 2.879"
           style="fill:none;stroke:#1361a3;stroke-width:1.06698;stroke-linecap:butt;stroke-linejoin:round;stroke-miterlimit:10;stroke-dasharray:none;stroke-opacity:0.4"
           id="path100" /><path
           d="m 232.098,247.059 h 2.882"
           style="fill:none;stroke:#1361a3;stroke-width:1.06698;stroke-linecap:butt;stroke-linejoin:round;stroke-miterlimit:10;stroke-dasharray:none;stroke-opacity:0.4"
           id="path102" /><path
           d="m 233.539,247.059 v 54.953"
           style="fill:none;stroke:#1361a3;stroke-width:1.06698;stroke-linecap:butt;stroke-linejoin:round;stroke-miterlimit:10;stroke-dasharray:none;stroke-opacity:0.4"
           id="path104" /><path
           d="m 232.098,302.012 h 2.882"
           style="fill:none;stroke:#1361a3;stroke-width:1.06698;stroke-linecap:butt;stroke-linejoin:round;stroke-miterlimit:10;stroke-dasharray:none;stroke-opacity:0.4"
           id="path106" /><path
           d="m 354.52,113.008 h 2.878"
           style="fill:none;stroke:#1361a3;stroke-width:1.06698;stroke-linecap:butt;stroke-linejoin:round;stroke-miterlimit:10;stroke-dasharray:none;stroke-opacity:0.4"
           id="path108" /><path
           d="m 355.961,113.008 v 46.164"
           style="fill:none;stroke:#1361a3;stroke-width:1.06698;stroke-linecap:butt;stroke-linejoin:round;stroke-miterlimit:10;stroke-dasharray:none;stroke-opacity:0.4"
           id="path110" /><path
           d="m 354.52,159.172 h 2.878"
           style="fill:none;stroke:#1361a3;stroke-width:1.06698;stroke-linecap:butt;stroke-linejoin:round;stroke-miterlimit:10;stroke-dasharray:none;stroke-opacity:0.4"
           id="path112" /><path
           d="m 347.316,135.355 h 2.883"
           style="fill:none;stroke:#1361a3;stroke-width:1.06698;stroke-linecap:butt;stroke-linejoin:round;stroke-miterlimit:10;stroke-dasharray:none;stroke-opacity:0.4"
           id="path114" /><path
           d="m 348.758,135.355 v 95.672"
           style="fill:none;stroke:#1361a3;stroke-width:1.06698;stroke-linecap:butt;stroke-linejoin:round;stroke-miterlimit:10;stroke-dasharray:none;stroke-opacity:0.4"
           id="path116" /><path
           d="m 347.316,231.027 h 2.883"
           style="fill:none;stroke:#1361a3;stroke-width:1.06698;stroke-linecap:butt;stroke-linejoin:round;stroke-miterlimit:10;stroke-dasharray:none;stroke-opacity:0.4"
           id="path118" /><path
           d="m 229.938,187.48 14.402,-10.351 14.402,-16.606 14.403,-14.683 14.402,-11.313 14.402,-13.961 14.403,-24.679 14.402,-11.77 14.402,-11.765 14.403,-11.762"
           style="fill:none;stroke:#000000;stroke-width:1.06698;stroke-linecap:butt;stroke-linejoin:round;stroke-miterlimit:10;stroke-dasharray:none;stroke-opacity:1"
           id="path120" /><text
           transform="matrix(1,0,0,-1,268.45312,334.97656)"
           style="font-variant:normal;font-weight:normal;font-size:14.2264px;font-family:Helvetica;-inkscape-font-specification:Helvetica;writing-mode:lr-tb;fill:#000000;fill-opacity:1;fill-rule:nonzero;stroke:none"
           id="text124"><tspan
             x="0 7.9098663 12.64725 16.587957 27.641853 32.379238 40.289101 47.40229 54.51548 57.673737 65.583603 73.45079"
             y="0"
             sodipodi:role="line"
             id="tspan122">b) Grassland</tspan></text><path
           d="M 215.535,354.523 H 373.961 V 36.808 H 215.535 Z"
           style="fill:none;stroke:#333333;stroke-width:1.06698;stroke-linecap:round;stroke-linejoin:round;stroke-miterlimit:10;stroke-dasharray:none;stroke-opacity:1"
           id="path126" /></g></g><g
       id="g128"><path
         d="m 73.234,34.066 v 2.743"
         style="fill:none;stroke:#333333;stroke-width:1.06698;stroke-linecap:butt;stroke-linejoin:round;stroke-miterlimit:10;stroke-dasharray:none;stroke-opacity:1"
         id="path130" /><path
         d="m 188.453,34.066 v 2.743"
         style="fill:none;stroke:#333333;stroke-width:1.06698;stroke-linecap:butt;stroke-linejoin:round;stroke-miterlimit:10;stroke-dasharray:none;stroke-opacity:1"
         id="path132" /><text
         transform="matrix(1,0,0,-1,60.773438,23.84375)"
         style="font-variant:normal;font-weight:normal;font-size:11.2px;font-family:Helvetica;-inkscape-font-specification:Helvetica;writing-mode:lr-tb;fill:#4d4d4d;fill-opacity:1;fill-rule:nonzero;stroke:none"
         id="text136"><tspan
           x="0 6.2272 12.4544 18.681601 115.2144 121.4416 127.6688 133.896"
           y="0"
           sodipodi:role="line"
           id="tspan134">20112019</tspan></text><path
         d="m 237.141,34.066 v 2.743"
         style="fill:none;stroke:#333333;stroke-width:1.06698;stroke-linecap:butt;stroke-linejoin:round;stroke-miterlimit:10;stroke-dasharray:none;stroke-opacity:1"
         id="path138" /><path
         d="m 352.359,34.066 v 2.743"
         style="fill:none;stroke:#333333;stroke-width:1.06698;stroke-linecap:butt;stroke-linejoin:round;stroke-miterlimit:10;stroke-dasharray:none;stroke-opacity:1"
         id="path140" /><text
         transform="matrix(1,0,0,-1,224.67969,23.84375)"
         style="font-variant:normal;font-weight:normal;font-size:11.2px;font-family:Helvetica;-inkscape-font-specification:Helvetica;writing-mode:lr-tb;fill:#4d4d4d;fill-opacity:1;fill-rule:nonzero;stroke:none"
         id="text154"><tspan
           x="0 6.2272 12.4544 18.681601 115.2144 121.4416 127.6688 133.896"
           y="0"
           sodipodi:role="line"
           id="tspan142">20112019</tspan><tspan
           x="-184.21094"
           y="-59.492184"
           id="tspan144">0</tspan><tspan
           x="-190.44141 -184.2142"
           y="-119.66406"
           sodipodi:role="line"
           id="tspan146">25</tspan><tspan
           x="-190.44141 -184.2142"
           y="-179.83984"
           sodipodi:role="line"
           id="tspan148">50</tspan><tspan
           x="-190.44141 -184.2142"
           y="-240.01172"
           sodipodi:role="line"
           id="tspan150">75</tspan><tspan
           x="-196.67188 -190.44467 -184.21748"
           y="-300.18359"
           sodipodi:role="line"
           id="tspan152">100</tspan></text><path
         d="m 48.895,87.352 h 2.738"
         style="fill:none;stroke:#333333;stroke-width:1.06698;stroke-linecap:butt;stroke-linejoin:round;stroke-miterlimit:10;stroke-dasharray:none;stroke-opacity:1"
         id="path156" /><path
         d="m 48.895,147.523 h 2.738"
         style="fill:none;stroke:#333333;stroke-width:1.06698;stroke-linecap:butt;stroke-linejoin:round;stroke-miterlimit:10;stroke-dasharray:none;stroke-opacity:1"
         id="path158" /><path
         d="m 48.895,207.699 h 2.738"
         style="fill:none;stroke:#333333;stroke-width:1.06698;stroke-linecap:butt;stroke-linejoin:round;stroke-miterlimit:10;stroke-dasharray:none;stroke-opacity:1"
         id="path160" /><path
         d="m 48.895,267.871 h 2.738"
         style="fill:none;stroke:#333333;stroke-width:1.06698;stroke-linecap:butt;stroke-linejoin:round;stroke-miterlimit:10;stroke-dasharray:none;stroke-opacity:1"
         id="path162" /><path
         d="m 48.895,328.043 h 2.738"
         style="fill:none;stroke:#333333;stroke-width:1.06698;stroke-linecap:butt;stroke-linejoin:round;stroke-miterlimit:10;stroke-dasharray:none;stroke-opacity:1"
         id="path164" /><text
         transform="matrix(1,0,0,-1,169.60937,8.574219)"
         style="font-variant:normal;font-weight:normal;font-size:14px;font-family:Helvetica;-inkscape-font-specification:Helvetica;writing-mode:lr-tb;fill:#000000;fill-opacity:1;fill-rule:nonzero;stroke:none"
         id="text168"><tspan
           x="0 9.3240004 17.108 24.892 29.554001 33.431999 40.431999 48.216 59.877998 67.662003 70.769997 78.554001"
           y="0"
           sodipodi:role="line"
           id="tspan166">Year sampled</tspan></text><text
         transform="matrix(0,1,1,0,19.316406,132.26172)"
         style="font-variant:normal;font-weight:normal;font-size:14px;font-family:Helvetica;-inkscape-font-specification:Helvetica;writing-mode:lr-tb;fill:#000000;fill-opacity:1;fill-rule:nonzero;stroke:none"
         id="text172"><tspan
           x="0 11.662 19.445999 27.23 35.014"
           y="0"
           sodipodi:role="line"
           id="tspan170">mean </tspan></text><text
         transform="matrix(0,1,1,0,19.316406,171.15372)"
         style="font-variant:normal;font-weight:normal;font-size:14px;font-family:Symbol;-inkscape-font-specification:Symbol;writing-mode:lr-tb;fill:#000000;fill-opacity:1;fill-rule:nonzero;stroke:none"
         id="text176"><tspan
           x="0"
           y="0"
           id="tspan174">Δ</tspan></text><text
         transform="matrix(0,1,1,0,12.355469,179.73437)"
         style="font-variant:normal;font-weight:normal;font-size:9.8px;font-family:Helvetica;-inkscape-font-specification:Helvetica;writing-mode:lr-tb;fill:#000000;fill-opacity:1;fill-rule:nonzero;stroke:none"
         id="text180"><tspan
           x="0 5.4488001"
           y="0"
           sodipodi:role="line"
           id="tspan178">14</tspan></text><text
         transform="matrix(0,1,1,0,19.316406,190.63281)"
         style="font-variant:normal;font-weight:normal;font-size:14px;font-family:Helvetica;-inkscape-font-specification:Helvetica;writing-mode:lr-tb;fill:#000000;fill-opacity:1;fill-rule:nonzero;stroke:none"
         id="text184"><tspan
           x="0 10.108 14.77 24.878"
           y="0"
           sodipodi:role="line"
           id="tspan182">C-CO</tspan></text><text
         transform="matrix(0,1,1,0,21.882812,226.40625)"
         style="font-variant:normal;font-weight:normal;font-size:9.8px;font-family:Helvetica;-inkscape-font-specification:Helvetica;writing-mode:lr-tb;fill:#000000;fill-opacity:1;fill-rule:nonzero;stroke:none"
         id="text188"><tspan
           x="0"
           y="0"
           id="tspan186">2</tspan></text><text
         transform="matrix(0,1,1,0,19.316406,235.73347)"
         style="font-variant:normal;font-weight:normal;font-size:14px;font-family:Helvetica;-inkscape-font-specification:Helvetica;writing-mode:lr-tb;fill:#000000;fill-opacity:1;fill-rule:nonzero;stroke:none"
         id="text192"><tspan
           x="0 4.6620002 18.662001"
           y="0"
           sodipodi:role="line"
           id="tspan190">(‰)</tspan></text><path
         d="m 384.922,278.082 h 83.789 v -65.633 h -83.789 z"
         style="fill:#ffffff;fill-opacity:1;fill-rule:nonzero;stroke:none"
         id="path194" /><text
         transform="matrix(1,0,0,-1,390.39844,261.00781)"
         style="font-variant:normal;font-weight:normal;font-size:14px;font-family:Helvetica;-inkscape-font-specification:Helvetica;writing-mode:lr-tb;fill:#000000;fill-opacity:1;fill-rule:nonzero;stroke:none"
         id="text198"><tspan
           x="0 9.3240004 16.323999 24.108 31.108 38.108002 45.108002 48.986 56.77"
           y="0"
           sodipodi:role="line"
           id="tspan196">Ecosystem</tspan></text><path
         d="m 390.398,252.488 h 17.281 v -17.281 h -17.281 z"
         style="fill:#ffffff;fill-opacity:1;fill-rule:nonzero;stroke:none"
         id="path200" /><path
         d="m 404.371,243.848 c 0,-7.106 -10.66,-7.106 -10.66,0 0,7.109 10.66,7.109 10.66,0"
         style="fill:#a35513;fill-opacity:1;fill-rule:nonzero;stroke:#a35513;stroke-width:2.12598;stroke-linecap:round;stroke-linejoin:round;stroke-miterlimit:10;stroke-dasharray:none;stroke-opacity:1"
         id="path202" /><path
         d="m 390.398,235.211 h 17.281 V 217.93 h -17.281 z"
         style="fill:#ffffff;fill-opacity:1;fill-rule:nonzero;stroke:none"
         id="path204" /><path
         d="m 404.371,226.57 c 0,-7.109 -10.66,-7.109 -10.66,0 0,7.106 10.66,7.106 10.66,0"
         style="fill:#1361a3;fill-opacity:1;fill-rule:nonzero;stroke:#1361a3;stroke-width:2.12598;stroke-linecap:round;stroke-linejoin:round;stroke-miterlimit:10;stroke-dasharray:none;stroke-opacity:1"
         id="path206" /><text
         transform="matrix(1,0,0,-1,414.65234,239.83203)"
         style="font-variant:normal;font-weight:normal;font-size:11.2px;font-family:Helvetica;-inkscape-font-specification:Helvetica;writing-mode:lr-tb;fill:#000000;fill-opacity:1;fill-rule:nonzero;stroke:none"
         id="text212"><tspan
           x="0 3.1024001 9.3296003 13.0592 19.2864 24.8864"
           y="0"
           sodipodi:role="line"
           id="tspan208">forest</tspan><tspan
           x="0 6.2272 9.9568005 16.184 21.784 27.384001 29.870399 36.097599 42.324799"
           y="17.277344"
           sodipodi:role="line"
           id="tspan210">grassland</tspan></text><path
         d="M 384.922,201.492 H 532.524 V 113.246 H 384.922 Z"
         style="fill:#ffffff;fill-opacity:1;fill-rule:nonzero;stroke:none"
         id="path214" /><text
         transform="matrix(1,0,0,-1,390.39844,184.41797)"
         style="font-variant:normal;font-weight:normal;font-size:14px;font-family:Helvetica;-inkscape-font-specification:Helvetica;writing-mode:lr-tb;fill:#000000;fill-opacity:1;fill-rule:nonzero;stroke:none"
         id="text218"><tspan
           x="0 8.54 13.202 20.986 28.77 32.647999 44.310001 52.094002 59.877998"
           y="0"
           sodipodi:role="line"
           id="tspan216">Treatment</tspan></text><path
         d="m 390.398,175.898 h 17.281 v -17.281 h -17.281 z"
         style="fill:#ffffff;fill-opacity:1;fill-rule:nonzero;stroke:none"
         id="path220" /><path
         d="m 404.371,167.258 c 0,-7.11 -10.66,-7.11 -10.66,0 0,7.105 10.66,7.105 10.66,0"
         style="fill:none;stroke:#000000;stroke-width:2.12598;stroke-linecap:round;stroke-linejoin:round;stroke-miterlimit:10;stroke-dasharray:none;stroke-opacity:1"
         id="path222" /><path
         d="m 390.398,158.617 h 17.281 v -17.281 h -17.281 z"
         style="fill:#ffffff;fill-opacity:1;fill-rule:nonzero;stroke:none"
         id="path224" /><path
         d="m 393.711,155.305 h 10.66 v -10.66 h -10.66 z"
         style="fill:none;stroke:#000000;stroke-width:2.12598;stroke-linecap:round;stroke-linejoin:round;stroke-miterlimit:10;stroke-dasharray:none;stroke-opacity:1"
         id="path226" /><path
         d="m 390.398,141.336 h 17.281 v -22.613 h -17.281 z"
         style="fill:#ffffff;fill-opacity:1;fill-rule:nonzero;stroke:none"
         id="path228" /><path
         d="m 404.371,130.031 c 0,-7.109 -10.66,-7.109 -10.66,0 0,7.106 10.66,7.106 10.66,0"
         style="fill:#000000;fill-opacity:1;fill-rule:nonzero;stroke:none"
         id="path230" /><text
         transform="matrix(1,0,0,-1,414.65234,163.24219)"
         style="font-variant:normal;font-weight:normal;font-size:11.2px;font-family:Helvetica;-inkscape-font-specification:Helvetica;writing-mode:lr-tb;fill:#000000;fill-opacity:1;fill-rule:nonzero;stroke:none"
         id="text240"><tspan
           x="0 6.2272 8.7136002 12.4432 16.1728 22.4 26.129601 31.729601 34.832001 38.5616 44.788799 52.875198 59.102402"
           y="0"
           sodipodi:role="line"
           id="tspan232">air-dry/rewet</tspan><tspan
           x="0 6.2272 8.7136002 12.4432 16.1728 22.4 26.129601 31.729601 34.832001 38.5616 44.788799 52.875198 59.102402 62.2048 65.307198 71.8368 74.939201 80.5392 83.641602 89.868797 93.598396 99.8256 106.0864"
           y="17.281254"
           sodipodi:role="line"
           id="tspan234">air-dry/rewet + storage</tspan><tspan
           x="0 5.5999999 11.8272 18.054399 21.156799 24.8864 31.1136 33.599998 37.329601 43.556801 46.659199 50.388802 56.616001 62.843201 69.070396 75.2976"
           y="31.179691"
           sodipodi:role="line"
           id="tspan236">control-1 (2011)</tspan><tspan
           x="0 5.5999999 11.8272 18.054399 21.156799 24.8864 31.1136 33.599998 37.329601 43.556801 46.659199 50.388802 56.616001 62.843201 69.070396 75.2976"
           y="43.277348"
           sodipodi:role="line"
           id="tspan238">control-2 (2019)</tspan></text></g></g></svg>
