<?xml version="1.0" encoding="UTF-8" standalone="no"?>
<svg
   xmlns:osb="http://www.openswatchbook.org/uri/2009/osb"
   xmlns:dc="http://purl.org/dc/elements/1.1/"
   xmlns:cc="http://creativecommons.org/ns#"
   xmlns:rdf="http://www.w3.org/1999/02/22-rdf-syntax-ns#"
   xmlns:svg="http://www.w3.org/2000/svg"
   xmlns="http://www.w3.org/2000/svg"
   xmlns:sodipodi="http://sodipodi.sourceforge.net/DTD/sodipodi-0.dtd"
   xmlns:inkscape="http://www.inkscape.org/namespaces/inkscape"
   version="1.1"
   id="svg10"
   xml:space="preserve"
   width="717.33331"
   height="433.33334"
   viewBox="0 0 717.33331 433.33334"
   sodipodi:docname="mod.combined.svg"
   inkscape:version="1.0.1 (c497b03c, 2020-09-10)"><metadata
     id="metadata16"><rdf:RDF><cc:Work
         rdf:about=""><dc:format>image/svg+xml</dc:format><dc:type
           rdf:resource="http://purl.org/dc/dcmitype/StillImage" /><dc:title></dc:title></cc:Work></rdf:RDF></metadata><defs
     id="defs14"><linearGradient
       id="linearGradient2566"
       osb:paint="solid"><stop
         style="stop-color:#1e88e5;stop-opacity:1;"
         offset="0"
         id="stop2564" /></linearGradient><linearGradient
       id="linearGradient2542"
       osb:paint="solid"><stop
         style="stop-color:#1e88e5;stop-opacity:1;"
         offset="0"
         id="stop2540" /></linearGradient><marker
       style="overflow:visible;"
       id="Arrow2Mend"
       refX="0.0"
       refY="0.0"
       orient="auto"
       inkscape:stockid="Arrow2Mend"
       inkscape:isstock="true"><path
         transform="scale(0.6) rotate(180) translate(0,0)"
         d="M 8.7185878,4.0337352 L -2.2072895,0.016013256 L 8.7185884,-4.0017078 C 6.9730900,-1.6296469 6.9831476,1.6157441 8.7185878,4.0337352 z "
         style="fill-rule:evenodd;stroke-width:0.625;stroke-linejoin:round;stroke:#1e88e5;stroke-opacity:1;fill:#1e88e5;fill-opacity:1"
         id="path1447" /></marker><marker
       style="overflow:visible;"
       id="Arrow2Lend"
       refX="0.0"
       refY="0.0"
       orient="auto"
       inkscape:stockid="Arrow2Lend"
       inkscape:isstock="true"><path
         transform="scale(1.1) rotate(180) translate(1,0)"
         d="M 8.7185878,4.0337352 L -2.2072895,0.016013256 L 8.7185884,-4.0017078 C 6.9730900,-1.6296469 6.9831476,1.6157441 8.7185878,4.0337352 z "
         style="fill-rule:evenodd;stroke-width:0.625;stroke-linejoin:round;stroke:#1e88e5;stroke-opacity:1;fill:#1e88e5;fill-opacity:1"
         id="path1441" /></marker><marker
       style="overflow:visible;"
       id="Arrow1Lend"
       refX="0.0"
       refY="0.0"
       orient="auto"
       inkscape:stockid="Arrow1Lend"
       inkscape:isstock="true"><path
         transform="scale(0.8) rotate(180) translate(12.5,0)"
         style="fill-rule:evenodd;stroke:#1e88e5;stroke-width:1pt;stroke-opacity:1;fill:#1e88e5;fill-opacity:1"
         d="M 0.0,0.0 L 5.0,-5.0 L -12.5,0.0 L 5.0,5.0 L 0.0,0.0 z "
         id="path1423" /></marker><clipPath
       clipPathUnits="userSpaceOnUse"
       id="clipPath34"><path
         d="M 43.383,319.52 H 399.594 V 31.743 H 43.383 Z"
         id="path32" /></clipPath><clipPath
       clipPathUnits="userSpaceOnUse"
       id="clipPath264"><path
         d="M 25.09,169.52 H 188.524 V 18.676 H 25.09 Z"
         id="path262" /></clipPath><marker
       style="overflow:visible"
       id="Arrow2Mend-7"
       refX="0"
       refY="0"
       orient="auto"
       inkscape:stockid="Arrow2Mend"
       inkscape:isstock="true"><path
         transform="scale(-0.6)"
         d="M 8.7185878,4.0337352 -2.2072895,0.01601326 8.7185884,-4.0017078 c -1.7454984,2.3720609 -1.7354408,5.6174519 -6e-7,8.035443 z"
         style="fill:#1e88e5;fill-opacity:1;fill-rule:evenodd;stroke:#1e88e5;stroke-width:0.625;stroke-linejoin:round;stroke-opacity:1"
         id="path1447-4" /></marker></defs><sodipodi:namedview
     pagecolor="#ffffff"
     bordercolor="#666666"
     borderopacity="1"
     objecttolerance="10"
     gridtolerance="10"
     guidetolerance="10"
     inkscape:pageopacity="0"
     inkscape:pageshadow="2"
     inkscape:window-width="1297"
     inkscape:window-height="797"
     id="namedview12"
     showgrid="false"
     inkscape:zoom="0.98141267"
     inkscape:cx="436.61552"
     inkscape:cy="192.21213"
     inkscape:window-x="1"
     inkscape:window-y="23"
     inkscape:window-maximized="0"
     inkscape:current-layer="g18"
     inkscape:document-rotation="0" /><g
     id="g18"
     inkscape:groupmode="layer"
     inkscape:label="mod.1952.2032"
     transform="matrix(1.3333333,0,0,-1.3333333,0,433.33333)"><g
       id="g20"><path
         d="M 0,0 H 538 V 325 H 0 Z"
         style="fill:#ffffff;fill-opacity:1;fill-rule:nonzero;stroke:none"
         id="path22" /><path
         d="M 0,0 H 538 V 325 H 0 Z"
         style="fill:#ffffff;fill-opacity:1;fill-rule:nonzero;stroke:none"
         id="path24" /><path
         d="M 0,325 H 538 V 0 H 0 Z"
         style="fill:none;stroke:#ffffff;stroke-width:1.06698;stroke-linecap:round;stroke-linejoin:round;stroke-miterlimit:10;stroke-dasharray:none;stroke-opacity:1"
         id="path26" /></g><g
       id="g28"><g
         id="g30"
         clip-path="url(#clipPath34)"><path
           d="M 43.383,319.523 H 399.594 V 31.746 H 43.383 Z"
           style="fill:#ffffff;fill-opacity:1;fill-rule:nonzero;stroke:none"
           id="path36" /><path
           d="m 61.598,44.824 4.05,0.305 4.047,0.851 4.047,3.922 4.047,10.547 4.051,14.137 4.047,20.43 4.047,26.687 4.046,-4.769 4.051,2.855 4.047,41.586 4.047,109.375 4.047,35.691 4.051,-24.136 4.047,-19.578 4.046,-20.762 4.047,-17.969 4.051,-5.805 4.047,-4.957 4.047,-9.027 4.047,-10.273 4.05,-14.289 4.047,-5.411 4.047,-9.425 4.047,-5.258 4.051,-5.653 4.047,-2.464 4.047,-9.118 4.047,-9.515 4.05,-2.371 4.047,-5.594 4.047,-4.285 4.047,-4.531 4.051,-2.493 4.047,-3.039 4.046,-2.281 4.047,-2.707 4.051,-3.344 4.047,-3.496 4.047,-2.976 4.047,-1.856 4.05,-2.308 4.047,-2.008 4.047,-1.914 4.047,-1.825 4.051,-2.039 4.047,-1.183 4.047,-1.551 4.047,-1.762 4.05,-1.855 4.047,-1.824 4.047,-1.704 4.047,-1.578 4.051,-1.429 4.047,-1.246 4.046,-1.125 4.047,-1.067 4.051,-1.094 4.047,-1.277 4.047,-1.305 4.047,-2.097 4.051,-1.856 4.046,-1.429 4.047,-1.762 4.047,-3.117 4.051,-1.489 8.094,-2.968 4.047,-1.489 4.05,-1.484"
           style="fill:none;stroke:#ffc107;stroke-width:1.06698;stroke-linecap:butt;stroke-linejoin:round;stroke-miterlimit:10;stroke-dasharray:none;stroke-opacity:1"
           id="path38" /><path
           d="m 61.598,46.66 4.05,-0.125 8.094,-0.234 4.047,-0.113 4.051,-0.114 4.047,-0.113 4.047,-0.102 4.046,-0.089 4.051,-0.051 4.047,0.039 4.047,0.371 4.047,1.496 4.051,3.238 4.047,5.242 4.046,8.407 4.047,8.273 4.051,5.813 4.047,7.597 4.047,19.602 4.047,28.312 4.05,21.879 4.047,13.2 4.047,7.222 4.047,2.36 4.051,0.023 4.047,-0.617 4.047,-1.606 4.047,-2.742 4.05,-4.226 4.047,-4.813 4.047,-4.879 4.047,-5 4.051,-4.742 4.047,-4.27 4.046,-4.195 4.047,-4.945 4.051,-4.723 4.047,-4.258 4.047,-4.152 4.047,-3.937 4.05,-3.622 4.047,-3.246 4.047,-2.957 4.047,-2.683 4.051,-2.582 4.047,-2.575 4.047,-2.539 4.047,-2.355 4.05,-2.164 4.047,-2.043 4.047,-1.906 4.047,-1.786 4.051,-1.714 4.047,-1.598 4.046,-1.457 4.047,-1.41 4.051,-1.403 4.047,-1.398 4.047,-1.379 4.047,-1.351 4.051,-1.305 4.046,-1.238 4.047,-1.165 4.047,-1.089 4.051,-1.032 4.047,-1.007 4.047,-1 4.047,-1.067 4.05,-1.183"
           style="fill:none;stroke:#000000;stroke-width:1.06698;stroke-linecap:butt;stroke-linejoin:round;stroke-miterlimit:10;stroke-dasharray:none;stroke-opacity:1"
           id="path40" /><path
           d="m 61.598,46.074 4.05,-0.148 4.047,-0.141 4.047,-0.137 4.047,-0.132 4.051,-0.133 4.047,-0.133 4.047,-0.117 4.046,-0.102 4.051,-0.047 4.047,0.075 4.047,0.523 4.047,2.035 4.051,4.387 4.047,7.074 4.046,11.317 4.047,11.105 4.051,7.746 4.047,10.133 4.047,26.277 4.047,37.918 4.05,29.129 4.047,17.367 4.047,9.266 4.047,2.699 4.051,-0.437 4.047,-1.301 4.047,-2.617 4.047,-4.129 4.05,-6.113 4.047,-6.872 4.047,-6.937 4.047,-7.074 4.051,-6.707 4.047,-6.043 4.046,-5.922 4.047,-6.914 4.051,-6.582 4.047,-5.946 4.047,-5.777 4.047,-5.473 4.05,-5.027 4.047,-4.512 4.047,-4.109 4.047,-3.727 4.051,-3.586 4.047,-3.554 4.047,-3.504 4.047,-3.242 4.05,-2.973 4.047,-2.809 4.047,-2.613 4.047,-2.441 4.051,-2.34 4.047,-2.176 4.046,-1.98 4.047,-1.918 4.051,-1.895 4.047,-1.887 4.047,-1.855 4.047,-1.813 4.051,-1.738 4.046,-1.652 4.047,-1.547 4.047,-1.445 4.051,-1.36 4.047,-1.324 4.047,-1.312 4.047,-1.399 4.05,-1.543"
           style="fill:none;stroke:#d81b60;stroke-width:1.06698;stroke-linecap:butt;stroke-linejoin:round;stroke-miterlimit:10;stroke-dasharray:4.26791, 4.26791;stroke-dashoffset:0;stroke-opacity:1"
           id="path42" /><path
           d="m 61.598,48.227 4.05,-0.055 4.047,-0.055 4.047,-0.058 4.047,-0.055 4.051,-0.059 12.14,-0.175 4.051,-0.055 4.047,-0.055 4.047,-0.035 4.047,0.016 4.051,0.109 4.047,0.23 4.046,0.422 4.047,0.504 4.051,0.465 4.047,0.598 4.047,1.203 4.047,1.793 4.05,1.781 4.047,1.586 4.047,1.434 4.047,1.269 4.051,1.176 4.047,1.133 4.047,1.074 4.047,0.992 4.05,0.891 4.047,0.812 4.047,0.75 4.047,0.688 4.051,0.644 4.047,0.614 4.046,0.562 4.047,0.484 4.051,0.438 4.047,0.406 4.047,0.367 4.047,0.329 4.05,0.3 4.047,0.278 4.047,0.254 4.047,0.234 4.051,0.207 4.047,0.184 4.047,0.156 4.047,0.133 4.05,0.121 4.047,0.101 4.047,0.086 4.047,0.071 4.051,0.054 4.047,0.043 4.046,0.031 4.047,0.02 4.051,0.004 4.047,-0.008 4.047,-0.023 4.047,-0.036 4.051,-0.046 4.046,-0.059 4.047,-0.066 4.047,-0.075 4.051,-0.082 4.047,-0.089 4.047,-0.102 4.047,-0.109 4.05,-0.129"
           style="fill:none;stroke:#1e88e5;stroke-width:1.06698;stroke-linecap:butt;stroke-linejoin:round;stroke-miterlimit:10;stroke-dasharray:4.26791, 4.26791;stroke-dashoffset:0;stroke-opacity:1"
           id="path44" /><path
           d="m 302.965,79.207 c 0,-4.738 -7.11,-4.738 -7.11,0 0,4.742 7.11,4.742 7.11,0"
           style="fill:#000000;fill-opacity:1;fill-rule:nonzero;stroke:none"
           id="path46" /><path
           d="m 335.348,64.277 c 0,-4.738 -7.11,-4.738 -7.11,0 0,4.743 7.11,4.743 7.11,0"
           style="fill:#000000;fill-opacity:1;fill-rule:nonzero;stroke:none"
           id="path48" /><path
           d="m 297.879,79.684 h 7.109 v -7.109 h -7.109 z"
           style="fill:none;stroke:#000000;stroke-width:0.708661;stroke-linecap:round;stroke-linejoin:round;stroke-miterlimit:10;stroke-dasharray:none;stroke-opacity:1"
           id="path50" /><path
           d="m 337.371,68.141 c 0,-4.739 -7.109,-4.739 -7.109,0 0,4.742 7.109,4.742 7.109,0"
           style="fill:none;stroke:#000000;stroke-width:0.708661;stroke-linecap:round;stroke-linejoin:round;stroke-miterlimit:10;stroke-dasharray:none;stroke-opacity:1"
           id="path52" /><path
           d="m 299.008,80.699 h 0.808"
           style="fill:none;stroke:#000000;stroke-width:1.06698;stroke-linecap:butt;stroke-linejoin:round;stroke-miterlimit:10;stroke-dasharray:none;stroke-opacity:1"
           id="path54" /><path
           d="m 299.41,80.699 v -2.98"
           style="fill:none;stroke:#000000;stroke-width:1.06698;stroke-linecap:butt;stroke-linejoin:round;stroke-miterlimit:10;stroke-dasharray:none;stroke-opacity:1"
           id="path56" /><path
           d="m 299.008,77.719 h 0.808"
           style="fill:none;stroke:#000000;stroke-width:1.06698;stroke-linecap:butt;stroke-linejoin:round;stroke-miterlimit:10;stroke-dasharray:none;stroke-opacity:1"
           id="path58" /><path
           d="m 331.391,69.707 h 0.808"
           style="fill:none;stroke:#000000;stroke-width:1.06698;stroke-linecap:butt;stroke-linejoin:round;stroke-miterlimit:10;stroke-dasharray:none;stroke-opacity:1"
           id="path60" /><path
           d="M 331.793,69.707 V 58.848"
           style="fill:none;stroke:#000000;stroke-width:1.06698;stroke-linecap:butt;stroke-linejoin:round;stroke-miterlimit:10;stroke-dasharray:none;stroke-opacity:1"
           id="path62" /><path
           d="m 331.391,58.848 h 0.808"
           style="fill:none;stroke:#000000;stroke-width:1.06698;stroke-linecap:butt;stroke-linejoin:round;stroke-miterlimit:10;stroke-dasharray:none;stroke-opacity:1"
           id="path64" /><path
           d="m 301.031,77.977 h 0.809"
           style="fill:none;stroke:#000000;stroke-width:1.06698;stroke-linecap:butt;stroke-linejoin:round;stroke-miterlimit:10;stroke-dasharray:none;stroke-opacity:1"
           id="path66" /><path
           d="M 301.434,77.977 V 74.285"
           style="fill:none;stroke:#000000;stroke-width:1.06698;stroke-linecap:butt;stroke-linejoin:round;stroke-miterlimit:10;stroke-dasharray:none;stroke-opacity:1"
           id="path68" /><path
           d="m 301.031,74.285 h 0.809"
           style="fill:none;stroke:#000000;stroke-width:1.06698;stroke-linecap:butt;stroke-linejoin:round;stroke-miterlimit:10;stroke-dasharray:none;stroke-opacity:1"
           id="path70" /><path
           d="m 333.414,75.703 h 0.809"
           style="fill:none;stroke:#000000;stroke-width:1.06698;stroke-linecap:butt;stroke-linejoin:round;stroke-miterlimit:10;stroke-dasharray:none;stroke-opacity:1"
           id="path72" /><path
           d="M 333.816,75.703 V 60.582"
           style="fill:none;stroke:#000000;stroke-width:1.06698;stroke-linecap:butt;stroke-linejoin:round;stroke-miterlimit:10;stroke-dasharray:none;stroke-opacity:1"
           id="path74" /><path
           d="m 333.414,60.582 h 0.809"
           style="fill:none;stroke:#000000;stroke-width:1.06698;stroke-linecap:butt;stroke-linejoin:round;stroke-miterlimit:10;stroke-dasharray:none;stroke-opacity:1"
           id="path76" /><path
           d="M 43.383,319.523 H 399.594 V 31.746 H 43.383 Z"
           style="fill:none;stroke:#333333;stroke-width:1.06698;stroke-linecap:round;stroke-linejoin:round;stroke-miterlimit:10;stroke-dasharray:none;stroke-opacity:1"
           id="path78" /></g></g><g
       id="g80"><text
         transform="matrix(1,0,0,-1,33.5625,49.238281)"
         style="font-variant:normal;font-weight:normal;font-size:8.8px;font-family:Helvetica;-inkscape-font-specification:Helvetica;writing-mode:lr-tb;fill:#4d4d4d;fill-opacity:1;fill-rule:nonzero;stroke:none"
         id="text92"><tspan
           x="0"
           y="0"
           id="tspan82">0</tspan><tspan
           x="-9.7851601 -4.8923602 0.00044"
           y="-60.796879"
           sodipodi:role="line"
           id="tspan84">200</tspan><tspan
           x="-9.7851601 -4.8923602 0.00044"
           y="-121.59766"
           sodipodi:role="line"
           id="tspan86">400</tspan><tspan
           x="-9.7851601 -4.8923602 0.00044"
           y="-182.39455"
           sodipodi:role="line"
           id="tspan88">600</tspan><tspan
           x="-9.7851601 -4.8923602 0.00044"
           y="-243.19141"
           sodipodi:role="line"
           id="tspan90">800</tspan></text><path
         d="m 40.645,52.395 h 2.738"
         style="fill:none;stroke:#333333;stroke-width:1.06698;stroke-linecap:butt;stroke-linejoin:round;stroke-miterlimit:10;stroke-dasharray:none;stroke-opacity:1"
         id="path94" /><path
         d="m 40.645,113.191 h 2.738"
         style="fill:none;stroke:#333333;stroke-width:1.06698;stroke-linecap:butt;stroke-linejoin:round;stroke-miterlimit:10;stroke-dasharray:none;stroke-opacity:1"
         id="path96" /><path
         d="m 40.645,173.992 h 2.738"
         style="fill:none;stroke:#333333;stroke-width:1.06698;stroke-linecap:butt;stroke-linejoin:round;stroke-miterlimit:10;stroke-dasharray:none;stroke-opacity:1"
         id="path98" /><path
         d="m 40.645,234.789 h 2.738"
         style="fill:none;stroke:#333333;stroke-width:1.06698;stroke-linecap:butt;stroke-linejoin:round;stroke-miterlimit:10;stroke-dasharray:none;stroke-opacity:1"
         id="path100" /><path
         d="m 40.645,295.586 h 2.738"
         style="fill:none;stroke:#333333;stroke-width:1.06698;stroke-linecap:butt;stroke-linejoin:round;stroke-miterlimit:10;stroke-dasharray:none;stroke-opacity:1"
         id="path102" /><path
         d="m 91.957,29.004 v 2.742"
         style="fill:none;stroke:#333333;stroke-width:1.06698;stroke-linecap:butt;stroke-linejoin:round;stroke-miterlimit:10;stroke-dasharray:none;stroke-opacity:1"
         id="path104" /><path
         d="m 172.914,29.004 v 2.742"
         style="fill:none;stroke:#333333;stroke-width:1.06698;stroke-linecap:butt;stroke-linejoin:round;stroke-miterlimit:10;stroke-dasharray:none;stroke-opacity:1"
         id="path106" /><path
         d="m 253.871,29.004 v 2.742"
         style="fill:none;stroke:#333333;stroke-width:1.06698;stroke-linecap:butt;stroke-linejoin:round;stroke-miterlimit:10;stroke-dasharray:none;stroke-opacity:1"
         id="path108" /><path
         d="m 334.828,29.004 v 2.742"
         style="fill:none;stroke:#333333;stroke-width:1.06698;stroke-linecap:butt;stroke-linejoin:round;stroke-miterlimit:10;stroke-dasharray:none;stroke-opacity:1"
         id="path110" /><text
         transform="matrix(1,0,0,-1,82.171875,20.5)"
         style="font-variant:normal;font-weight:normal;font-size:8.8px;font-family:Helvetica;-inkscape-font-specification:Helvetica;writing-mode:lr-tb;fill:#4d4d4d;fill-opacity:1;fill-rule:nonzero;stroke:none"
         id="text114"><tspan
           x="0 4.8927999 9.7855997 14.6784 80.951202 85.844002 90.736801 95.629601 161.91406 166.80685 171.69966 176.59245 242.86526 247.75806 252.65086 257.54367"
           y="0"
           sodipodi:role="line"
           id="tspan112">1960198020002020</tspan></text><text
         transform="matrix(1,0,0,-1,209.87109,7.917969)"
         style="font-variant:normal;font-weight:normal;font-size:11px;font-family:Helvetica;-inkscape-font-specification:Helvetica;writing-mode:lr-tb;fill:#000000;fill-opacity:1;fill-rule:nonzero;stroke:none"
         id="text118"><tspan
           x="0 7.3260002 13.442 19.558001"
           y="0"
           sodipodi:role="line"
           id="tspan116">Year</tspan></text><text
         transform="matrix(0,1,1,0,16.347656,153.32031)"
         style="font-variant:normal;font-weight:normal;font-size:11px;font-family:Symbol;-inkscape-font-specification:Symbol;writing-mode:lr-tb;fill:#000000;fill-opacity:1;fill-rule:nonzero;stroke:none"
         id="text122"><tspan
           x="0"
           y="0"
           id="tspan120">Δ</tspan></text><text
         transform="matrix(0,1,1,0,10.886719,160.05078)"
         style="font-variant:normal;font-weight:normal;font-size:7.7px;font-family:Helvetica;-inkscape-font-specification:Helvetica;writing-mode:lr-tb;fill:#000000;fill-opacity:1;fill-rule:nonzero;stroke:none"
         id="text126"><tspan
           x="0 4.2811999"
           y="0"
           sodipodi:role="line"
           id="tspan124">14</tspan></text><text
         transform="matrix(0,1,1,0,16.347656,168.61719)"
         style="font-variant:normal;font-weight:normal;font-size:11px;font-family:Helvetica;-inkscape-font-specification:Helvetica;writing-mode:lr-tb;fill:#000000;fill-opacity:1;fill-rule:nonzero;stroke:none"
         id="text130"><tspan
           x="0 7.9419999 10.989 14.652 25.652"
           y="0"
           sodipodi:role="line"
           id="tspan128">C (‰)</tspan></text><path
         d="m 410.555,268.848 h 80.172 v -96.375 h -80.172 z"
         style="fill:#ffffff;fill-opacity:1;fill-rule:nonzero;stroke:none"
         id="path132" /><text
         transform="matrix(1,0,0,-1,416.03516,254.25781)"
         style="font-variant:normal;font-weight:normal;font-size:11px;font-family:Helvetica;-inkscape-font-specification:Helvetica;writing-mode:lr-tb;fill:#000000;fill-opacity:1;fill-rule:nonzero;stroke:none"
         id="text136"><tspan
           x="0 9.1630001 15.279 21.395 27.511 29.952999 33 39.116001 45.231998 51.348"
           y="0"
           sodipodi:role="line"
           id="tspan134">Model pool</tspan></text><path
         d="m 416.035,247.562 h 17.281 v -17.77 h -17.281 z"
         style="fill:#ffffff;fill-opacity:1;fill-rule:nonzero;stroke:none"
         id="path138" /><path
         d="m 417.762,238.676 h 13.824"
         style="fill:none;stroke:#ffc107;stroke-width:1.06698;stroke-linecap:butt;stroke-linejoin:round;stroke-miterlimit:10;stroke-dasharray:none;stroke-opacity:1"
         id="path140" /><path
         d="m 416.035,229.793 h 17.281 v -17.281 h -17.281 z"
         style="fill:#ffffff;fill-opacity:1;fill-rule:nonzero;stroke:none"
         id="path142" /><path
         d="m 417.762,221.152 h 13.824"
         style="fill:none;stroke:#000000;stroke-width:1.06698;stroke-linecap:butt;stroke-linejoin:round;stroke-miterlimit:10;stroke-dasharray:none;stroke-opacity:1"
         id="path144" /><path
         d="m 416.035,212.512 h 17.281 v -17.281 h -17.281 z"
         style="fill:#ffffff;fill-opacity:1;fill-rule:nonzero;stroke:none"
         id="path146" /><path
         d="m 417.762,203.871 h 13.824"
         style="fill:none;stroke:#d81b60;stroke-width:1.06698;stroke-linecap:butt;stroke-linejoin:round;stroke-miterlimit:10;stroke-dasharray:4.26791, 4.26791;stroke-dashoffset:0;stroke-opacity:1"
         id="path148" /><path
         d="m 416.035,195.234 h 17.281 v -17.281 h -17.281 z"
         style="fill:#ffffff;fill-opacity:1;fill-rule:nonzero;stroke:none"
         id="path150" /><path
         d="m 417.762,186.59 h 13.824"
         style="fill:none;stroke:#1e88e5;stroke-width:1.06698;stroke-linecap:butt;stroke-linejoin:round;stroke-miterlimit:10;stroke-dasharray:4.26791, 4.26791;stroke-dashoffset:0;stroke-opacity:1"
         id="path152" /><text
         transform="matrix(1,0,0,-1,438.79297,240.27344)"
         style="font-variant:normal;font-weight:normal;font-size:8.8px;font-family:Helvetica;-inkscape-font-specification:Helvetica;writing-mode:lr-tb;fill:#000000;fill-opacity:1;fill-rule:nonzero;stroke:none"
         id="text164"><tspan
           x="0 4.8927999 7.3304 14.6608 19.5536 23.9536 28.846399 33.739201 38.632 41.562401"
           y="0"
           sodipodi:role="line"
           id="tspan154">atmosphere</tspan><tspan
           x="0 2.9303999 10.2608 15.1536 20.0464 24.4464 29.339199 32.2696 37.162399 42.055199"
           y="9.5039034"
           sodipodi:role="line"
           id="tspan156">(measured)</tspan><tspan
           x="0 2.9303999 7.8232002 12.2232 17.115999 19.069599 22 26.892799 29.3304 31.284 36.1768"
           y="22.277342"
           sodipodi:role="line"
           id="tspan158">respiration</tspan><tspan
           x="0 2.4375999 7.3304 11.7304"
           y="39.558586"
           sodipodi:role="line"
           id="tspan160">fast</tspan><tspan
           x="0 4.4000001 6.3536 11.2464"
           y="56.839832"
           sodipodi:role="line"
           id="tspan162">slow</tspan></text><path
         d="M 410.555,161.516 H 532.52 V 82.418 H 410.555 Z"
         style="fill:#ffffff;fill-opacity:1;fill-rule:nonzero;stroke:none"
         id="path166" /><text
         transform="matrix(1,0,0,-1,416.03516,146.92578)"
         style="font-variant:normal;font-weight:normal;font-size:11px;font-family:Helvetica;-inkscape-font-specification:Helvetica;writing-mode:lr-tb;fill:#000000;fill-opacity:1;fill-rule:nonzero;stroke:none"
         id="text170"><tspan
           x="0 6.71 10.373 16.489 22.605 25.652 34.814999 40.931 47.047001"
           y="0"
           sodipodi:role="line"
           id="tspan168">Treatment</tspan></text><path
         d="m 416.035,140.227 h 17.281 v -17.281 h -17.281 z"
         style="fill:#ffffff;fill-opacity:1;fill-rule:nonzero;stroke:none"
         id="path172" /><path
         d="m 428.23,131.586 c 0,-4.742 -7.113,-4.742 -7.113,0 0,4.742 7.113,4.742 7.113,0"
         style="fill:none;stroke:#000000;stroke-width:0.708661;stroke-linecap:round;stroke-linejoin:round;stroke-miterlimit:10;stroke-dasharray:none;stroke-opacity:1"
         id="path174" /><path
         d="m 428.23,131.586 c 0,-4.742 -7.113,-4.742 -7.113,0 0,4.742 7.113,4.742 7.113,0"
         style="fill:none;stroke:#000000;stroke-width:0.708661;stroke-linecap:round;stroke-linejoin:round;stroke-miterlimit:10;stroke-dasharray:none;stroke-opacity:1"
         id="path176" /><path
         d="m 416.035,122.945 h 17.281 v -17.281 h -17.281 z"
         style="fill:#ffffff;fill-opacity:1;fill-rule:nonzero;stroke:none"
         id="path178" /><path
         d="m 421.117,117.859 h 7.109 v -7.109 h -7.109 z"
         style="fill:none;stroke:#000000;stroke-width:0.708661;stroke-linecap:round;stroke-linejoin:round;stroke-miterlimit:10;stroke-dasharray:none;stroke-opacity:1"
         id="path180" /><path
         d="m 421.117,117.859 h 7.109 v -7.109 h -7.109 z"
         style="fill:none;stroke:#000000;stroke-width:0.708661;stroke-linecap:round;stroke-linejoin:round;stroke-miterlimit:10;stroke-dasharray:none;stroke-opacity:1"
         id="path182" /><path
         d="m 416.035,105.664 h 17.281 v -17.77 h -17.281 z"
         style="fill:#ffffff;fill-opacity:1;fill-rule:nonzero;stroke:none"
         id="path184" /><path
         d="m 428.23,96.781 c 0,-4.742 -7.113,-4.742 -7.113,0 0,4.742 7.113,4.742 7.113,0"
         style="fill:#000000;fill-opacity:1;fill-rule:nonzero;stroke:none"
         id="path186" /><path
         d="m 428.23,96.781 c 0,-4.742 -7.113,-4.742 -7.113,0 0,4.742 7.113,4.742 7.113,0"
         style="fill:#000000;fill-opacity:1;fill-rule:nonzero;stroke:none"
         id="path188" /><text
         transform="matrix(1,0,0,-1,438.79297,128.42969)"
         style="font-variant:normal;font-weight:normal;font-size:8.8px;font-family:Helvetica;-inkscape-font-specification:Helvetica;writing-mode:lr-tb;fill:#000000;fill-opacity:1;fill-rule:nonzero;stroke:none"
         id="text198"><tspan
           x="0 4.8927999 6.8463998 9.7768002 12.7072 17.6 20.530399 24.930401 27.368 30.298401 35.1912 41.5448 46.437599"
           y="0"
           sodipodi:role="line"
           id="tspan190">air-dry/rewet</tspan><tspan
           x="0 4.8927999 6.8463998 9.7768002 12.7072 17.6 20.530399 24.930401 27.368 30.298401 35.1912 41.5448 46.437599 48.875198 51.312801 56.443199 58.880798 63.254398 65.692001 70.584801 73.515198 78.407997 83.300797"
           y="17.281246"
           sodipodi:role="line"
           id="tspan192">air-dry/rewet + storage</tspan><tspan
           x="0 4.4000001 9.2927999 14.1856 16.623199 19.5536 24.4464 26.4 29.3304 34.223202 36.660801 39.591202 44.484001 49.376801 54.2696 59.162399"
           y="30.054684"
           sodipodi:role="line"
           id="tspan194">control-1 (2011)</tspan><tspan
           x="0 4.4000001 9.2927999 14.1856 16.623199 19.5536 24.4464 26.4 29.3304 34.223202 36.660801 39.591202 44.484001 49.376801 54.2696 59.162399"
           y="39.558586"
           sodipodi:role="line"
           id="tspan196">control-2 (2019)</tspan></text></g><g
       id="g258"
       transform="matrix(1.1090514,0,0,1.1271647,190.51119,128.44604)"><g
         id="g260"
         clip-path="url(#clipPath264)"><path
           d="M 25.09,169.52 H 188.524 V 18.676 H 25.09 Z"
           style="fill:#ffffff;fill-opacity:1;fill-rule:nonzero;stroke:none"
           id="path266" /><path
           d="m 32.516,158.824 11.007,-3.847 11.004,-3.789 11.008,-3.719 11.004,-3.633 11.004,-3.535 11.008,-3.406 11.004,-3.262 11.007,-3.117 11.004,-2.989 11.008,-2.91 11.004,-2.855 11.004,-2.918 11.008,-3.059 V 70.113 l -11.008,4.852 -11.004,4.09 -11.004,3.168 -11.008,3.039 -11.004,2.836 -11.007,2.976 -11.004,3.254 -11.008,3.649 -11.004,4.046 -11.004,4.352 -11.008,4.586 -11.004,4.672 -11.007,4.496 z"
           style="fill:#bebebe;fill-opacity:0.101961;fill-rule:nonzero;stroke:none"
           id="path268" /><path
           d="m 32.516,90.895 11.007,-3.207 11.004,-3.739 11.008,-3.832 11.004,-6.144 11.004,-5.43 11.008,-4.188 11.004,-5.164 11.007,-9.129 11.004,-4.355 11.008,-4.352 22.008,-8.703 11.008,-4.347"
           style="fill:none;stroke:#ffc107;stroke-width:1.06698;stroke-linecap:butt;stroke-linejoin:round;stroke-miterlimit:10;stroke-dasharray:none;stroke-opacity:1"
           id="path270" /><path
           d="m 32.516,136.699 11.007,-4.101 11.004,-4.094 11.008,-4.051 11.004,-3.953 11.004,-3.816 11.008,-3.629 11.004,-3.41 11.007,-3.2 11.004,-3.019 11.008,-2.949 11.004,-2.926 11.004,-3.133 11.008,-3.457"
           style="fill:none;stroke:#000000;stroke-width:1.06698;stroke-linecap:butt;stroke-linejoin:round;stroke-miterlimit:10;stroke-dasharray:none;stroke-opacity:1"
           id="path272" /><path
           d="m 32.516,147.332 11.007,-5.551 11.004,-5.519 11.008,-5.446 11.004,-5.296 11.004,-5.106 11.008,-4.836 11.004,-4.531 11.007,-4.231 11.004,-3.984 11.008,-3.883 11.004,-3.832 11.004,-4.101 11.008,-4.524"
           style="fill:none;stroke:#d81b60;stroke-width:1.06698;stroke-linecap:butt;stroke-linejoin:round;stroke-miterlimit:10;stroke-dasharray:4.26791, 4.26791;stroke-dashoffset:0;stroke-opacity:1"
           id="path274" /><path
           d="m 32.516,106.289 11.007,0.016 11.004,-0.028 11.008,-0.07 11.004,-0.105 11.004,-0.137 11.008,-0.168 11.004,-0.195 11.007,-0.215 11.004,-0.242 11.008,-0.266 11.004,-0.289 11.004,-0.332 11.008,-0.371"
           style="fill:none;stroke:#1e88e5;stroke-width:1.06698;stroke-linecap:butt;stroke-linejoin:round;stroke-miterlimit:10;stroke-dasharray:4.26791, 4.26791;stroke-dashoffset:0;stroke-opacity:1"
           id="path276" /><path
           d="m 66.871,125.449 c 0,-5.453 -8.176,-5.453 -8.176,0 0,5.453 8.176,5.453 8.176,0"
           style="fill:#000000;fill-opacity:1;fill-rule:nonzero;stroke:none"
           id="path278" /><path
           d="m 154.914,81.715 c 0,-5.453 -8.176,-5.453 -8.176,0 0,5.449 8.176,5.449 8.176,0"
           style="fill:#000000;fill-opacity:1;fill-rule:nonzero;stroke:none"
           id="path280" /><path
           d="m 64.195,120.52 h 8.176 v -8.176 h -8.176 z"
           style="fill:none;stroke:#000000;stroke-width:0.708661;stroke-linecap:round;stroke-linejoin:round;stroke-miterlimit:10;stroke-dasharray:none;stroke-opacity:1"
           id="path282" /><path
           d="m 160.418,93.031 c 0,-5.453 -8.176,-5.453 -8.176,0 0,5.453 8.176,5.453 8.176,0"
           style="fill:none;stroke:#000000;stroke-width:0.708661;stroke-linecap:round;stroke-linejoin:round;stroke-miterlimit:10;stroke-dasharray:none;stroke-opacity:1"
           id="path284" /><path
           d="m 61.68,129.816 h 2.203"
           style="fill:none;stroke:#000000;stroke-width:1.06698;stroke-linecap:butt;stroke-linejoin:round;stroke-miterlimit:10;stroke-dasharray:none;stroke-opacity:1"
           id="path286" /><path
           d="m 62.781,129.816 v -8.734"
           style="fill:none;stroke:#000000;stroke-width:1.06698;stroke-linecap:butt;stroke-linejoin:round;stroke-miterlimit:10;stroke-dasharray:none;stroke-opacity:1"
           id="path288" /><path
           d="m 61.68,121.082 h 2.203"
           style="fill:none;stroke:#000000;stroke-width:1.06698;stroke-linecap:butt;stroke-linejoin:round;stroke-miterlimit:10;stroke-dasharray:none;stroke-opacity:1"
           id="path290" /><path
           d="m 149.727,97.613 h 2.199"
           style="fill:none;stroke:#000000;stroke-width:1.06698;stroke-linecap:butt;stroke-linejoin:round;stroke-miterlimit:10;stroke-dasharray:none;stroke-opacity:1"
           id="path292" /><path
           d="M 150.828,97.613 V 65.812"
           style="fill:none;stroke:#000000;stroke-width:1.06698;stroke-linecap:butt;stroke-linejoin:round;stroke-miterlimit:10;stroke-dasharray:none;stroke-opacity:1"
           id="path294" /><path
           d="m 149.727,65.812 h 2.199"
           style="fill:none;stroke:#000000;stroke-width:1.06698;stroke-linecap:butt;stroke-linejoin:round;stroke-miterlimit:10;stroke-dasharray:none;stroke-opacity:1"
           id="path296" /><path
           d="m 67.184,121.836 h 2.203"
           style="fill:none;stroke:#000000;stroke-width:1.06698;stroke-linecap:butt;stroke-linejoin:round;stroke-miterlimit:10;stroke-dasharray:none;stroke-opacity:1"
           id="path298" /><path
           d="M 68.285,121.836 V 111.031"
           style="fill:none;stroke:#000000;stroke-width:1.06698;stroke-linecap:butt;stroke-linejoin:round;stroke-miterlimit:10;stroke-dasharray:none;stroke-opacity:1"
           id="path300" /><path
           d="m 67.184,111.031 h 2.203"
           style="fill:none;stroke:#000000;stroke-width:1.06698;stroke-linecap:butt;stroke-linejoin:round;stroke-miterlimit:10;stroke-dasharray:none;stroke-opacity:1"
           id="path302" /><path
           d="m 155.23,115.18 h 2.2"
           style="fill:none;stroke:#000000;stroke-width:1.06698;stroke-linecap:butt;stroke-linejoin:round;stroke-miterlimit:10;stroke-dasharray:none;stroke-opacity:1"
           id="path304" /><path
           d="M 156.328,115.18 V 70.883"
           style="fill:none;stroke:#000000;stroke-width:1.06698;stroke-linecap:butt;stroke-linejoin:round;stroke-miterlimit:10;stroke-dasharray:none;stroke-opacity:1"
           id="path306" /><path
           d="m 155.23,70.883 h 2.2"
           style="fill:none;stroke:#000000;stroke-width:1.06698;stroke-linecap:butt;stroke-linejoin:round;stroke-miterlimit:10;stroke-dasharray:none;stroke-opacity:1"
           id="path308" /><path
           d="M 25.09,169.52 H 188.524 V 18.676 H 25.09 Z"
           style="fill:none;stroke:#333333;stroke-width:1.06698;stroke-linecap:round;stroke-linejoin:round;stroke-miterlimit:10;stroke-dasharray:none;stroke-opacity:1"
           id="path310" /></g></g><g
       id="g312"
       transform="matrix(1.1090514,0,0,1.1271647,190.51119,128.44604)"><text
         transform="matrix(1,0,0,-1,15.265625,43.746094)"
         style="font-variant:normal;font-weight:normal;font-size:8.8px;font-family:Helvetica;-inkscape-font-specification:Helvetica;writing-mode:lr-tb;fill:#4d4d4d;fill-opacity:1;fill-rule:nonzero;stroke:none"
         id="text320"><tspan
           x="0"
           y="0"
           id="tspan314">0</tspan><tspan
           x="-4.8945336 -0.0017336"
           y="-44.523441"
           sodipodi:role="line"
           id="tspan316">50</tspan><tspan
           x="-9.7851601 -4.8923602 0.00044"
           y="-89.046883"
           sodipodi:role="line"
           id="tspan318">100</tspan></text><path
         d="M 22.348,46.902 H 25.09"
         style="fill:none;stroke:#333333;stroke-width:1.06698;stroke-linecap:butt;stroke-linejoin:round;stroke-miterlimit:10;stroke-dasharray:none;stroke-opacity:1"
         id="path322" /><path
         d="M 22.348,91.426 H 25.09"
         style="fill:none;stroke:#333333;stroke-width:1.06698;stroke-linecap:butt;stroke-linejoin:round;stroke-miterlimit:10;stroke-dasharray:none;stroke-opacity:1"
         id="path324" /><path
         d="M 22.348,135.949 H 25.09"
         style="fill:none;stroke:#333333;stroke-width:1.06698;stroke-linecap:butt;stroke-linejoin:round;stroke-miterlimit:10;stroke-dasharray:none;stroke-opacity:1"
         id="path326" /><path
         d="m 60.031,15.938 v 2.738"
         style="fill:none;stroke:#333333;stroke-width:1.06698;stroke-linecap:butt;stroke-linejoin:round;stroke-miterlimit:10;stroke-dasharray:none;stroke-opacity:1"
         id="path328" /><path
         d="m 148.074,15.938 v 2.738"
         style="fill:none;stroke:#333333;stroke-width:1.06698;stroke-linecap:butt;stroke-linejoin:round;stroke-miterlimit:10;stroke-dasharray:none;stroke-opacity:1"
         id="path330" /><text
         transform="matrix(1,0,0,-1,50.246094,7.433594)"
         style="font-variant:normal;font-weight:normal;font-size:8.8px;font-family:Helvetica;-inkscape-font-specification:Helvetica;writing-mode:lr-tb;fill:#4d4d4d;fill-opacity:1;fill-rule:nonzero;stroke:none"
         id="text334"><tspan
           x="0 4.8927999 9.7855997 14.6784 88.035202 92.928001 97.820801 102.7136"
           y="0"
           sodipodi:role="line"
           id="tspan332">20112019</tspan></text></g><text
       xml:space="preserve"
       style="font-style:normal;font-weight:normal;font-size:30px;line-height:1.25;font-family:sans-serif;fill:#000000;fill-opacity:1;stroke:none;stroke-width:0.75"
       x="369.11078"
       y="-295.13922"
       id="text553"
       transform="scale(1,-1)"><tspan
         sodipodi:role="line"
         id="tspan551"
         x="369.11078"
         y="-295.13922"
         style="font-size:20px;stroke-width:0.75">b)</tspan></text><text
       xml:space="preserve"
       style="font-style:normal;font-weight:normal;font-size:30px;line-height:1.25;font-family:sans-serif;fill:#000000;fill-opacity:1;stroke:none;stroke-width:0.75"
       x="51.965908"
       y="-293.6676"
       id="text575"
       transform="scale(1,-1)"><tspan
         sodipodi:role="line"
         id="tspan573"
         x="51.965908"
         y="-293.6676"
         style="font-size:20px;stroke-width:0.75">a)</tspan></text><path
       style="fill:none;fill-opacity:1;stroke:#1e88e5;stroke-width:2.1;stroke-linecap:butt;stroke-linejoin:miter;stroke-miterlimit:3;stroke-dasharray:none;stroke-opacity:1;marker-end:url(#Arrow2Mend)"
       d="m 249.07515,279.24292 c 0,-27.43466 0,-27.43466 0,-27.43466"
       id="path595" /><path
       style="fill:none;fill-opacity:1;stroke:#1e88e5;stroke-width:2.1;stroke-linecap:butt;stroke-linejoin:miter;stroke-miterlimit:3;stroke-dasharray:none;stroke-opacity:1;marker-end:url(#Arrow2Mend-7)"
       d="m 346.7446,215.66968 c 0,27.43466 0,27.43466 0,27.43466"
       id="path595-4" /></g></svg>
